<svg width="46" height="46" viewBox="0 0 46 46" fill="none" xmlns="http://www.w3.org/2000/svg">
<path d="M0 36.4137V40.25C0 43.4215 7.72656 46 17.25 46C26.7734 46 34.5 43.4215 34.5 40.25V36.4137C30.7895 39.0281 24.0063 40.25 17.25 40.25C10.4938 40.25 3.71055 39.0281 0 36.4137ZM28.75 11.5C38.2734 11.5 46 8.92148 46 5.75C46 2.57852 38.2734 0 28.75 0C19.2266 0 11.5 2.57852 11.5 5.75C11.5 8.92148 19.2266 11.5 28.75 11.5ZM0 26.9891V31.625C0 34.7965 7.72656 37.375 17.25 37.375C26.7734 37.375 34.5 34.7965 34.5 31.625V26.9891C30.7895 30.0437 23.9973 31.625 17.25 31.625C10.5027 31.625 3.71055 30.0437 0 26.9891ZM37.375 27.9773C42.523 26.9801 46 25.1293 46 23V19.1637C43.9156 20.6371 40.852 21.6434 37.375 22.2633V27.9773ZM17.25 14.375C7.72656 14.375 0 17.5914 0 21.5625C0 25.5336 7.72656 28.75 17.25 28.75C26.7734 28.75 34.5 25.5336 34.5 21.5625C34.5 17.5914 26.7734 14.375 17.25 14.375ZM36.9527 19.4332C42.3434 18.4629 46 16.5582 46 14.375V10.5387C42.8105 12.7938 37.3301 14.0066 31.5621 14.2941C34.2125 15.5789 36.1621 17.3039 36.9527 19.4332Z" fill="#434343" fill-opacity="0.2"/>
</svg>
