<svg width="43" height="46" viewBox="0 0 43 46" fill="none" xmlns="http://www.w3.org/2000/svg">
<path d="M15.2459 35.6579C15.6873 34.4057 16.1215 33.1512 16.5758 31.9049C16.6196 31.8043 16.6345 31.6935 16.6187 31.585C16.6029 31.4764 16.557 31.3744 16.4864 31.2906C16.0156 30.6315 15.6014 29.9348 15.3801 29.1522C14.98 27.7305 15.5566 26.8385 17.0101 26.6208C17.6629 26.5124 18.3325 26.5674 18.9589 26.7808C19.7215 27.0491 20.1358 27.6599 20.0758 28.4661C19.9981 29.4547 19.5297 30.2902 18.9801 31.0775C18.8581 31.2309 18.7813 31.4152 18.7585 31.6099C18.7356 31.8045 18.7675 32.0016 18.8507 32.1791C19.2932 33.3301 19.6745 34.5022 20.137 35.7979C20.4842 34.7388 20.7972 33.8043 21.0938 32.8676C22.0023 29.9944 22.9046 27.1198 23.8006 24.2435C23.8923 23.9481 23.9371 23.8281 24.2795 24.047C26.5779 25.5192 29.0223 26.6831 31.6643 27.4057C32.5764 27.6552 33.4226 28.0083 34.0345 28.7615C34.0699 28.8062 34.0981 28.8545 34.1522 28.9404C32.9754 29.0357 31.8656 29.2511 30.83 29.7383C27.3806 31.3588 25.4376 34.0574 25.041 37.8586C24.9489 38.8582 25.0341 39.8662 25.2928 40.8361C25.3693 41.1362 25.2928 41.1997 24.9974 41.255C21.3596 41.9367 17.6443 42.1054 13.9596 41.7564C9.36987 41.3315 4.96606 40.2053 0.87293 38.014C0.549293 37.841 0.366879 37.6491 0.323335 37.249C0.151513 35.6897 -0.0650292 34.128 0.018528 32.5545C0.0891397 31.1976 0.358641 29.8854 1.26129 28.7885C1.72081 28.2106 2.34958 27.7909 3.05954 27.5881C5.69791 26.8735 8.22097 25.7866 10.5526 24.36L11.3929 23.8398L15.1447 35.6767L15.2459 35.6579Z" fill="#434343" fill-opacity="0.2"/>
<path d="M9.42988 11.8382C8.90853 10.0376 8.67316 8.24994 9.25218 6.43522C9.63545 5.23463 10.2926 4.13958 11.1716 3.23651C12.5038 1.85134 13.9902 0.676834 15.905 0.223742C18.8424 -0.471783 21.9635 0.469707 23.6899 2.83285C23.7447 2.9381 23.8371 3.0188 23.9488 3.0588C25.3116 3.44011 25.9271 4.48516 26.2261 5.74793C26.6815 7.66857 26.4791 9.57979 26.026 11.4757C26.006 11.5628 25.9754 11.6475 25.953 11.7346C25.9471 11.7633 25.9447 11.7925 25.946 11.8217C26.725 11.9571 26.9804 12.1995 26.9828 13.0139C26.9828 14.5567 26.4956 15.9737 25.7471 17.3082C25.6973 17.4177 25.6151 17.5093 25.5117 17.5707C25.0998 17.7378 25.0739 18.105 24.9656 18.4604C24.0995 21.3202 22.4319 23.515 19.5462 24.5295C17.2807 25.3262 15.213 24.7201 13.4006 23.2243C11.7683 21.8756 10.7327 20.1433 10.269 18.0744C10.2443 17.9649 10.2808 17.8202 10.1348 17.7649C9.61936 17.566 9.42871 17.0988 9.23217 16.648C8.73553 15.4712 8.31304 14.2778 8.35188 12.9774C8.37424 12.2266 8.66375 11.9217 9.42988 11.8382Z" fill="#434343" fill-opacity="0.2"/>
<path d="M41.963 37.5099C41.4523 33.8981 38.2477 31.1443 34.6112 31.1925C30.95 31.2396 27.969 33.8299 27.3405 37.5087C26.7627 40.8934 28.8316 44.3475 32.1716 45.5526C32.667 45.7315 33.1825 45.8515 33.6885 45.9998H35.3962C35.5974 45.8444 35.8469 45.9092 36.0717 45.8633C39.9847 45.0595 42.5232 41.4677 41.963 37.5099ZM31.3772 42.0126C29.8472 40.6215 29.4777 38.2184 30.4839 36.379L36.8602 42.7611C35.3244 43.7685 32.9683 43.4637 31.3772 42.0126ZM38.8608 40.7828L32.4881 34.4089C34.1746 33.4144 36.4777 33.7369 38.0053 35.2244C38.7323 35.933 39.2091 36.8589 39.3634 37.8623C39.5178 38.8657 39.3414 39.892 38.8608 40.7863V40.7828Z" fill="#434343" fill-opacity="0.2"/>
</svg>
