<svg width="47" height="46" viewBox="0 0 47 46" fill="none" xmlns="http://www.w3.org/2000/svg">
<path d="M43.7653 18.7683C45.0012 18.4492 45.8169 17.7156 46.0045 16.3999V15.4135C45.9572 14.8775 45.7488 14.3683 45.4068 13.9529C44.9405 13.4069 44.3136 13.0732 43.7215 12.6957C39.6162 10.0629 35.5116 7.42868 31.4078 4.79291C29.2319 3.39526 27.0546 1.99761 24.8757 0.599964C23.6735 -0.169642 22.4422 -0.21683 21.2108 0.562888C20.9962 0.698833 20.7771 0.828037 20.5637 0.967353C17.8537 2.72677 15.1292 4.46485 12.4081 6.20742C8.7679 8.54133 5.12809 10.8752 1.48865 13.2092C0.695455 13.7192 0.133698 14.3641 0 15.3236V16.4033C0.0502763 16.8476 0.210528 17.2724 0.466258 17.6392C0.923528 18.2627 1.54708 18.6177 2.28185 18.7874C2.61891 18.8649 2.76721 19.0289 2.74362 19.3739C2.72677 19.6267 2.74362 19.8817 2.74362 20.1345C2.74362 25.1528 2.74362 30.1678 2.74362 35.1794C2.74362 35.5289 2.73014 35.7985 2.28523 35.9064C0.989815 36.2198 0.150551 36.9883 0 38.3781V43.5788C0.0775224 44.0148 0.160662 44.4428 0.428058 44.8214C0.651415 45.155 0.946905 45.4342 1.29268 45.6382C1.63845 45.8422 2.02566 45.9658 2.42566 46H43.5788C44.0159 45.9225 44.4439 45.8405 44.8237 45.5731C45.1577 45.3507 45.4373 45.056 45.6417 44.7107C45.8461 44.3655 45.9701 43.9786 46.0045 43.5788V38.3702C45.9146 37.968 45.8809 37.5557 45.6393 37.1905C45.4269 36.8635 45.1517 36.5819 44.8296 36.3621C44.5075 36.1422 44.145 35.9885 43.7631 35.9097C43.389 35.8243 43.2575 35.6446 43.2575 35.2648C43.2665 29.9813 43.2665 24.6978 43.2575 19.4143C43.2553 19.0323 43.3957 18.8649 43.7653 18.7683ZM22.9938 7.25566C23.5615 7.25499 24.1166 7.42287 24.5888 7.73802C25.061 8.05316 25.429 8.50139 25.6462 9.0259C25.8634 9.55041 25.92 10.1276 25.8089 10.6843C25.6977 11.241 25.4238 11.7522 25.0218 12.1531C24.6198 12.5539 24.1079 12.8265 23.5509 12.9361C22.9939 13.0457 22.4168 12.9875 21.8929 12.7689C21.369 12.5503 20.9218 12.181 20.608 11.708C20.2941 11.2349 20.1278 10.6793 20.13 10.1116C20.1402 9.356 20.4455 8.63431 20.9805 8.10069C21.5156 7.56706 22.2382 7.2638 22.9938 7.25566ZM14.0169 35.9524C12.3392 35.9382 10.6621 35.9382 8.98586 35.9524C8.6915 35.9524 8.61734 35.8771 8.61847 35.5862C8.63083 32.8358 8.62633 30.0866 8.62633 27.3362C8.62633 24.5858 8.63307 21.8669 8.61734 19.1346C8.61734 18.7975 8.69374 18.7166 9.0308 18.7211C10.6925 18.7402 12.3553 18.738 14.0169 18.7211C14.3102 18.7211 14.3832 18.7964 14.3832 19.0874C14.3742 24.5873 14.3742 30.0869 14.3832 35.5862C14.381 35.8805 14.3102 35.958 14.0169 35.9524ZM25.4768 35.9524C23.8151 35.9322 22.1523 35.9356 20.4906 35.9524C20.1985 35.9524 20.1232 35.8794 20.1232 35.5862C20.1322 30.0869 20.1322 24.5877 20.1232 19.0885C20.1232 18.7975 20.194 18.7177 20.4895 18.72C22.1658 18.7357 23.8428 18.7357 25.5206 18.72C25.8127 18.72 25.8891 18.7919 25.888 19.0851C25.8756 21.8355 25.8812 24.5903 25.8812 27.3351C25.8812 30.0798 25.8745 32.8043 25.8891 35.5367C25.888 35.876 25.8116 35.9614 25.4734 35.958L25.4768 35.9524ZM37.022 35.9524C35.345 35.9382 33.6679 35.9382 31.9909 35.9524C31.6965 35.9524 31.6235 35.8772 31.6246 35.585C31.6359 32.8358 31.6314 30.0866 31.6314 27.3362C31.6314 24.5858 31.6381 21.8669 31.6224 19.1346C31.6224 18.7975 31.6999 18.7166 32.0359 18.7211C33.6987 18.7406 35.3607 18.7406 37.022 18.7211C37.3164 18.7211 37.3894 18.7975 37.3883 19.0885C37.3793 24.5885 37.3793 30.0881 37.3883 35.5873C37.386 35.8816 37.3119 35.958 37.0186 35.9524H37.022Z" fill="#434343" fill-opacity="0.2"/>
</svg>
