<svg width="196" height="385" viewBox="0 0 196 385" fill="none" xmlns="http://www.w3.org/2000/svg">
<circle cx="3.18182" cy="52.8181" r="3.18182" fill="#F8F8F8"/>
<circle cx="3.18182" cy="71.9089" r="3.18182" fill="#F8F8F8"/>
<circle cx="3.18182" cy="90.9997" r="3.18182" fill="#F8F8F8"/>
<circle cx="3.18182" cy="110.091" r="3.18182" fill="#F8F8F8"/>
<circle cx="3.18182" cy="129.182" r="3.18182" fill="#F8F8F8"/>
<circle cx="3.18182" cy="148.273" r="3.18182" fill="#F8F8F8"/>
<circle cx="3.18182" cy="167.363" r="3.18182" fill="#F8F8F8"/>
<circle cx="3.18182" cy="186.454" r="3.18182" fill="#F8F8F8"/>
<circle cx="3.18182" cy="205.545" r="3.18182" fill="#F8F8F8"/>
<circle cx="3.18182" cy="224.636" r="3.18182" fill="#F8F8F8"/>
<circle cx="3.18182" cy="243.727" r="3.18182" fill="#F8F8F8"/>
<circle cx="3.18182" cy="262.818" r="3.18182" fill="#F8F8F8"/>
<circle cx="3.18182" cy="281.909" r="3.18182" fill="#F8F8F8"/>
<circle cx="3.18182" cy="301" r="3.18182" fill="#F8F8F8"/>
<circle cx="3.18182" cy="320.091" r="3.18182" fill="#F8F8F8"/>
<circle cx="3.18182" cy="339.182" r="3.18182" fill="#F8F8F8"/>
<circle cx="3.18182" cy="358.273" r="3.18182" fill="#F8F8F8"/>
<circle cx="40.0909" cy="3.18182" r="3.18182" fill="#F8F8F8"/>
<circle cx="40.0909" cy="22.2726" r="3.18182" fill="#F8F8F8"/>
<circle cx="40.0909" cy="41.3635" r="3.18182" fill="#F8F8F8"/>
<circle cx="40.0909" cy="60.4548" r="3.18182" fill="#F8F8F8"/>
<circle cx="40.0909" cy="79.5456" r="3.18182" fill="#F8F8F8"/>
<circle cx="40.0909" cy="98.6364" r="3.18182" fill="#F8F8F8"/>
<circle cx="40.0909" cy="117.727" r="3.18182" fill="#F8F8F8"/>
<circle cx="40.0909" cy="136.818" r="3.18182" fill="#F8F8F8"/>
<circle cx="40.0909" cy="155.909" r="3.18182" fill="#F8F8F8"/>
<circle cx="40.0909" cy="175" r="3.18182" fill="#F8F8F8"/>
<circle cx="40.0909" cy="194.091" r="3.18182" fill="#F8F8F8"/>
<circle cx="40.0909" cy="213.182" r="3.18182" fill="#F8F8F8"/>
<circle cx="40.0909" cy="232.273" r="3.18182" fill="#F8F8F8"/>
<circle cx="40.0909" cy="251.363" r="3.18182" fill="#F8F8F8"/>
<circle cx="40.0909" cy="270.455" r="3.18182" fill="#F8F8F8"/>
<circle cx="40.0909" cy="289.546" r="3.18182" fill="#F8F8F8"/>
<circle cx="40.0909" cy="308.636" r="3.18182" fill="#F8F8F8"/>
<circle cx="79.5455" cy="42.6364" r="3.18182" fill="#F8F8F8"/>
<circle cx="79.5455" cy="61.7272" r="3.18182" fill="#F8F8F8"/>
<circle cx="79.5455" cy="80.818" r="3.18182" fill="#F8F8F8"/>
<circle cx="79.5455" cy="99.9094" r="3.18182" fill="#F8F8F8"/>
<circle cx="79.5455" cy="119" r="3.18182" fill="#F8F8F8"/>
<circle cx="79.5455" cy="138.091" r="3.18182" fill="#F8F8F8"/>
<circle cx="79.5455" cy="157.182" r="3.18182" fill="#F8F8F8"/>
<circle cx="79.5455" cy="176.273" r="3.18182" fill="#F8F8F8"/>
<circle cx="79.5455" cy="195.363" r="3.18182" fill="#F8F8F8"/>
<circle cx="79.5455" cy="214.455" r="3.18182" fill="#F8F8F8"/>
<circle cx="79.5455" cy="233.546" r="3.18182" fill="#F8F8F8"/>
<circle cx="79.5455" cy="252.636" r="3.18182" fill="#F8F8F8"/>
<circle cx="79.5455" cy="271.727" r="3.18182" fill="#F8F8F8"/>
<circle cx="79.5455" cy="290.818" r="3.18182" fill="#F8F8F8"/>
<circle cx="79.5455" cy="309.909" r="3.18182" fill="#F8F8F8"/>
<circle cx="79.5455" cy="329" r="3.18182" fill="#F8F8F8"/>
<circle cx="79.5455" cy="348.091" r="3.18182" fill="#F8F8F8"/>
<circle cx="116.455" cy="75.7272" r="3.18182" fill="#F8F8F8"/>
<circle cx="116.455" cy="94.818" r="3.18182" fill="#F8F8F8"/>
<circle cx="116.455" cy="113.909" r="3.18182" fill="#F8F8F8"/>
<circle cx="116.455" cy="133" r="3.18182" fill="#F8F8F8"/>
<circle cx="116.455" cy="152.091" r="3.18182" fill="#F8F8F8"/>
<circle cx="116.455" cy="171.182" r="3.18182" fill="#F8F8F8"/>
<circle cx="116.455" cy="190.273" r="3.18182" fill="#F8F8F8"/>
<circle cx="116.455" cy="209.363" r="3.18182" fill="#F8F8F8"/>
<circle cx="116.455" cy="228.454" r="3.18182" fill="#F8F8F8"/>
<circle cx="116.455" cy="247.546" r="3.18182" fill="#F8F8F8"/>
<circle cx="116.455" cy="266.636" r="3.18182" fill="#F8F8F8"/>
<circle cx="116.455" cy="285.727" r="3.18182" fill="#F8F8F8"/>
<circle cx="116.455" cy="304.818" r="3.18182" fill="#F8F8F8"/>
<circle cx="116.455" cy="323.909" r="3.18182" fill="#F8F8F8"/>
<circle cx="116.455" cy="343" r="3.18182" fill="#F8F8F8"/>
<circle cx="116.455" cy="362.091" r="3.18182" fill="#F8F8F8"/>
<circle cx="116.455" cy="381.182" r="3.18182" fill="#F8F8F8"/>
<circle cx="154.636" cy="36.2726" r="3.18182" fill="#F8F8F8"/>
<circle cx="154.636" cy="55.3635" r="3.18182" fill="#F8F8F8"/>
<circle cx="154.636" cy="74.4543" r="3.18182" fill="#F8F8F8"/>
<circle cx="154.636" cy="93.5456" r="3.18182" fill="#F8F8F8"/>
<circle cx="154.636" cy="112.636" r="3.18182" fill="#F8F8F8"/>
<circle cx="154.636" cy="131.727" r="3.18182" fill="#F8F8F8"/>
<circle cx="154.636" cy="150.818" r="3.18182" fill="#F8F8F8"/>
<circle cx="154.636" cy="169.909" r="3.18182" fill="#F8F8F8"/>
<circle cx="154.636" cy="189" r="3.18182" fill="#F8F8F8"/>
<circle cx="154.636" cy="208.091" r="3.18182" fill="#F8F8F8"/>
<circle cx="154.636" cy="227.182" r="3.18182" fill="#F8F8F8"/>
<circle cx="154.636" cy="246.273" r="3.18182" fill="#F8F8F8"/>
<circle cx="154.636" cy="265.363" r="3.18182" fill="#F8F8F8"/>
<circle cx="154.636" cy="284.454" r="3.18182" fill="#F8F8F8"/>
<circle cx="154.636" cy="303.546" r="3.18182" fill="#F8F8F8"/>
<circle cx="154.636" cy="322.636" r="3.18182" fill="#F8F8F8"/>
<circle cx="154.636" cy="341.727" r="3.18182" fill="#F8F8F8"/>
<circle cx="192.818" cy="57.9089" r="3.18182" fill="#F8F8F8"/>
<circle cx="192.818" cy="76.9997" r="3.18182" fill="#F8F8F8"/>
<circle cx="192.818" cy="96.0905" r="3.18182" fill="#F8F8F8"/>
<circle cx="192.818" cy="115.182" r="3.18182" fill="#F8F8F8"/>
<circle cx="192.818" cy="134.273" r="3.18182" fill="#F8F8F8"/>
<circle cx="192.818" cy="153.363" r="3.18182" fill="#F8F8F8"/>
<circle cx="192.818" cy="172.454" r="3.18182" fill="#F8F8F8"/>
<circle cx="192.818" cy="191.545" r="3.18182" fill="#F8F8F8"/>
<circle cx="192.818" cy="210.636" r="3.18182" fill="#F8F8F8"/>
<circle cx="192.818" cy="229.727" r="3.18182" fill="#F8F8F8"/>
<circle cx="192.818" cy="248.818" r="3.18182" fill="#F8F8F8"/>
<circle cx="192.818" cy="267.909" r="3.18182" fill="#F8F8F8"/>
<circle cx="192.818" cy="287" r="3.18182" fill="#F8F8F8"/>
<circle cx="192.818" cy="306.091" r="3.18182" fill="#F8F8F8"/>
<circle cx="192.818" cy="325.182" r="3.18182" fill="#F8F8F8"/>
<circle cx="192.818" cy="344.273" r="3.18182" fill="#F8F8F8"/>
<circle cx="192.818" cy="363.363" r="3.18182" fill="#F8F8F8"/>
</svg>
