<svg width="460" height="256" viewBox="0 0 460 256" fill="none" xmlns="http://www.w3.org/2000/svg">
<g filter="url(#filter0_d_2_700)">
<path d="M46 56C46 51.286 46 48.9289 47.4645 47.4645C48.9289 46 51.286 46 56 46H64L74.4637 55.0371C77.581 57.7295 79.1397 59.0757 81 59.0757C82.8603 59.0757 84.419 57.7295 87.5363 55.0371L98 46H396C400.714 46 403.071 46 404.536 47.4645C406 48.9289 406 51.286 406 56V192C406 196.714 406 199.071 404.536 200.536C403.071 202 400.714 202 396 202H56C51.286 202 48.9289 202 47.4645 200.536C46 199.071 46 196.714 46 192V56Z" fill="#B63334"/>
</g>
<defs>
<filter id="filter0_d_2_700" x="0" y="0" width="460" height="256" filterUnits="userSpaceOnUse" color-interpolation-filters="sRGB">
<feFlood flood-opacity="0" result="BackgroundImageFix"/>
<feColorMatrix in="SourceAlpha" type="matrix" values="0 0 0 0 0 0 0 0 0 0 0 0 0 0 0 0 0 0 127 0" result="hardAlpha"/>
<feOffset dx="4" dy="4"/>
<feGaussianBlur stdDeviation="25"/>
<feComposite in2="hardAlpha" operator="out"/>
<feColorMatrix type="matrix" values="0 0 0 0 0 0 0 0 0 0 0 0 0 0 0 0 0 0 0.1 0"/>
<feBlend mode="normal" in2="BackgroundImageFix" result="effect1_dropShadow_2_700"/>
<feBlend mode="normal" in="SourceGraphic" in2="effect1_dropShadow_2_700" result="shape"/>
</filter>
</defs>
</svg>
