<svg width="53" height="9" viewBox="0 0 53 9" fill="none" xmlns="http://www.w3.org/2000/svg">
<path d="M4.5 0L5.51031 3.10942H8.77975L6.13472 5.03115L7.14503 8.14058L4.5 6.21885L1.85497 8.14058L2.86528 5.03115L0.220246 3.10942H3.48969L4.5 0Z" fill="#FFF500"/>
<path d="M15.5 0L16.5103 3.10942H19.7798L17.1347 5.03115L18.145 8.14058L15.5 6.21885L12.855 8.14058L13.8653 5.03115L11.2202 3.10942H14.4897L15.5 0Z" fill="#FFF500"/>
<path d="M26.5 0L27.5103 3.10942H30.7798L28.1347 5.03115L29.145 8.14058L26.5 6.21885L23.855 8.14058L24.8653 5.03115L22.2202 3.10942H25.4897L26.5 0Z" fill="#FFF500"/>
<path d="M37.5 0L38.5103 3.10942H41.7798L39.1347 5.03115L40.145 8.14058L37.5 6.21885L34.855 8.14058L35.8653 5.03115L33.2202 3.10942H36.4897L37.5 0Z" fill="#FFF500"/>
<path d="M48.5 0L49.5103 3.10942H52.7798L50.1347 5.03115L51.145 8.14058L48.5 6.21885L45.855 8.14058L46.8653 5.03115L44.2202 3.10942H47.4897L48.5 0Z" fill="#FFF500"/>
</svg>
