<svg width="59" height="46" viewBox="0 0 59 46" fill="none" xmlns="http://www.w3.org/2000/svg">
<path d="M0 11.3708C0.105551 11.2814 0.0906425 11.1401 0.145505 11.028C0.280276 10.7524 0.503304 10.5914 0.784177 10.4865C5.3163 8.80641 9.84843 7.12416 14.3806 5.43972C19.191 3.65311 24.0014 1.8653 28.8118 0.0763061C29.1014 -0.031102 29.421 -0.0249237 29.7063 0.0935997C35.9479 2.41413 42.1895 4.73187 48.4311 7.04684C51.5142 8.19259 54.5972 9.33814 57.6802 10.4835C58.3404 10.7292 58.6063 11.3601 58.3171 11.9672C58.1788 12.257 57.9355 12.4025 57.6445 12.5104C53.9472 13.8784 50.2499 15.25 46.5527 16.6251C40.9448 18.7083 35.3365 20.7927 29.7278 22.8783C29.423 22.9999 29.0832 22.9999 28.7784 22.8783C23.4253 20.8726 18.0711 18.8697 12.7156 16.8696C12.5206 16.7969 12.4133 16.835 12.2862 16.9788C11.5951 17.7588 11.1693 18.6819 10.8354 19.6527C10.2152 21.4584 9.9504 23.3291 9.82756 25.2248C9.8167 25.2965 9.82569 25.3699 9.85355 25.4368C9.88141 25.5038 9.92707 25.5618 9.98559 25.6047C11.8217 27.1039 11.901 30.1368 10.146 31.7523C10.0745 31.8089 10.02 31.884 9.98845 31.9696C9.95689 32.0551 9.9495 32.1477 9.9671 32.2371C10.2056 34.2461 10.4304 36.2564 10.6594 38.266C10.8904 40.2936 11.1202 42.3231 11.3488 44.3546C11.3804 44.6384 11.449 44.9217 11.3888 45.2121C11.3047 45.6188 11.0906 45.8961 10.6636 45.976C10.3977 46.0166 10.1305 45.9933 9.86393 45.9939C8.48839 45.9971 7.11265 45.9971 5.73672 45.9939C5.13502 45.985 4.81777 45.6856 4.80107 45.0863C4.78139 44.3593 4.92034 43.6455 4.99905 42.927C5.16305 41.3997 5.33956 39.8737 5.51488 38.3477C5.68305 36.8909 5.83988 35.4328 6.01282 33.976C6.07842 33.425 6.13566 32.8728 6.19649 32.3212C6.22332 32.0827 6.12016 31.9038 5.96273 31.7374C4.85892 30.5704 4.59116 29.1779 4.90901 27.6519C5.07954 26.8486 5.50246 26.1208 6.11598 25.5749C6.35452 25.356 6.44874 25.1068 6.46663 24.7907C6.61929 22.1519 7.08204 19.5758 8.08269 17.1141C8.22879 16.7563 8.422 16.4188 8.59076 16.0705C8.78875 15.6638 8.7631 15.5875 8.35223 15.4331C6.35511 14.6841 4.34965 13.9577 2.35015 13.2153C1.82716 13.0221 1.31193 12.8205 0.783581 12.6416C0.329176 12.4878 0.0488993 12.2176 0.0310093 11.7203C0.0344776 11.6808 0.023456 11.6414 0 11.6094L0 11.3708Z" fill="#434343" fill-opacity="0.2"/>
<path d="M45.2509 26.2939C45.3153 27.6118 45.3445 28.9327 45.4524 30.247C45.5812 31.8082 44.9443 33.02 43.8549 34.0492C42.599 35.2348 41.0897 35.9993 39.4939 36.6021C37.3584 37.4084 35.1406 37.8694 32.8746 38.1121C30.6236 38.3557 28.3538 38.3717 26.0997 38.1598C23.0709 37.8711 20.1262 37.2378 17.3729 35.8889C16.2345 35.3314 15.1808 34.6462 14.3119 33.7093C13.4306 32.7552 12.9642 31.6681 13.0406 30.3365C13.2093 27.3954 13.3387 24.4513 13.4705 21.5108C13.4836 21.2233 13.5504 21.2013 13.811 21.2985C18.4867 23.0477 23.1641 24.7934 27.8433 26.5355C28.7975 26.8933 29.7337 26.8831 30.6866 26.5265C35.3253 24.79 39.966 23.0584 44.6086 21.3319C45.0129 21.181 45.007 21.1804 45.026 21.5996C45.0988 23.164 45.1737 24.7288 45.2509 26.2939Z" fill="#434343" fill-opacity="0.2"/>
</svg>
