<svg width="50" height="52" viewBox="0 0 50 52" fill="none" xmlns="http://www.w3.org/2000/svg">
<path d="M41.7368 19.9473H7.84211C5.16788 19.9473 3 22.1151 3 24.7894V44.1578C3 46.832 5.16788 48.9999 7.84211 48.9999H41.7368C44.4111 48.9999 46.5789 46.832 46.5789 44.1578V24.7894C46.5789 22.1151 44.4111 19.9473 41.7368 19.9473Z" stroke="#D3D3D3" stroke-width="5" stroke-linecap="round" stroke-linejoin="round"/>
<path d="M10.2632 10.2632C10.2632 8.33685 11.0284 6.48944 12.3905 5.12733C13.7526 3.76522 15.6 3 17.5263 3H32.0527C33.979 3 35.8264 3.76522 37.1885 5.12733C38.5506 6.48944 39.3158 8.33685 39.3158 10.2632V19.9474H10.2632V10.2632Z" stroke="#D3D3D3" stroke-width="5" stroke-linecap="round" stroke-linejoin="round"/>
</svg>
