<svg width="34" height="34" viewBox="0 0 34 34" fill="none" xmlns="http://www.w3.org/2000/svg">
<rect width="34" height="34" rx="5" fill="#B63334"/>
<path fill-rule="evenodd" clip-rule="evenodd" d="M12.7009 9.61016C12.8075 9.50327 12.9341 9.41846 13.0736 9.3606C13.213 9.30273 13.3625 9.27295 13.5135 9.27295C13.6645 9.27295 13.814 9.30273 13.9534 9.3606C14.0929 9.41846 14.2195 9.50327 14.3261 9.61016L21.213 16.497C21.3198 16.6036 21.4047 16.7303 21.4625 16.8697C21.5204 17.0091 21.5502 17.1586 21.5502 17.3096C21.5502 17.4606 21.5204 17.6101 21.4625 17.7495C21.4047 17.889 21.3198 18.0156 21.213 18.1223L14.3261 25.0091C14.1106 25.2246 13.8183 25.3457 13.5135 25.3457C13.2087 25.3457 12.9164 25.2246 12.7009 25.0091C12.4853 24.7935 12.3642 24.5012 12.3642 24.1964C12.3642 23.8916 12.4853 23.5993 12.7009 23.3838L18.7773 17.3096L12.7009 11.2354C12.594 11.1288 12.5092 11.0022 12.4513 10.8627C12.3934 10.7233 12.3636 10.5738 12.3636 10.4228C12.3636 10.2718 12.3934 10.1223 12.4513 9.98289C12.5092 9.84344 12.594 9.71678 12.7009 9.61016Z" fill="white"/>
</svg>
