<svg width="504" height="257" viewBox="0 0 504 257" fill="none" xmlns="http://www.w3.org/2000/svg">
<circle cx="69.1443" cy="252.417" r="4.16531" transform="rotate(-90 69.1443 252.417)" fill="#F8F8F8"/>
<circle cx="94.1359" cy="252.417" r="4.16531" transform="rotate(-90 94.1359 252.417)" fill="#F8F8F8"/>
<circle cx="119.128" cy="252.417" r="4.16531" transform="rotate(-90 119.128 252.417)" fill="#F8F8F8"/>
<circle cx="144.12" cy="252.417" r="4.16531" transform="rotate(-90 144.12 252.417)" fill="#F8F8F8"/>
<circle cx="169.111" cy="252.417" r="4.16531" transform="rotate(-90 169.111 252.417)" fill="#F8F8F8"/>
<circle cx="194.103" cy="252.417" r="4.16531" transform="rotate(-90 194.103 252.417)" fill="#F8F8F8"/>
<circle cx="219.095" cy="252.417" r="4.16531" transform="rotate(-90 219.095 252.417)" fill="#F8F8F8"/>
<circle cx="244.087" cy="252.417" r="4.16531" transform="rotate(-90 244.087 252.417)" fill="#F8F8F8"/>
<circle cx="269.079" cy="252.417" r="4.16531" transform="rotate(-90 269.079 252.417)" fill="#F8F8F8"/>
<circle cx="294.071" cy="252.417" r="4.16531" transform="rotate(-90 294.071 252.417)" fill="#F8F8F8"/>
<circle cx="319.062" cy="252.417" r="4.16531" transform="rotate(-90 319.062 252.417)" fill="#F8F8F8"/>
<circle cx="344.055" cy="252.417" r="4.16531" transform="rotate(-90 344.055 252.417)" fill="#F8F8F8"/>
<circle cx="369.046" cy="252.417" r="4.16531" transform="rotate(-90 369.046 252.417)" fill="#F8F8F8"/>
<circle cx="394.038" cy="252.417" r="4.16531" transform="rotate(-90 394.038 252.417)" fill="#F8F8F8"/>
<circle cx="419.03" cy="252.417" r="4.16531" transform="rotate(-90 419.03 252.417)" fill="#F8F8F8"/>
<circle cx="444.022" cy="252.417" r="4.16531" transform="rotate(-90 444.022 252.417)" fill="#F8F8F8"/>
<circle cx="469.013" cy="252.417" r="4.16531" transform="rotate(-90 469.013 252.417)" fill="#F8F8F8"/>
<circle cx="4.16531" cy="204.1" r="4.16531" transform="rotate(-90 4.16531 204.1)" fill="#F8F8F8"/>
<circle cx="29.157" cy="204.1" r="4.16531" transform="rotate(-90 29.157 204.1)" fill="#F8F8F8"/>
<circle cx="54.1491" cy="204.1" r="4.16531" transform="rotate(-90 54.1491 204.1)" fill="#F8F8F8"/>
<circle cx="79.1406" cy="204.1" r="4.16531" transform="rotate(-90 79.1406 204.1)" fill="#F8F8F8"/>
<circle cx="104.133" cy="204.1" r="4.16531" transform="rotate(-90 104.133 204.1)" fill="#F8F8F8"/>
<circle cx="129.124" cy="204.1" r="4.16531" transform="rotate(-90 129.124 204.1)" fill="#F8F8F8"/>
<circle cx="154.116" cy="204.1" r="4.16531" transform="rotate(-90 154.116 204.1)" fill="#F8F8F8"/>
<circle cx="179.108" cy="204.1" r="4.16531" transform="rotate(-90 179.108 204.1)" fill="#F8F8F8"/>
<circle cx="204.1" cy="204.1" r="4.16531" transform="rotate(-90 204.1 204.1)" fill="#F8F8F8"/>
<circle cx="229.092" cy="204.1" r="4.16531" transform="rotate(-90 229.092 204.1)" fill="#F8F8F8"/>
<circle cx="254.084" cy="204.1" r="4.16531" transform="rotate(-90 254.084 204.1)" fill="#F8F8F8"/>
<circle cx="279.075" cy="204.1" r="4.16531" transform="rotate(-90 279.075 204.1)" fill="#F8F8F8"/>
<circle cx="304.067" cy="204.1" r="4.16531" transform="rotate(-90 304.067 204.1)" fill="#F8F8F8"/>
<circle cx="329.059" cy="204.1" r="4.16531" transform="rotate(-90 329.059 204.1)" fill="#F8F8F8"/>
<circle cx="354.051" cy="204.1" r="4.16531" transform="rotate(-90 354.051 204.1)" fill="#F8F8F8"/>
<circle cx="379.043" cy="204.1" r="4.16531" transform="rotate(-90 379.043 204.1)" fill="#F8F8F8"/>
<circle cx="404.035" cy="204.1" r="4.16531" transform="rotate(-90 404.035 204.1)" fill="#F8F8F8"/>
<circle cx="55.8152" cy="152.45" r="4.16531" transform="rotate(-90 55.8152 152.45)" fill="#F8F8F8"/>
<circle cx="80.8068" cy="152.45" r="4.16531" transform="rotate(-90 80.8068 152.45)" fill="#F8F8F8"/>
<circle cx="105.799" cy="152.45" r="4.16531" transform="rotate(-90 105.799 152.45)" fill="#F8F8F8"/>
<circle cx="130.791" cy="152.45" r="4.16531" transform="rotate(-90 130.791 152.45)" fill="#F8F8F8"/>
<circle cx="155.782" cy="152.45" r="4.16531" transform="rotate(-90 155.782 152.45)" fill="#F8F8F8"/>
<circle cx="180.774" cy="152.45" r="4.16531" transform="rotate(-90 180.774 152.45)" fill="#F8F8F8"/>
<circle cx="205.766" cy="152.45" r="4.16531" transform="rotate(-90 205.766 152.45)" fill="#F8F8F8"/>
<circle cx="230.758" cy="152.45" r="4.16531" transform="rotate(-90 230.758 152.45)" fill="#F8F8F8"/>
<circle cx="255.749" cy="152.45" r="4.16531" transform="rotate(-90 255.749 152.45)" fill="#F8F8F8"/>
<circle cx="280.742" cy="152.45" r="4.16531" transform="rotate(-90 280.742 152.45)" fill="#F8F8F8"/>
<circle cx="305.734" cy="152.45" r="4.16531" transform="rotate(-90 305.734 152.45)" fill="#F8F8F8"/>
<circle cx="330.725" cy="152.45" r="4.16531" transform="rotate(-90 330.725 152.45)" fill="#F8F8F8"/>
<circle cx="355.717" cy="152.45" r="4.16531" transform="rotate(-90 355.717 152.45)" fill="#F8F8F8"/>
<circle cx="380.709" cy="152.45" r="4.16531" transform="rotate(-90 380.709 152.45)" fill="#F8F8F8"/>
<circle cx="405.701" cy="152.45" r="4.16531" transform="rotate(-90 405.701 152.45)" fill="#F8F8F8"/>
<circle cx="430.693" cy="152.45" r="4.16531" transform="rotate(-90 430.693 152.45)" fill="#F8F8F8"/>
<circle cx="455.684" cy="152.45" r="4.16531" transform="rotate(-90 455.684 152.45)" fill="#F8F8F8"/>
<circle cx="99.1343" cy="104.133" r="4.16531" transform="rotate(-90 99.1343 104.133)" fill="#F8F8F8"/>
<circle cx="124.126" cy="104.133" r="4.16531" transform="rotate(-90 124.126 104.133)" fill="#F8F8F8"/>
<circle cx="149.118" cy="104.133" r="4.16531" transform="rotate(-90 149.118 104.133)" fill="#F8F8F8"/>
<circle cx="174.11" cy="104.133" r="4.16531" transform="rotate(-90 174.11 104.133)" fill="#F8F8F8"/>
<circle cx="199.102" cy="104.133" r="4.16531" transform="rotate(-90 199.102 104.133)" fill="#F8F8F8"/>
<circle cx="224.094" cy="104.133" r="4.16531" transform="rotate(-90 224.094 104.133)" fill="#F8F8F8"/>
<circle cx="249.085" cy="104.133" r="4.16531" transform="rotate(-90 249.085 104.133)" fill="#F8F8F8"/>
<circle cx="274.077" cy="104.133" r="4.16531" transform="rotate(-90 274.077 104.133)" fill="#F8F8F8"/>
<circle cx="299.069" cy="104.133" r="4.16531" transform="rotate(-90 299.069 104.133)" fill="#F8F8F8"/>
<circle cx="324.061" cy="104.133" r="4.16531" transform="rotate(-90 324.061 104.133)" fill="#F8F8F8"/>
<circle cx="349.053" cy="104.133" r="4.16531" transform="rotate(-90 349.053 104.133)" fill="#F8F8F8"/>
<circle cx="374.044" cy="104.133" r="4.16531" transform="rotate(-90 374.044 104.133)" fill="#F8F8F8"/>
<circle cx="399.036" cy="104.133" r="4.16531" transform="rotate(-90 399.036 104.133)" fill="#F8F8F8"/>
<circle cx="424.028" cy="104.133" r="4.16531" transform="rotate(-90 424.028 104.133)" fill="#F8F8F8"/>
<circle cx="449.02" cy="104.133" r="4.16531" transform="rotate(-90 449.02 104.133)" fill="#F8F8F8"/>
<circle cx="474.012" cy="104.133" r="4.16531" transform="rotate(-90 474.012 104.133)" fill="#F8F8F8"/>
<circle cx="499.004" cy="104.133" r="4.16531" transform="rotate(-90 499.004 104.133)" fill="#F8F8F8"/>
<circle cx="47.4844" cy="54.1487" r="4.16531" transform="rotate(-90 47.4844 54.1487)" fill="#F8F8F8"/>
<circle cx="72.4761" cy="54.1487" r="4.16531" transform="rotate(-90 72.4761 54.1487)" fill="#F8F8F8"/>
<circle cx="97.468" cy="54.1487" r="4.16531" transform="rotate(-90 97.468 54.1487)" fill="#F8F8F8"/>
<circle cx="122.46" cy="54.1487" r="4.16531" transform="rotate(-90 122.46 54.1487)" fill="#F8F8F8"/>
<circle cx="147.452" cy="54.1487" r="4.16531" transform="rotate(-90 147.452 54.1487)" fill="#F8F8F8"/>
<circle cx="172.444" cy="54.1487" r="4.16531" transform="rotate(-90 172.444 54.1487)" fill="#F8F8F8"/>
<circle cx="197.435" cy="54.1487" r="4.16531" transform="rotate(-90 197.435 54.1487)" fill="#F8F8F8"/>
<circle cx="222.427" cy="54.1487" r="4.16531" transform="rotate(-90 222.427 54.1487)" fill="#F8F8F8"/>
<circle cx="247.419" cy="54.1487" r="4.16531" transform="rotate(-90 247.419 54.1487)" fill="#F8F8F8"/>
<circle cx="272.411" cy="54.1487" r="4.16531" transform="rotate(-90 272.411 54.1487)" fill="#F8F8F8"/>
<circle cx="297.403" cy="54.1487" r="4.16531" transform="rotate(-90 297.403 54.1487)" fill="#F8F8F8"/>
<circle cx="322.395" cy="54.1487" r="4.16531" transform="rotate(-90 322.395 54.1487)" fill="#F8F8F8"/>
<circle cx="347.386" cy="54.1487" r="4.16531" transform="rotate(-90 347.386 54.1487)" fill="#F8F8F8"/>
<circle cx="372.378" cy="54.1487" r="4.16531" transform="rotate(-90 372.378 54.1487)" fill="#F8F8F8"/>
<circle cx="397.37" cy="54.1487" r="4.16531" transform="rotate(-90 397.37 54.1487)" fill="#F8F8F8"/>
<circle cx="422.362" cy="54.1487" r="4.16531" transform="rotate(-90 422.362 54.1487)" fill="#F8F8F8"/>
<circle cx="447.354" cy="54.1487" r="4.16531" transform="rotate(-90 447.354 54.1487)" fill="#F8F8F8"/>
<circle cx="75.8086" cy="4.16526" r="4.16531" transform="rotate(-90 75.8086 4.16526)" fill="#F8F8F8"/>
<circle cx="100.8" cy="4.16526" r="4.16531" transform="rotate(-90 100.8 4.16526)" fill="#F8F8F8"/>
<circle cx="125.792" cy="4.16526" r="4.16531" transform="rotate(-90 125.792 4.16526)" fill="#F8F8F8"/>
<circle cx="150.784" cy="4.16526" r="4.16531" transform="rotate(-90 150.784 4.16526)" fill="#F8F8F8"/>
<circle cx="175.776" cy="4.16526" r="4.16531" transform="rotate(-90 175.776 4.16526)" fill="#F8F8F8"/>
<circle cx="200.767" cy="4.16526" r="4.16531" transform="rotate(-90 200.767 4.16526)" fill="#F8F8F8"/>
<circle cx="225.76" cy="4.16526" r="4.16531" transform="rotate(-90 225.76 4.16526)" fill="#F8F8F8"/>
<circle cx="250.752" cy="4.16526" r="4.16531" transform="rotate(-90 250.752 4.16526)" fill="#F8F8F8"/>
<circle cx="275.743" cy="4.16526" r="4.16531" transform="rotate(-90 275.743 4.16526)" fill="#F8F8F8"/>
<circle cx="300.735" cy="4.16526" r="4.16531" transform="rotate(-90 300.735 4.16526)" fill="#F8F8F8"/>
<circle cx="325.727" cy="4.16526" r="4.16531" transform="rotate(-90 325.727 4.16526)" fill="#F8F8F8"/>
<circle cx="350.719" cy="4.16526" r="4.16531" transform="rotate(-90 350.719 4.16526)" fill="#F8F8F8"/>
<circle cx="375.711" cy="4.16526" r="4.16531" transform="rotate(-90 375.711 4.16526)" fill="#F8F8F8"/>
<circle cx="400.703" cy="4.16526" r="4.16531" transform="rotate(-90 400.703 4.16526)" fill="#F8F8F8"/>
<circle cx="425.694" cy="4.16526" r="4.16531" transform="rotate(-90 425.694 4.16526)" fill="#F8F8F8"/>
<circle cx="450.686" cy="4.16526" r="4.16531" transform="rotate(-90 450.686 4.16526)" fill="#F8F8F8"/>
<circle cx="475.678" cy="4.16526" r="4.16531" transform="rotate(-90 475.678 4.16526)" fill="#F8F8F8"/>
</svg>
