<svg width="135" height="68" viewBox="0 0 135 68" fill="none" xmlns="http://www.w3.org/2000/svg">
<path fill-rule="evenodd" clip-rule="evenodd" d="M130.011 47.7224C130 47.6438 130.007 47.5638 130.031 47.4883C130.056 47.4128 130.098 47.3436 130.152 47.286C130.329 47.1722 130.539 47.1201 130.749 47.138C131.026 47.1181 131.306 47.1598 131.565 47.2601C131.825 47.3604 132.059 47.5168 132.25 47.7179C132.442 47.919 132.585 48.1598 132.671 48.4229C132.757 48.6859 132.783 48.9646 132.748 49.2388C132.748 51.1472 131.509 51.5244 130.905 51.5244C130.607 51.5215 130.311 51.4767 130.026 51.3913L130.011 47.7224ZM126.691 46.5758V47.0788C127.796 47.1824 127.96 47.2638 127.96 48.4769V53.8768C127.96 55.0973 127.796 55.1713 126.595 55.2822V55.7852H131.532V55.3044C130.16 55.1934 130.04 55.1194 130.04 53.8989V51.9461L131.151 52.1903C131.375 52.2033 131.599 52.2033 131.822 52.1903C133.441 52.0053 135 51.1547 135 49.2314C135.004 48.8157 134.899 48.4061 134.693 48.0438C134.488 47.6815 134.19 47.3793 133.829 47.1676C132.988 46.7303 132.039 46.5379 131.092 46.6128L126.691 46.5758ZM125.946 46.5758H121.971V47.0788C123.045 47.138 123.418 47.4413 123.462 47.9295C123.59 48.5649 123.645 49.2125 123.626 49.8602V51.3396C123.626 53.7214 122.822 55.0381 120.867 55.0381C119.137 55.0381 118.264 53.7214 118.264 51.5836V48.647C118.264 47.2712 118.436 47.1676 119.614 47.0862V46.5758H114.849V47.0788C116.035 47.1824 116.206 47.2638 116.206 48.6396V51.9018C116.206 53.5587 116.654 54.6387 117.564 55.2822C118.403 55.8001 119.379 56.0577 120.367 56.0219C121.437 56.0439 122.478 55.6753 123.291 54.9863C124.201 54.1282 124.462 52.9522 124.462 51.4136V49.8602C124.444 49.2187 124.489 48.5771 124.596 47.9443C124.686 47.4413 125.081 47.1306 125.946 47.0788V46.5758ZM108.256 46.9753C110.15 46.9753 111.531 48.6396 111.531 51.4653C111.531 54.0765 110.203 55.3858 108.659 55.3858C106.556 55.3858 105.266 53.3515 105.266 50.9475C105.266 48.5434 106.623 46.9901 108.248 46.9901L108.256 46.9753ZM108.547 46.3613C104.893 46.3613 102.864 48.7136 102.864 51.1842C102.864 53.9063 105.102 56.0071 108.353 56.0071C111.396 56.0071 113.932 54.1357 113.932 51.0658C113.932 48.2772 111.478 46.3613 108.562 46.3613H108.547ZM95.9806 51.273V47.8111C95.9806 47.5375 95.9806 47.3747 96.1224 47.2933C96.3467 47.1611 96.609 47.1064 96.8678 47.138C97.1337 47.1326 97.397 47.1841 97.6398 47.2889C97.8836 47.3937 98.1007 47.5495 98.278 47.7454C98.4553 47.9414 98.5873 48.1729 98.6662 48.4243C98.7442 48.6757 98.7673 48.9409 98.7327 49.2018C98.7549 49.5228 98.6981 49.8443 98.5687 50.1391C98.4384 50.434 98.239 50.6935 97.9873 50.8958C97.5096 51.1879 96.9503 51.3201 96.391 51.273H95.9806ZM102.402 55.4375C102.042 55.328 101.718 55.1264 101.462 54.8532C101.018 54.3712 100.614 53.8541 100.254 53.3071C99.7768 52.6562 99.1954 51.7168 98.964 51.3026C100.008 50.9327 100.925 50.2522 100.925 48.9947C100.933 48.6172 100.84 48.2444 100.657 47.9134C100.473 47.5824 100.206 47.3049 99.8814 47.1084C98.9968 46.6649 98.0032 46.4802 97.0176 46.5758H92.64V47.0788C93.7878 47.1676 93.9447 47.3303 93.9447 48.4621V53.8768C93.9447 55.0381 93.7435 55.1638 92.5727 55.2822V55.7852H97.3305V55.3044C96.1375 55.186 95.9806 55.0603 95.9806 53.8989V51.8352H96.2864C96.5027 51.8196 96.7198 51.8674 96.9095 51.9726C97.0983 52.0778 97.2525 52.2357 97.3527 52.4269C97.8153 53.1666 98.2328 53.9063 98.6361 54.5129C99.2698 55.4079 99.8814 55.8148 101.887 55.8961H102.305L102.402 55.4375ZM91.6181 51.3988H86.8602V51.887C88.538 52.0349 88.6347 52.1384 88.6347 53.174V54.4315C88.6524 54.5866 88.6258 54.7433 88.5584 54.8844C88.4911 55.0254 88.3865 55.1451 88.2544 55.2304C87.9575 55.3561 87.6375 55.4166 87.3149 55.4079C84.5708 55.4079 83.3769 53.1297 83.3769 51.0289C83.3769 48.4991 85.0698 46.9753 87.0313 46.9753C88.5903 46.9753 89.8356 47.6706 90.1857 49.2684L90.7601 49.15C90.6484 47.9961 90.566 47.2564 90.5217 46.7682C89.4838 46.5313 88.4246 46.395 87.3592 46.3613C83.9663 46.3613 80.998 48.0552 80.998 51.273C80.998 54.143 83.4443 56.0071 87.158 56.0071C88.3953 55.9463 89.6247 55.7679 90.8274 55.4745C90.7388 55.0365 90.7042 54.5894 90.7229 54.143V53.0853C90.7229 52.131 90.8274 52.057 91.6181 51.9091V51.3988ZM76.1807 55.7852V55.3044C75.7535 55.3201 75.3307 55.2186 74.9585 55.0111C74.5853 54.8035 74.2786 54.498 74.0695 54.1282C73.1379 52.8412 72.3323 51.702 71.4078 50.4297C72.1532 49.5125 72.8986 48.6692 73.4207 48.107C73.6813 47.8084 74.0012 47.5672 74.3611 47.399C74.72 47.2308 75.1118 47.1394 75.5089 47.1306V46.5758H71.7056V47.0788C72.7054 47.2638 72.7426 47.4117 72.4519 47.9073C72.0309 48.6086 71.5496 49.2719 71.0125 49.8898C70.3407 48.9281 69.8266 48.2106 69.5881 47.789C69.3488 47.3673 69.3196 47.286 70.2068 47.0493V46.5758H65.4037V47.0788C65.7911 47.0639 66.1749 47.1488 66.5188 47.3251C66.8627 47.5014 67.1543 47.7632 67.3652 48.0848C68.2303 49.2684 68.9092 50.2522 69.6777 51.3692C68.7373 52.5748 67.6267 53.8397 67.0302 54.4981C66.5196 54.989 65.8451 55.276 65.1352 55.3044V55.8074H69.1175V55.3044C68.0362 55.1269 67.8952 55.0307 68.3047 54.3871C68.7151 53.7436 69.2895 52.9077 70.0801 51.9239C71.258 53.6992 71.6312 54.2244 71.7801 54.4685C72.0566 54.9049 72.1683 55.1194 71.0346 55.3044V55.8074L76.1807 55.7852ZM64.2932 53.285C64.0778 53.8046 63.772 54.2828 63.39 54.6978C62.8865 55.0667 62.2581 55.226 61.6377 55.1417C61.1537 55.1715 60.668 55.1266 60.1983 55.0085C59.8703 54.8828 59.818 54.5129 59.818 53.8397V51.4357H60.8923C62.2191 51.4357 62.4434 51.4949 62.6446 52.5083H63.2118V49.6382H62.6446C62.4434 50.6221 62.2191 50.7108 60.8923 50.7108H59.8331V47.7002C59.8331 47.2342 59.8774 47.2046 60.489 47.2046H61.2876C61.8256 47.134 62.3716 47.2602 62.8236 47.5596C63.1507 47.9078 63.3776 48.3372 63.4795 48.8023L64.0468 48.7358C63.9874 47.8111 63.912 46.8273 63.8979 46.5758H56.4393V47.0788C57.573 47.1676 57.7227 47.2342 57.7227 48.4917V53.8768C57.7227 55.0973 57.573 55.1713 56.231 55.2822V55.7852H64.2932C64.4199 55.3562 64.7478 54.0469 64.8524 53.4033L64.2932 53.285ZM55.1869 53.1888C54.9804 53.7313 54.6773 54.2325 54.2917 54.6682C53.8335 55.0313 53.2494 55.2013 52.6662 55.1417C52.2629 55.1641 51.8587 55.1292 51.4652 55.0381C51.1373 54.9124 51.085 54.6682 51.085 54.0025V48.4769C51.085 47.2638 51.2339 47.1824 52.4428 47.0788V46.5758H47.6318V47.0788C48.8549 47.1824 49.0269 47.2638 49.0269 48.4769V53.862C49.0269 55.0973 48.8549 55.1713 47.4527 55.2822V55.7852H55.1869C55.2986 55.3858 55.6416 53.9581 55.7613 53.3442L55.1869 53.1888ZM36.5428 46.9753C38.4369 46.9753 39.8161 48.6396 39.8161 51.4653C39.8161 54.0765 38.4892 55.3858 36.9381 55.3858C34.8419 55.3858 33.5443 53.3515 33.5443 50.9475C33.5443 48.5434 34.9022 46.9901 36.5277 46.9901L36.5428 46.9753ZM36.8335 46.3613C33.1712 46.3613 31.1503 48.7136 31.1503 51.1842C31.1503 53.9063 33.3875 56.0071 36.6323 56.0071C39.6822 56.0071 42.2101 54.1357 42.2101 51.0658C42.2101 48.2772 39.7646 46.3613 36.8486 46.3613H36.8335ZM24.252 51.273V47.8111C24.252 47.5375 24.252 47.3747 24.3867 47.2933C24.6118 47.1641 24.8733 47.1097 25.1321 47.138C25.3971 47.1326 25.6604 47.1841 25.9041 47.2889C26.147 47.3937 26.365 47.5495 26.5423 47.7454C26.7186 47.9414 26.8516 48.1729 26.9296 48.4243C27.0085 48.6757 27.0306 48.9409 26.997 49.2018C27.02 49.5229 26.9642 49.8448 26.8339 50.1399C26.7045 50.4349 26.5041 50.6943 26.2507 50.8958C25.7765 51.1888 25.219 51.3211 24.6623 51.273H24.252ZM30.6735 55.4375C30.3136 55.328 29.9892 55.1264 29.734 54.8532C29.289 54.3699 28.8822 53.8529 28.5179 53.3071C28.0482 52.6562 27.4667 51.7168 27.2354 51.3026C28.2795 50.9327 29.1968 50.2522 29.1968 48.9947C29.2039 48.6172 29.1118 48.2444 28.9283 47.9134C28.7448 47.5824 28.478 47.3049 28.1527 47.1084C27.2682 46.6649 26.2746 46.4802 25.289 46.5758H20.8812V47.0788C22.0219 47.1676 22.1859 47.3303 22.1859 48.4621V53.8768C22.1859 55.0381 21.9847 55.1638 20.8139 55.2822V55.7852H25.5646V55.3044C24.3787 55.186 24.2227 55.0603 24.2227 53.8989V51.8352H24.5285C24.7439 51.8191 24.9593 51.8668 25.1481 51.9721C25.336 52.0774 25.4893 52.2356 25.5868 52.4269C26.0566 53.1666 26.4669 53.9063 26.8773 54.5129C27.511 55.4079 28.1226 55.8148 30.1213 55.8961H30.5467L30.6735 55.4375ZM19.5615 53.285C19.339 53.8042 19.0288 54.282 18.6441 54.6978C18.1407 55.0667 17.5114 55.226 16.8909 55.1417C16.4079 55.1715 15.9222 55.1266 15.4524 55.0085C15.1236 54.8828 15.0713 54.5129 15.0713 53.8397V51.4357H16.1455C17.4733 51.4357 17.6966 51.4949 17.8978 52.5083H18.4651V49.6382H17.8978C17.6966 50.6221 17.4733 50.7108 16.1455 50.7108H15.1014V47.7002C15.1014 47.2342 15.1466 47.2046 15.7582 47.2046H16.5559C17.0939 47.134 17.6408 47.2602 18.0919 47.5596C18.4172 47.9097 18.6432 48.3382 18.7487 48.8023L19.3151 48.7358C19.2557 47.8111 19.1812 46.8273 19.1662 46.5758H11.7085V47.0788C12.8421 47.1676 12.991 47.2342 12.991 48.4917V53.8768C12.991 55.0973 12.8421 55.1713 11.4993 55.2822V55.7852H19.5615C19.6882 55.3562 20.0091 54.0469 20.1207 53.4033L19.5615 53.285ZM10.933 46.5758H7.20415V47.101C8.52391 47.2564 8.50884 47.4487 8.15076 48.4325C7.71823 49.6086 7.10665 51.088 6.16004 53.3738H6.10775C5.55556 52.1162 4.30228 49.2388 3.81036 48.0256C3.56396 47.4413 3.53471 47.286 4.72063 47.101V46.5758H0V47.101C0.983835 47.1824 1.2453 47.4117 1.73013 48.4917C2.39311 49.9711 3.87772 53.3515 4.98121 55.9405H5.77183C7.01004 52.9817 8.45655 49.7936 8.96353 48.7358C9.59726 47.3895 9.88887 47.1898 10.933 47.101V46.5758Z" fill="black"/>
<path fill-rule="evenodd" clip-rule="evenodd" d="M118.443 64.1463H118.235C117.853 64.1711 117.473 64.0724 117.153 63.8652C117.039 63.7787 116.947 63.6666 116.885 63.538C116.823 63.4095 116.792 63.2681 116.795 63.1255C116.783 62.9883 116.802 62.8499 116.853 62.7216C116.903 62.5931 116.983 62.4782 117.086 62.3857C117.292 62.2058 117.558 62.1082 117.832 62.112C118.027 62.1179 118.222 62.1401 118.414 62.1787L118.443 64.1463ZM114.886 66.506H116.221L117.914 64.3534H118.443V65.6922C118.466 65.8786 118.43 66.0674 118.339 66.2323C118.282 66.284 118.215 66.3238 118.142 66.3493C118.069 66.3747 117.991 66.3853 117.914 66.3802H117.72V66.506H119.868V66.3802H119.674C119.589 66.3873 119.504 66.3735 119.426 66.34C119.348 66.3064 119.279 66.2542 119.227 66.1879C119.156 66.0328 119.127 65.8618 119.144 65.6922V62.7335C119.119 62.547 119.157 62.3576 119.249 62.1934C119.305 62.1405 119.372 62.1 119.445 62.0745C119.519 62.049 119.597 62.0391 119.674 62.0455H119.868V61.9198H118.041C117.648 61.9073 117.254 61.942 116.87 62.0233C116.622 62.0919 116.396 62.2276 116.221 62.4153C116.05 62.6038 115.957 62.8496 115.96 63.1033C115.957 63.2409 115.982 63.3777 116.034 63.5051C116.087 63.6325 116.166 63.7475 116.266 63.843C116.522 64.0818 116.848 64.2346 117.198 64.2794L116.162 65.6035C115.996 65.8384 115.788 66.0414 115.55 66.2027C115.346 66.3155 115.119 66.3813 114.886 66.395V66.506ZM113.394 62.6669C113.394 62.3932 113.342 62.2157 113.246 62.1491C113.064 62.0558 112.859 62.0171 112.656 62.0381V61.9123H114.849V62.0381C114.641 62.0175 114.431 62.0642 114.252 62.1712C114.138 62.3409 114.09 62.5461 114.118 62.7483V65.707C114.118 66.0103 114.163 66.2027 114.252 66.2766C114.43 66.3873 114.64 66.4367 114.849 66.4172V66.5429H112.678V66.4172C112.89 66.4372 113.102 66.3878 113.283 66.2766C113.396 66.1095 113.444 65.9068 113.417 65.707V63.0663L111.09 65.7958C111.089 65.9302 111.104 66.0643 111.135 66.1952C111.152 66.2322 111.177 66.2652 111.208 66.2919C111.239 66.3187 111.274 66.3386 111.314 66.3506C111.478 66.3979 111.649 66.4203 111.821 66.4172V66.5429H109.628V66.4172C109.838 66.4351 110.047 66.3858 110.225 66.2766C110.314 66.2027 110.352 66.0103 110.352 65.707V62.7483C110.352 62.4449 110.314 62.2526 110.225 62.1712C110.046 62.0652 109.837 62.0185 109.628 62.0381V61.9123H111.791V62.0381C111.583 62.0175 111.374 62.0642 111.195 62.1712C111.08 62.3409 111.032 62.5461 111.061 62.7483V65.3964L113.394 62.6669ZM105.594 64.0427H107.92V62.726C107.93 62.5693 107.915 62.4122 107.876 62.2601C107.842 62.1958 107.787 62.1458 107.719 62.1195C107.616 62.0631 107.501 62.035 107.383 62.0381H107.204V61.9123H109.345V62.0381H109.166C109.052 62.0377 108.94 62.0629 108.838 62.112C108.801 62.1269 108.768 62.149 108.739 62.177C108.711 62.2049 108.689 62.2382 108.674 62.2748C108.636 62.4221 108.621 62.5743 108.629 62.726V65.6849C108.621 65.8395 108.638 65.9946 108.681 66.1435C108.713 66.2081 108.765 66.2602 108.831 66.2914C108.935 66.3427 109.05 66.3705 109.166 66.3728H109.345V66.4985H107.204V66.3728H107.391C107.473 66.3785 107.555 66.367 107.632 66.339C107.709 66.3109 107.779 66.267 107.839 66.21C107.916 66.0462 107.947 65.8647 107.928 65.6849V64.2868H105.601V65.6849C105.593 65.8395 105.611 65.9946 105.653 66.1435C105.686 66.2101 105.742 66.2627 105.81 66.2914C105.912 66.3432 106.024 66.371 106.138 66.3728H106.325V66.4985H104.185V66.3728H104.356C104.439 66.3791 104.522 66.3679 104.601 66.3399C104.679 66.3118 104.751 66.2675 104.81 66.21C104.88 66.0442 104.909 65.8639 104.893 65.6849V62.726C104.902 62.5693 104.886 62.4122 104.848 62.2601C104.816 62.1975 104.763 62.1478 104.699 62.1195C104.593 62.0655 104.475 62.0376 104.356 62.0381H104.185V61.9123H106.325V62.0381H106.138C106.025 62.0377 105.912 62.0629 105.81 62.112C105.774 62.1258 105.74 62.1475 105.713 62.1757C105.686 62.2039 105.666 62.2377 105.653 62.2748C105.612 62.4215 105.594 62.5738 105.601 62.726L105.594 64.0427ZM101.939 64.7158L101.089 62.8591L100.216 64.7158H101.939ZM102.044 64.9674H100.105L99.7697 65.707C99.6988 65.8295 99.6553 65.9658 99.6429 66.1065C99.6438 66.1434 99.6535 66.1794 99.6722 66.2116C99.6899 66.2438 99.7156 66.2712 99.7466 66.2914C99.8929 66.3623 100.054 66.3977 100.216 66.395V66.5208H98.6431V66.395C98.7867 66.3854 98.925 66.3396 99.0455 66.2619C99.2281 66.072 99.3699 65.8482 99.4639 65.6035L101.231 61.8162H101.358L103.095 65.6405C103.179 65.8662 103.311 66.071 103.483 66.2396C103.623 66.3384 103.789 66.3925 103.96 66.395V66.5208H101.985V66.395C102.125 66.4013 102.265 66.368 102.387 66.2988C102.418 66.2786 102.444 66.2512 102.462 66.2191C102.48 66.1868 102.49 66.1508 102.492 66.1139C102.474 65.9478 102.423 65.7867 102.342 65.6405L102.044 64.9674ZM97.0176 62.1639H94.7131V65.6701C94.7131 65.9734 94.7131 66.1657 94.8399 66.2396C95.0153 66.3492 95.2219 66.3986 95.4293 66.3802V66.506H93.2214V66.3802C93.4306 66.3997 93.6397 66.3503 93.8179 66.2396C93.9074 66.1657 93.9526 65.9734 93.9526 65.6701V62.7112C93.9801 62.5091 93.9322 62.3039 93.8179 62.1343C93.6389 62.0272 93.4297 61.9805 93.2214 62.0012V61.8754H98.4419V62.0012C98.2336 61.9816 98.0245 62.0282 97.8454 62.1343C97.7382 62.3066 97.693 62.5102 97.7187 62.7112V65.6701C97.6912 65.8689 97.7355 66.0708 97.8454 66.2396C98.0236 66.3488 98.2327 66.3981 98.4419 66.3802V66.506H96.2864V66.3802C96.4946 66.3959 96.702 66.3495 96.8829 66.2471C96.9901 66.0747 97.0353 65.8711 97.0096 65.6701L97.0176 62.1639ZM89.4926 66.506L87.5612 62.6373V65.707C87.5373 65.8902 87.571 66.0763 87.6579 66.2396C87.7164 66.291 87.7855 66.33 87.8599 66.3542C87.9335 66.3784 88.0124 66.3872 88.0904 66.3802H88.2694V66.506H86.5092V66.3802H86.6882C86.7715 66.3884 86.8557 66.3766 86.9337 66.3457C87.0117 66.3148 87.0808 66.2658 87.1358 66.2027C87.2058 66.0473 87.2342 65.8765 87.2182 65.707V62.7038C87.2289 62.5545 87.2032 62.4048 87.1429 62.2674C87.1021 62.1937 87.0357 62.1362 86.9568 62.1047C86.8149 62.0483 86.6616 62.0255 86.5092 62.0381V61.9123H87.9264L89.7461 65.5073L91.5285 61.9123H92.9457V62.0381H92.7738C92.6896 62.0293 92.6036 62.0408 92.5247 62.0717C92.445 62.1026 92.3749 62.1519 92.3191 62.2157C92.2482 62.3683 92.2198 62.5368 92.2367 62.7038V65.707C92.2145 65.891 92.2509 66.0774 92.3413 66.2396C92.3998 66.291 92.4689 66.33 92.5433 66.3542C92.6178 66.3784 92.6958 66.3872 92.7738 66.3802H92.9457V66.506H90.8345V66.3802H90.9843C91.0685 66.3884 91.1536 66.3767 91.2333 66.3457C91.3122 66.3149 91.3831 66.2659 91.439 66.2027C91.5054 66.0463 91.5311 65.8759 91.5134 65.707V62.6373L89.5821 66.506H89.4926ZM83.6383 62.0677C83.4345 62.0582 83.2315 62.0947 83.0445 62.1741C82.8575 62.2535 82.6908 62.3739 82.557 62.5263C82.1883 63.0009 82.0074 63.593 82.05 64.1907C82.011 64.812 82.1989 65.4265 82.5791 65.9216C82.7085 66.074 82.8708 66.1952 83.0542 66.276C83.2377 66.3567 83.4371 66.3949 83.6383 66.3876C83.8581 66.3929 84.0762 66.3498 84.2774 66.2616C84.4786 66.1733 84.6576 66.0421 84.8012 65.8772C85.1477 65.4214 85.3117 64.8553 85.2639 64.2868C85.3108 63.6589 85.1309 63.035 84.7569 62.5263C84.6177 62.3696 84.4449 62.2457 84.2517 62.1638C84.0584 62.0818 83.8484 62.044 83.6383 62.0529V62.0677ZM83.7057 61.8162C84.0177 61.8127 84.3279 61.8711 84.6168 61.988C84.9067 62.1049 85.1699 62.2778 85.3906 62.4967C85.6317 62.7101 85.8231 62.9727 85.9517 63.2664C86.0802 63.56 86.1431 63.8779 86.1369 64.198C86.1413 64.5233 86.0766 64.8459 85.949 65.1453C85.8205 65.4446 85.6299 65.714 85.3906 65.9363C85.1602 66.1598 84.8872 66.3355 84.5876 66.4536C84.288 66.5716 83.968 66.6297 83.6454 66.6243C83.3254 66.6332 83.0064 66.5781 82.7077 66.4625C82.4098 66.3469 82.1377 66.173 81.9082 65.9511C81.6751 65.7247 81.4925 65.4524 81.3719 65.1517C81.2505 64.8512 81.1947 64.5288 81.2071 64.2055C81.1947 63.8652 81.262 63.5268 81.403 63.2164C81.5439 62.9059 81.7548 62.6319 82.0199 62.4153C82.4852 62.0106 83.0861 61.7918 83.7057 61.8014V61.8162ZM81.1025 66.395V66.5208H79.7978C79.656 66.3136 79.3573 65.929 78.9097 65.3594C78.6668 65.017 78.3921 64.6976 78.0898 64.4052C77.9507 64.3382 77.7965 64.3052 77.6422 64.309V65.6849C77.6148 65.8837 77.66 66.0856 77.769 66.2544C77.9471 66.3651 78.1563 66.4145 78.3655 66.395V66.5208H76.2099V66.395C76.4156 66.411 76.6212 66.3645 76.7993 66.2619C76.9137 66.0922 76.9615 65.887 76.9341 65.6849V62.726C76.9589 62.525 76.9146 62.3214 76.8064 62.1491C76.6265 62.044 76.4182 61.9973 76.2099 62.0159V61.8902H78.3655V62.0159C78.1572 61.9953 77.948 62.042 77.769 62.1491C77.6617 62.3214 77.6165 62.525 77.6422 62.726V64.0057C77.8301 64.0118 78.018 63.9944 78.2015 63.9539C78.33 63.9109 78.447 63.8401 78.5445 63.7468C78.6704 63.6516 78.7768 63.5336 78.8574 63.3992C78.9328 63.2734 79.0214 63.0663 79.149 62.7778C79.219 62.5821 79.3094 62.3937 79.4167 62.2157C79.5018 62.0976 79.6179 62.0053 79.7526 61.9493C79.9254 61.8687 80.1142 61.8282 80.3048 61.831C80.685 61.831 80.8791 61.9568 80.8791 62.2008C80.8765 62.2441 80.8641 62.2864 80.8437 62.3247C80.8224 62.363 80.7941 62.3964 80.7595 62.4228C80.7258 62.4547 80.6859 62.4797 80.6425 62.4962C80.5991 62.5127 80.5521 62.5204 80.506 62.5189C80.3837 62.5029 80.2649 62.4653 80.155 62.408C80.0655 62.3584 79.9662 62.3257 79.8643 62.3118C79.8235 62.3126 79.7827 62.3232 79.7464 62.3424C79.7101 62.3617 79.679 62.3892 79.656 62.4228C79.5488 62.6066 79.4592 62.7997 79.3874 62.9997C79.2447 63.4708 78.9203 63.867 78.4851 64.1019C78.7085 64.1019 79.0143 64.42 79.4096 64.9451C79.6915 65.3402 80.0034 65.7136 80.342 66.0621C80.4404 66.1637 80.5583 66.2442 80.6895 66.2989C80.8198 66.3536 80.9607 66.3813 81.1025 66.3802V66.395ZM72.6451 64.1759H72.4368C72.0574 64.2023 71.6798 64.1035 71.3625 63.8947C71.2464 63.8099 71.1516 63.6983 71.0887 63.5695C71.0248 63.4407 70.9938 63.2985 70.9974 63.1551C70.9867 63.0181 71.0071 62.8804 71.0576 62.7523C71.1082 62.6243 71.187 62.5092 71.2881 62.4153C71.4946 62.2366 71.7596 62.1392 72.0335 62.1416C72.2294 62.1471 72.4244 62.1694 72.6158 62.2082L72.6451 64.1759ZM69.0953 66.5355H70.4301L72.123 64.383H72.6451V65.7218C72.6451 66.0103 72.6451 66.1879 72.5414 66.2619C72.4855 66.3142 72.4199 66.3544 72.3481 66.3799C72.2763 66.4054 72.1992 66.4156 72.123 66.4098H71.9298V66.5355H74.0703V66.4098H73.8833C73.7973 66.4169 73.7113 66.4031 73.6316 66.3696C73.5527 66.336 73.4827 66.2838 73.4286 66.2175C73.3612 66.0613 73.3355 65.8907 73.3541 65.7218V62.7631C73.3541 62.4671 73.3541 62.2896 73.4587 62.223C73.5137 62.1689 73.581 62.1275 73.6546 62.102C73.7273 62.0764 73.8062 62.0672 73.8833 62.0751H74.0703V61.9493H72.2427C71.85 61.9373 71.4565 61.972 71.0718 62.0529C70.8254 62.1217 70.6029 62.2575 70.4301 62.4449C70.2564 62.6318 70.1624 62.8786 70.1695 63.1328C70.166 63.2698 70.1908 63.4059 70.2422 63.533C70.2936 63.6601 70.3698 63.7757 70.4673 63.8726C70.7261 64.1098 71.0514 64.2622 71.3998 64.309L70.3636 65.6331C70.2023 65.8694 69.9976 66.0728 69.7592 66.2323C69.5544 66.3428 69.3284 66.4084 69.0953 66.4246V66.5355ZM67.0523 64.7454L66.2023 62.8887L65.3372 64.7454H67.0523ZM67.1569 64.9969H65.2176L64.8816 65.7366C64.8143 65.8606 64.7717 65.9962 64.7549 66.1361C64.7567 66.1738 64.7673 66.2106 64.7868 66.2429C64.8063 66.2753 64.8338 66.3022 64.8674 66.321C65.0128 66.393 65.1741 66.4285 65.3372 66.4246V66.5503H63.7631V66.4246C63.9067 66.4134 64.0449 66.3677 64.1664 66.2914C64.3481 66.1016 64.4899 65.8778 64.5838 65.6331L66.3733 61.8014H66.5001L68.2453 65.6257C68.3259 65.8507 68.4562 66.0553 68.6255 66.2248C68.7656 66.3236 68.9313 66.3777 69.1033 66.3802V66.506H67.1196V66.3802C67.2623 66.3852 67.4041 66.3519 67.5291 66.284C67.5601 66.2638 67.5859 66.2364 67.6045 66.2043C67.6231 66.1721 67.6328 66.136 67.6337 66.0991C67.6133 65.9337 67.5628 65.7734 67.4848 65.6257L67.1569 64.9969ZM63.6735 66.4098V66.5355H62.3839C62.2421 66.3284 61.9514 65.9438 61.4958 65.3742C61.253 65.0318 60.9782 64.7124 60.676 64.42C60.5368 64.3521 60.3835 64.3191 60.2284 64.3238V65.6997C60.2009 65.8984 60.2461 66.1004 60.3551 66.2692C60.5333 66.3798 60.7424 66.4293 60.9516 66.4098V66.5355H58.796V66.4098C59.0017 66.4258 59.2073 66.3793 59.3854 66.2766C59.4998 66.107 59.5477 65.9018 59.5202 65.6997V62.7408C59.545 62.5398 59.5007 62.3362 59.3934 62.1639C59.2135 62.0578 59.0043 62.0112 58.796 62.0307V61.905H60.9516V62.0307C60.7433 62.0101 60.5342 62.0568 60.3551 62.1639C60.2479 62.3362 60.2027 62.5398 60.2284 62.7408V64.0205C60.4163 64.0266 60.6042 64.0092 60.7876 63.9687C60.9162 63.9257 61.0332 63.8549 61.1307 63.7616C61.2565 63.6664 61.3629 63.5484 61.4435 63.414C61.5543 63.2142 61.6492 63.0065 61.7272 62.7926C61.8025 62.5977 61.8947 62.4096 62.0028 62.2305C62.0879 62.1124 62.204 62.0201 62.3387 61.9641C62.5116 61.8845 62.7004 61.8441 62.8909 61.8458C63.2712 61.8458 63.4653 61.9716 63.4653 62.2157C63.4635 62.2585 63.4529 62.3005 63.4334 62.3388C63.4139 62.3771 63.3864 62.4108 63.3527 62.4375C63.2809 62.4999 63.1878 62.5341 63.0921 62.5337C62.9698 62.5177 62.851 62.4801 62.7411 62.4228C62.6516 62.3722 62.5532 62.3395 62.4504 62.3266C62.4096 62.3274 62.3689 62.338 62.3325 62.3572C62.2962 62.3765 62.2652 62.404 62.2421 62.4375C62.1384 62.623 62.048 62.8159 61.9736 63.0145C61.8309 63.4856 61.5065 63.8818 61.0713 64.1167C61.2946 64.1167 61.6084 64.4348 61.9957 64.9599C62.2776 65.355 62.5896 65.7284 62.9282 66.0769C63.0265 66.1736 63.1426 66.2502 63.2703 66.3022C63.3988 66.3542 63.5353 66.3807 63.6735 66.3802V66.4098ZM58.1703 61.8014L58.282 63.3622H58.1703C58.0621 62.969 57.8361 62.618 57.5215 62.3561C57.2237 62.1449 56.8647 62.0358 56.4995 62.0455C56.1822 62.042 55.8711 62.1238 55.5972 62.2822C55.3118 62.456 55.0903 62.715 54.9635 63.022C54.8022 63.424 54.726 63.8545 54.7393 64.2868C54.7278 64.6584 54.8022 65.0277 54.9555 65.3668C55.0841 65.6775 55.3118 65.9376 55.6043 66.1065C55.9101 66.2727 56.2549 66.3568 56.6041 66.3506C56.901 66.3561 57.1953 66.2901 57.4612 66.1583C57.7838 65.9704 58.063 65.7186 58.282 65.4185L58.4007 65.4852C58.1898 65.8532 57.8867 66.1614 57.5215 66.3802C57.1563 66.5799 56.7442 66.6795 56.3276 66.6687C55.9633 66.6753 55.6026 66.5964 55.2746 66.4383C54.9467 66.2801 54.6613 66.0473 54.4415 65.7588C54.0967 65.343 53.9167 64.8172 53.9336 64.2794C53.9265 63.8352 54.0426 63.3976 54.2695 63.0145C54.4867 62.638 54.804 62.3283 55.1869 62.1195C55.5839 61.909 56.0271 61.7997 56.4774 61.8014C56.8461 61.8028 57.2113 61.8863 57.5436 62.0455C57.6119 62.0851 57.6881 62.1103 57.767 62.1195C57.8326 62.1226 57.8964 62.1015 57.946 62.0603C58.0125 61.987 58.0595 61.8978 58.0808 61.8014H58.1703ZM50.585 62.1639V63.9761H51.6814C51.8808 63.998 52.082 63.9565 52.2558 63.8578C52.3275 63.7861 52.3843 63.7004 52.4215 63.6063C52.4587 63.5122 52.4756 63.4115 52.472 63.3104H52.6067V64.9082H52.472C52.4543 64.7617 52.4188 64.6177 52.3674 64.4792C52.3169 64.3937 52.238 64.3283 52.1441 64.2942C51.9969 64.2385 51.8392 64.2134 51.6814 64.2203H50.585V65.6997C50.5717 65.8251 50.5717 65.9515 50.585 66.0769C50.6125 66.1184 50.6479 66.1537 50.6896 66.1804C50.7836 66.1973 50.8793 66.1973 50.9732 66.1804H51.8232C52.0288 66.1853 52.2336 66.1679 52.4348 66.1287C52.5739 66.0863 52.7016 66.0129 52.8079 65.9142C52.9932 65.7244 53.151 65.5103 53.2777 65.278H53.4195L52.9941 66.432H49.1536V66.3062H49.3326C49.4496 66.3055 49.5639 66.2776 49.6685 66.2248C49.7058 66.2112 49.7403 66.1895 49.7678 66.1614C49.7962 66.1334 49.8183 66.0994 49.8325 66.0621C49.8715 65.9176 49.8866 65.7676 49.8768 65.6183V62.6594C49.899 62.4739 49.8653 62.2862 49.7802 62.1195C49.6544 62.0188 49.4939 61.971 49.3326 61.9864H49.1536V61.8606H53.0162L53.0685 62.8591H52.9497C52.9223 62.6851 52.8647 62.5174 52.7778 62.3636C52.706 62.2699 52.6076 62.2002 52.4942 62.1639C52.3267 62.1192 52.1529 62.1018 51.9801 62.112L50.585 62.1639ZM47.4385 64.1463V62.7631C47.4483 62.5961 47.4305 62.4287 47.3862 62.2674C47.3649 62.2251 47.3339 62.1881 47.2967 62.1587C47.2595 62.1293 47.216 62.1083 47.1699 62.0972C47.0237 62.0491 46.8686 62.029 46.7153 62.0381V61.9123H48.8629V62.0381C48.706 62.0292 48.5491 62.0492 48.4002 62.0972C48.3559 62.1094 48.3151 62.1308 48.2805 62.1603C48.246 62.1896 48.2176 62.2262 48.199 62.2674C48.1493 62.4277 48.129 62.5956 48.1396 62.7631V65.6479C48.1245 65.8208 48.1476 65.9949 48.2061 66.1583C48.2513 66.2347 48.3231 66.2925 48.4082 66.321C48.5562 66.3587 48.7095 66.3786 48.8629 66.3802V66.506H46.7153V66.3802C46.8712 66.3822 47.0272 66.3597 47.177 66.3136C47.263 66.287 47.3348 66.2287 47.3782 66.1509C47.4314 65.9886 47.4518 65.8178 47.4385 65.6479V64.42C46.9679 64.6342 46.4626 64.762 45.9468 64.7972C45.6889 64.8103 45.4318 64.7569 45.2005 64.6419C45.0507 64.5676 44.9293 64.4451 44.8575 64.2942C44.8017 64.0519 44.7786 63.803 44.791 63.5545V62.8148C44.8034 62.6478 44.7857 62.48 44.7387 62.3192C44.7175 62.277 44.6864 62.2398 44.6492 62.2105C44.612 62.1811 44.5685 62.1602 44.5225 62.1491C44.3762 62.1009 44.2211 62.0808 44.0678 62.0899V61.9641H46.2375V62.0899C46.0762 62.0811 45.9149 62.1011 45.7607 62.1491C45.7137 62.164 45.6703 62.1889 45.6339 62.2221C45.5985 62.2554 45.5701 62.2961 45.5515 62.3414C45.5134 62.4963 45.4983 62.6557 45.5063 62.8148V63.4509C45.4992 63.6646 45.5187 63.8784 45.5666 64.0871C45.6003 64.2086 45.68 64.3122 45.7899 64.3756C45.9229 64.4453 46.0727 64.4786 46.2225 64.4717C46.6452 64.4438 47.0583 64.3332 47.4385 64.1463ZM42.5238 62.6669C42.5238 62.3932 42.4715 62.2157 42.3749 62.1491C42.1958 62.0567 41.9937 62.0182 41.7925 62.0381V61.9123H43.9552V62.0381C43.7478 62.0185 43.5386 62.0652 43.3587 62.1712C43.2692 62.2526 43.232 62.4449 43.232 62.7483V65.707C43.232 66.0103 43.2692 66.2027 43.3587 66.2766C43.5377 66.3858 43.7469 66.4351 43.9552 66.4172V66.5429H41.7633V66.4172C41.9716 66.4367 42.1816 66.3873 42.3598 66.2766C42.4732 66.1095 42.5211 65.9068 42.4936 65.707V63.0663L40.1741 65.7958C40.1688 65.93 40.1812 66.0644 40.2113 66.1952C40.2485 66.2683 40.3123 66.3242 40.3903 66.3506C40.5552 66.3974 40.7263 66.4198 40.8982 66.4172V66.5429H38.7799V66.4172C38.9864 66.4356 39.1938 66.3862 39.3693 66.2766C39.4588 66.2027 39.5031 66.0103 39.5031 65.707V62.7483C39.5306 62.5461 39.4836 62.3409 39.3693 62.1712C39.192 62.0648 38.9855 62.018 38.7799 62.0381V61.9123H40.9354V62.0381C40.7272 62.0185 40.518 62.0652 40.3381 62.1712C40.2494 62.2526 40.2113 62.4449 40.2113 62.7483V65.3964L42.5238 62.6669ZM35.5731 62.1639C35.5616 63.1132 35.4437 64.0584 35.2221 64.9822C35.0892 65.452 34.8525 65.8866 34.529 66.2544H36.3788C36.5782 66.2764 36.7812 66.2485 36.9673 66.1731C37.0347 66.1213 37.0719 65.9511 37.0719 65.6553V62.1639H35.5731ZM34.365 61.9123H38.4962V62.0381C38.288 62.0185 38.0797 62.0652 37.8997 62.1712C37.7925 62.3436 37.7473 62.5471 37.773 62.7483V65.2928C37.7508 65.5989 37.781 65.9066 37.8625 66.2027C37.9299 66.321 38.1231 66.3802 38.459 66.3802V67.8596H38.3403C38.2844 67.5649 38.1621 67.2866 37.9822 67.0459C37.8412 66.857 37.6463 66.7151 37.4229 66.6391C37.1818 66.563 36.9292 66.528 36.6766 66.5355H35.4012C35.1787 66.5151 34.9536 66.5414 34.7417 66.6128C34.5299 66.6841 34.3349 66.799 34.1709 66.9498C33.9219 67.1966 33.7579 67.515 33.7012 67.8596H33.5593V66.3802C33.7623 66.3595 33.9573 66.2892 34.1266 66.1755C34.2959 66.062 34.4342 65.9087 34.529 65.7293C34.7931 65.2726 34.9677 64.7707 35.0431 64.2498C35.1308 63.7612 35.1778 63.2665 35.1849 62.7704C35.1964 62.6005 35.1654 62.4305 35.0954 62.2748C35.0502 62.1847 34.973 62.1139 34.8791 62.0751C34.7054 62.037 34.5281 62.0196 34.35 62.0233L34.365 61.9123ZM31.9116 62.6521C31.9116 62.3784 31.8593 62.2008 31.7618 62.1343C31.581 62.041 31.3763 62.0024 31.1733 62.0233V61.8975H33.3431V62.0233C33.1348 62.0027 32.9256 62.0494 32.7466 62.1564C32.6571 62.2378 32.6198 62.4301 32.6198 62.7335V65.6922C32.6198 65.9955 32.6198 66.1879 32.7466 66.2619C32.9247 66.3725 33.1339 66.4219 33.3431 66.4024V66.5281H31.1733V66.4024C31.3843 66.4224 31.597 66.373 31.7769 66.2619C31.8904 66.0947 31.9382 65.892 31.9116 65.6922V63.0515L29.5841 65.781C29.5832 65.9154 29.5983 66.0495 29.6293 66.1804C29.6657 66.2535 29.7304 66.3094 29.8084 66.3358C29.9732 66.3831 30.1434 66.4055 30.3154 66.4024V66.5281H28.1527V66.4024C28.3619 66.4219 28.571 66.3725 28.7492 66.2619C28.8387 66.1879 28.8759 65.9955 28.8759 65.6922V62.7335C28.8759 62.4301 28.8759 62.2378 28.7492 62.1564C28.5701 62.0494 28.361 62.0027 28.1527 62.0233V61.8975H30.3154V62.0233C30.1071 62.0027 29.8979 62.0494 29.7188 62.1564C29.6045 62.3261 29.5566 62.5313 29.5841 62.7335V65.3816L31.9116 62.6521ZM25.3634 64.1315L25.7135 64.1832H25.967C26.0911 64.1856 26.2143 64.1625 26.3286 64.1154C26.4421 64.0683 26.5457 63.9982 26.6308 63.9095C26.7301 63.8142 26.8063 63.6985 26.8551 63.5708C26.9038 63.443 26.9242 63.3062 26.9145 63.1699C26.9162 62.9768 26.8702 62.7864 26.7806 62.615C26.6964 62.4535 26.567 62.3199 26.4075 62.2305C26.2338 62.1456 26.0423 62.1026 25.8482 62.1047C25.6851 62.1109 25.5229 62.1307 25.3634 62.1639V64.1315ZM25.3634 64.3238V65.6627C25.3403 65.849 25.3776 66.0378 25.468 66.2027C25.5247 66.2544 25.5921 66.2943 25.6647 66.3197C25.7383 66.3451 25.8154 66.3556 25.8925 66.3506H26.1017V66.4764H23.9461V66.3506H24.1331C24.2173 66.3578 24.3024 66.3439 24.3813 66.3104C24.4593 66.2768 24.5276 66.2246 24.5799 66.1583C24.6472 66.0021 24.6729 65.8315 24.6552 65.6627V62.7038C24.6552 62.408 24.6552 62.2305 24.5577 62.1639C24.5019 62.1109 24.4345 62.0704 24.3609 62.0449C24.2883 62.0194 24.2103 62.0095 24.1331 62.0159H23.9461V61.8902H25.7738C26.1336 61.8764 26.4935 61.9188 26.84 62.0159C27.0909 62.0994 27.3151 62.2474 27.4888 62.4449C27.6705 62.6477 27.7645 62.9136 27.7494 63.1847C27.7565 63.3571 27.7246 63.5288 27.6563 63.6875C27.5881 63.8462 27.4853 63.9877 27.355 64.1019C27.0288 64.3557 26.6202 64.482 26.2063 64.4569C26.0769 64.4671 25.9475 64.4671 25.8181 64.4569L25.3634 64.3238ZM21.0673 62.0233C20.8457 62.0162 20.6259 62.0623 20.4256 62.1576C20.2262 62.2529 20.0524 62.3946 19.9195 62.5707C19.5995 63.0321 19.4462 63.5876 19.487 64.1463C19.4613 64.7026 19.604 65.2538 19.8965 65.7293C20.0214 65.9254 20.196 66.0855 20.4025 66.1933C20.61 66.301 20.8413 66.3528 21.0753 66.3432C21.3013 66.3482 21.5255 66.3022 21.7303 66.2086C21.9359 66.1151 22.1176 65.9765 22.2612 65.8032C22.5803 65.3469 22.7327 64.7963 22.6937 64.2424C22.7248 63.6723 22.5847 63.1059 22.2905 62.615C22.1513 62.4265 21.966 62.276 21.7524 62.1777C21.5379 62.0793 21.3031 62.0364 21.0673 62.0529V62.0233ZM18.6441 64.2424H17.615V65.6405C17.5946 65.83 17.6336 66.0212 17.7267 66.1879C17.8012 66.284 17.9651 66.3284 18.2186 66.3284H18.3303V66.4541H16.1907V66.3284H16.3396C16.4575 66.3335 16.5753 66.3106 16.6826 66.2619C16.7624 66.2269 16.8262 66.1635 16.8616 66.0843C16.8997 65.9396 16.9148 65.7898 16.9059 65.6405V62.6817C16.9148 62.5299 16.8997 62.3777 16.8616 62.2305C16.8448 62.1894 16.82 62.1523 16.7872 62.1217C16.7553 62.0911 16.7172 62.0676 16.6755 62.0529C16.5567 62.005 16.4291 61.9847 16.3024 61.9937H16.1907V61.8679H18.3303V61.9937H18.2186C18.0857 61.981 17.9518 62.0041 17.8313 62.0603C17.7648 62.0982 17.7081 62.1516 17.6673 62.2157C17.6177 62.3658 17.5999 62.5244 17.615 62.6817V64.0057H18.6441C18.6538 63.6965 18.7283 63.3926 18.863 63.1136C18.9977 62.8347 19.19 62.5868 19.4267 62.3857C19.9018 61.9743 20.5125 61.7505 21.1426 61.757C21.7666 61.7569 22.3658 61.9984 22.8125 62.4301C23.0545 62.6444 23.2459 62.9081 23.3753 63.2032C23.5038 63.4982 23.5668 63.8174 23.5588 64.1389C23.5615 64.4567 23.5021 64.772 23.3815 65.0666C23.261 65.3611 23.0828 65.6291 22.8577 65.855C22.6326 66.0937 22.3596 66.283 22.0565 66.4104C21.7533 66.5379 21.4272 66.6006 21.0974 66.5947C20.6684 66.6012 20.2448 66.4994 19.8672 66.2988C19.5118 66.1007 19.214 65.8154 19.0021 65.4704C18.7752 65.1187 18.6511 64.7116 18.6441 64.2942V64.2424Z" fill="black"/>
<path fill-rule="evenodd" clip-rule="evenodd" d="M45.9364 5.17119C45.9749 5.15871 46.0162 5.16056 46.0535 5.1764C46.0906 5.19225 46.1212 5.22106 46.1397 5.25777C46.1583 5.29448 46.1636 5.33673 46.1547 5.37706C46.1458 5.41739 46.1233 5.45321 46.0912 5.47821C45.2678 5.88999 44.4706 6.35511 43.7045 6.87073C43.4231 7.06826 43.1587 7.2902 42.9142 7.53409C42.8288 7.61633 42.7487 7.69857 42.674 7.78629H42.9356C42.9886 7.79628 43.0429 7.79628 43.0959 7.78629C43.1278 7.78629 43.1545 7.74243 43.2186 7.67664C43.3071 7.58332 43.4056 7.50057 43.5123 7.42993C43.6466 7.33765 43.8045 7.28807 43.9662 7.28739C44.1314 7.31337 44.2866 7.38542 44.4146 7.49572C44.5642 7.59989 44.719 7.72598 44.8205 7.80273C44.9219 7.87949 44.9754 7.9069 44.9754 7.93431C44.9754 7.96172 44.9166 7.97818 44.8311 8.04396C44.7129 8.1476 44.584 8.23768 44.4467 8.3126C44.2609 8.40795 44.0564 8.45857 43.8487 8.46062C43.6971 8.4484 43.5548 8.38024 43.4482 8.26873C43.3468 8.16457 43.2613 8.04396 43.192 7.98365C43.1604 7.95241 43.1224 7.92881 43.0809 7.91457C43.0393 7.90034 42.9952 7.89585 42.9516 7.90142H42.6046C42.505 8.01997 42.4122 8.14446 42.3269 8.27422C42.201 8.46579 42.0937 8.66962 42.0066 8.88276C41.9332 9.07525 41.8744 9.27319 41.8303 9.47487C41.793 9.66674 41.7556 9.86411 41.7289 10.056C41.7022 10.2479 41.6809 10.4836 41.6702 10.6755C41.6595 10.8673 41.6702 11.1689 41.6702 11.3444V11.5143C41.7663 11.454 41.8891 11.3937 41.9692 11.3499C42.0714 11.2945 42.1564 11.211 42.2147 11.1086C42.3162 10.9552 42.4871 10.681 42.658 10.4671C42.795 10.2681 42.9786 10.1079 43.192 10.0012C43.4161 9.91747 43.6529 9.87479 43.8914 9.87507H44.5535C44.6976 9.87507 44.7297 9.87507 44.6656 10.0012C44.547 10.2234 44.4094 10.4344 44.2545 10.6317C44.073 10.8751 43.8438 11.0768 43.5817 11.2238C43.3273 11.3341 43.0565 11.399 42.7808 11.4156C42.5191 11.4486 42.2842 11.4649 42.1561 11.4759C42.061 11.4802 41.9689 11.5105 41.8891 11.5636L41.6595 11.6897C41.6625 11.7208 41.6625 11.7519 41.6595 11.7829C41.6397 11.8649 41.6148 11.9456 41.5848 12.0242C41.4553 12.3044 41.3568 12.5986 41.2911 12.9014C41.2597 13.1304 41.2401 13.361 41.2323 13.5921C41.2323 13.8224 41.2323 14.0856 41.2323 14.3487C41.3159 14.3247 41.3979 14.2953 41.478 14.261C41.558 14.2335 41.558 14.2226 41.6061 14.113C41.6805 13.9292 41.7833 13.7588 41.9105 13.6086C42.0767 13.4251 42.2716 13.2712 42.4871 13.1535C42.6524 13.0683 42.8364 13.0287 43.021 13.0384C43.2613 13.0384 43.6084 13.0385 43.7953 13.0823C43.9822 13.1262 43.9929 13.1262 43.902 13.2632C43.7537 13.4548 43.5951 13.6378 43.4268 13.8115C43.2762 13.9993 43.0815 14.1445 42.8609 14.2335C42.6251 14.3057 42.3806 14.3425 42.1347 14.3432H41.6008C41.5251 14.3261 41.4468 14.3261 41.3712 14.3432L41.1736 14.4145L41.1255 14.5515C41.0882 14.6392 41.0294 14.7654 40.9333 14.9627L40.6931 15.4287L40.2552 16.273C40.3834 16.2455 40.5086 16.2052 40.6289 16.1524C40.8372 16.0647 41.0775 15.9221 41.3444 15.8344C41.6236 15.7502 41.9206 15.7521 42.1988 15.8399C42.4482 15.9199 42.6828 16.0422 42.893 16.2018C43.0638 16.3278 43.1545 16.3992 43.1813 16.4649C43.2079 16.5307 43.1813 16.5746 43.0317 16.6623C42.8402 16.7959 42.6294 16.8976 42.4071 16.9638C42.138 17.0404 41.8537 17.0404 41.5848 16.9638C41.3499 16.867 41.1289 16.7378 40.9279 16.5801C40.8093 16.4888 40.6726 16.4251 40.5275 16.3937C40.4457 16.3878 40.3637 16.3878 40.2819 16.3937L40.1218 16.7225C39.9829 17.0186 39.8601 17.2708 39.764 17.5559C39.6769 17.7952 39.6143 18.0433 39.5771 18.296C39.5448 18.514 39.5448 18.7359 39.5771 18.9539C39.5991 19.1205 39.6535 19.2808 39.7372 19.4254C39.8002 19.5186 39.8898 19.5894 39.9936 19.6282C40.0904 19.6679 40.1937 19.6883 40.2979 19.6885C40.3776 19.7004 40.4585 19.7004 40.5382 19.6885C40.6055 19.6761 40.6715 19.6578 40.7357 19.6337C40.7568 19.627 40.7789 19.6246 40.8009 19.6268C40.8228 19.629 40.844 19.6356 40.8634 19.6464C40.8828 19.6571 40.9 19.6717 40.9138 19.6892C40.9276 19.7068 40.9379 19.7271 40.944 19.7489C40.9514 19.7701 40.9545 19.7926 40.9531 19.8151C40.9517 19.8376 40.9458 19.8595 40.9358 19.8795C40.9257 19.8996 40.9119 19.9173 40.8949 19.9316C40.878 19.9459 40.8583 19.9565 40.8372 19.9627L40.6023 20.0339C40.4976 20.046 40.3919 20.046 40.2872 20.0339C40.1448 20.0312 40.004 20.0034 39.8707 19.9517C39.7058 19.8848 39.563 19.7707 39.4596 19.6227C39.3478 19.4354 39.2751 19.2263 39.246 19.0087C39.2086 18.7562 39.2086 18.4992 39.246 18.2467C39.2828 17.9709 39.3509 17.7003 39.4489 17.4408C39.545 17.1776 39.6678 16.8926 39.8067 16.5965C39.7538 16.4355 39.6914 16.2781 39.6198 16.125C39.5426 15.9613 39.4358 15.8143 39.3048 15.6919C39.1196 15.5339 38.9577 15.3493 38.8243 15.1436C38.6562 14.8574 38.5573 14.5341 38.5359 14.2007C38.5376 13.924 38.5977 13.6508 38.7121 13.4003C38.7693 13.2359 38.8353 13.0748 38.9097 12.9178C38.9523 12.8246 38.9844 12.8082 39.1072 12.9561C39.2916 13.189 39.4576 13.4364 39.6038 13.6963C39.7425 13.9307 39.8249 14.1957 39.844 14.4693C39.8469 14.7531 39.8184 15.0364 39.7586 15.3136C39.7106 15.5493 39.6572 15.6864 39.6411 15.7851C39.627 15.8931 39.6476 16.0028 39.6999 16.0976C39.7372 16.2073 39.7907 16.3552 39.8494 16.5087C40.0416 16.1195 40.2605 15.6974 40.4421 15.352L40.6824 14.886C40.7482 14.7616 40.8071 14.6335 40.8586 14.5022C40.8791 14.4627 40.8935 14.4202 40.9013 14.3761C40.9013 14.124 40.9013 13.8772 40.9013 13.6086V13.3016C40.8105 13.2194 40.6877 13.0987 40.613 13.0384C40.5506 12.9763 40.4697 12.9377 40.3834 12.9288C40.1823 12.8831 39.9883 12.8093 39.8067 12.7095C39.5852 12.5776 39.4011 12.3886 39.2727 12.1612C39.1522 11.9024 39.0867 11.6202 39.0805 11.3334C39.0657 11.0759 39.0657 10.8178 39.0805 10.5603C39.0805 10.4014 39.1179 10.3959 39.262 10.4508C39.4853 10.5431 39.6968 10.6627 39.8921 10.8071C40.1402 11.0024 40.3458 11.2489 40.4955 11.5308C40.6289 11.787 40.7176 12.0653 40.7571 12.3531C40.7741 12.504 40.7614 12.6569 40.7198 12.8027C40.712 12.8303 40.7113 12.8593 40.7179 12.8873C40.7244 12.9152 40.7379 12.9408 40.7571 12.9616C40.8018 13.0394 40.8555 13.1113 40.9173 13.1755C40.9173 13.0603 40.9173 12.9507 40.9547 12.852C41.0132 12.5033 41.1062 12.1616 41.2323 11.8323C41.257 11.7676 41.2784 11.7018 41.2964 11.635C41.3004 11.5802 41.3004 11.5252 41.2964 11.4704V11.295C41.2964 11.1141 41.2964 10.8728 41.2964 10.6042V10.5055C41.2559 10.4247 41.2114 10.346 41.1629 10.2698C41.0925 10.1488 41.0022 10.0412 40.896 9.95183C40.8265 9.90797 40.7838 9.91894 40.661 9.90248C40.4786 9.87455 40.2996 9.82677 40.1271 9.75995C39.9309 9.69137 39.7583 9.56564 39.6305 9.39811C39.5034 9.19556 39.4197 8.96757 39.3849 8.72926C39.3475 8.499 39.3369 8.29067 39.3101 8.18102C39.2834 8.07137 39.2567 7.98913 39.4062 8.01655C39.6707 8.07421 39.9225 8.18205 40.1484 8.33453C40.4017 8.50582 40.6092 8.73955 40.7518 9.01434C40.8619 9.2007 40.9463 9.4018 41.0028 9.61192C41.0028 9.75995 41.0028 9.78736 41.0721 9.87507C41.1415 9.96279 41.243 10.1108 41.3337 10.226V10.2589C41.3337 10.1547 41.3337 10.045 41.3712 9.93538C41.3959 9.73069 41.4315 9.52753 41.478 9.32684C41.5215 9.10535 41.586 8.8887 41.6702 8.67992C41.7613 8.43993 41.8796 8.21176 42.0225 8.0001L41.9264 7.91787C41.892 7.88917 41.8479 7.87541 41.8037 7.87949C41.6775 7.86846 41.5524 7.84645 41.4299 7.8137C41.232 7.77723 41.0474 7.68627 40.896 7.55055C40.764 7.39892 40.6867 7.2054 40.677 7.00231C40.6686 6.84859 40.6941 6.69489 40.7518 6.55275C40.7892 6.46503 40.8105 6.47052 40.9173 6.48696C41.0872 6.50842 41.2538 6.55076 41.4139 6.61305C41.6151 6.68367 41.7866 6.823 41.8998 7.00779C41.9649 7.18237 41.9834 7.37167 41.9532 7.55603C41.9532 7.70405 41.9157 7.77532 41.9105 7.80822C41.9051 7.84111 41.9105 7.83563 41.9478 7.86304L42.0386 7.93431C42.2133 7.68264 42.4099 7.44776 42.6259 7.23257C42.8593 7.00172 43.1091 6.78915 43.3735 6.59661C43.3735 6.51986 43.3735 6.41569 43.3735 6.33894C43.3793 6.28918 43.3742 6.23872 43.3585 6.19127C43.3427 6.14383 43.3168 6.10061 43.2827 6.06482C43.1558 5.94593 43.0587 5.79735 42.9997 5.63171C42.9415 5.39628 42.974 5.14687 43.0905 4.93545C43.2079 4.771 43.357 4.63294 43.5283 4.52976C43.6458 4.44203 43.6778 4.37077 43.7045 4.39269C43.7312 4.41462 43.7579 4.50783 43.8113 4.69422C43.9009 4.91442 43.9429 5.152 43.9341 5.39049C43.89 5.6152 43.7907 5.82464 43.6458 5.99903C43.5694 6.07923 43.5126 6.17695 43.4803 6.28412C43.4803 6.35538 43.4536 6.45407 43.4429 6.5363C44.2434 6.0245 45.0765 5.56844 45.9364 5.17119ZM41.793 5.71943C41.2365 5.84274 40.698 6.03993 40.1911 6.30604C39.5581 6.66505 38.976 7.11145 38.4611 7.63278C37.968 8.14885 37.5361 8.723 37.1743 9.34329C36.8022 9.93523 36.5415 10.5935 36.4054 11.284C36.3238 11.909 36.3024 12.5408 36.3414 13.17C36.3414 13.6086 36.3414 13.7183 36.2239 13.8607C36.1246 14.0056 35.9822 14.1133 35.8181 14.1678C35.6069 14.2211 35.3891 14.2413 35.1721 14.228C34.9198 14.2012 34.6656 14.2507 34.4405 14.3706C34.2014 14.5988 34.042 14.9012 33.9867 15.2313C33.8583 15.697 33.7918 16.1784 33.789 16.6623C33.7925 17.0976 33.9106 17.5238 34.1308 17.8958C34.3955 18.3599 34.7147 18.7888 35.0812 19.1732C35.4838 19.6048 35.908 20.0147 36.3521 20.4012C36.7077 20.7619 37.1146 21.0651 37.5587 21.3003C37.8435 21.4015 38.1486 21.4261 38.4452 21.3716C38.6225 21.3506 38.8017 21.3506 38.9791 21.3716C38.9975 21.4658 39.0399 21.5535 39.1017 21.6257C39.1635 21.6978 39.2427 21.7521 39.3315 21.7828C39.66 21.9102 40.0156 21.9462 40.362 21.887C40.4925 21.8575 40.6153 21.7997 40.7221 21.7175C40.8289 21.6352 40.9174 21.5304 40.9814 21.41C41.0632 21.2587 41.109 21.0896 41.1149 20.9166C41.1214 20.8437 41.1214 20.7702 41.1149 20.6973H41.2911C41.2911 20.7576 41.2911 20.8179 41.2911 21.081C41.3471 21.578 41.2953 22.0816 41.1392 22.5555C40.9832 23.0295 40.7268 23.4621 40.3887 23.8223C39.9464 24.2412 39.4347 24.5755 38.8776 24.8091C38.2582 25.1161 37.5054 25.4779 36.838 25.8397C36.198 26.1751 35.5871 26.5657 35.0118 27.0076C34.3829 27.4908 33.8064 28.0422 33.2926 28.6522C32.731 29.3115 32.2338 30.0259 31.8081 30.7848C31.4142 31.4765 31.099 32.2124 30.8684 32.9778C30.645 33.7039 30.4843 34.4487 30.3878 35.2037C30.3202 35.786 30.2827 36.3716 30.2757 36.958C31.6105 36.7059 32.9454 36.4482 34.1789 36.1356C35.3111 35.85 36.4227 35.4836 37.5054 35.0392C38.4667 34.6362 39.3998 34.1653 40.2979 33.6303C41.2216 33.082 42.2042 32.4624 43.0317 31.8978C43.8594 31.3331 44.5321 30.8342 45.2476 30.2531C46.0594 29.6104 46.8282 28.9126 47.549 28.1643C48.4198 27.244 49.2331 26.268 49.9838 25.2422C50.6542 24.3524 51.2644 23.4164 51.8099 22.4407C52.2851 21.5526 52.6428 20.7412 52.8243 20.3245C52.904 20.17 52.9701 20.0085 53.0219 19.8421C52.6918 20.1104 52.3336 20.3402 51.954 20.5274C51.4597 20.7696 50.9402 20.9536 50.4056 21.0755C50.033 21.1868 49.634 21.1597 49.2789 20.9988C49.1261 20.916 48.993 20.7991 48.8896 20.657C48.7861 20.5147 48.7149 20.3506 48.6809 20.1764C48.6328 19.8039 48.7223 19.4264 48.9319 19.1184C49.193 18.7771 49.525 18.4998 49.9037 18.3069C50.3789 18.0109 51.057 17.6271 51.5535 17.3037C51.9436 17.0786 52.2953 16.7898 52.5948 16.4484C52.788 16.2281 52.8896 15.9388 52.8778 15.6425C52.8617 15.4232 52.7665 15.218 52.6108 15.0669C52.4825 14.9388 52.3345 14.8332 52.173 14.7544C52.0949 14.7226 52.0146 14.697 51.9326 14.6776C51.9143 14.6738 51.8979 14.6635 51.8861 14.6484C51.8744 14.6334 51.8682 14.6147 51.8686 14.5954C51.8704 14.5669 51.8786 14.5392 51.8925 14.5146C51.9064 14.4899 51.9256 14.4687 51.9487 14.4528C52.0317 14.3869 52.0993 14.3026 52.1462 14.2062C52.1926 14.0808 52.1926 13.9423 52.1462 13.8169C52.1244 13.7698 52.0924 13.7286 52.0526 13.6963C52.0128 13.6639 51.9663 13.6414 51.9167 13.6306C51.8258 13.6031 51.7351 13.6306 51.6871 13.5921C51.639 13.5537 51.6336 13.5427 51.6871 13.488C51.7468 13.4076 51.8111 13.3307 51.8793 13.2577C51.9213 13.2207 51.9556 13.1754 51.9804 13.1246C52.0052 13.0737 52.0198 13.0184 52.0234 12.9616C52.0125 12.8999 51.986 12.8421 51.9466 12.7941C51.9074 12.746 51.8565 12.7094 51.7992 12.6875C51.6657 12.6328 51.4895 12.6328 51.4735 12.5779C51.4574 12.5231 51.591 12.4244 51.7725 12.2654C51.9715 12.1292 52.1303 11.9396 52.2316 11.7172C52.2395 11.6107 52.22 11.504 52.175 11.4078C52.13 11.3116 52.0612 11.2292 51.9754 11.1689C51.7856 11.0082 51.5798 10.8685 51.3613 10.7523C51.0151 10.5797 50.6814 10.3819 50.3628 10.1602C50.0543 9.91525 49.7699 9.63981 49.5139 9.3378C49.3432 9.14823 49.1977 8.93622 49.0814 8.70733C48.9321 8.38201 48.7533 8.07181 48.5475 7.78081C48.376 7.57087 48.163 7.4008 47.9227 7.28191C47.9227 7.23805 47.9227 7.18871 47.9548 7.0352C47.9854 6.80434 47.9541 6.56925 47.8639 6.35538C47.7189 6.11593 47.5192 5.91645 47.2819 5.77425C47.1204 5.69177 46.9697 5.58862 46.8335 5.46724C46.7481 5.36308 46.7374 5.19312 46.6519 5.08348C46.6046 5.02503 46.5461 4.97729 46.4798 4.94332C46.4137 4.90934 46.3414 4.88986 46.2675 4.88611C46.1073 4.85869 45.9311 4.88611 45.7976 4.84774C45.6415 4.80975 45.5023 4.719 45.4024 4.59005C45.2263 4.42559 44.954 4.14051 44.703 3.8938C44.4904 3.65893 44.2436 3.45922 43.9715 3.3017C43.707 3.1606 43.4026 3.11982 43.1118 3.18657C42.7517 3.26972 42.4187 3.44728 42.1454 3.70191C41.8882 3.94124 41.6874 4.23743 41.558 4.56813C41.4844 4.77149 41.4844 4.99525 41.558 5.1986C41.6163 5.37309 41.6895 5.54189 41.777 5.70298L41.793 5.71943Z" fill="black"/>
<path fill-rule="evenodd" clip-rule="evenodd" d="M76.13 32.0361C76.2232 32.0361 76.3144 32.0632 76.392 32.1139C76.4695 32.1647 76.5299 32.2368 76.5656 32.3212C76.6012 32.4056 76.6106 32.4984 76.5925 32.588C76.5743 32.6777 76.5293 32.76 76.4634 32.8245C76.3975 32.8891 76.3134 32.9331 76.2219 32.951C76.1305 32.9688 76.0357 32.9597 75.9495 32.9247C75.8634 32.8897 75.7898 32.8305 75.7379 32.7546C75.6862 32.6786 75.6585 32.5893 75.6585 32.4979C75.6585 32.3755 75.7082 32.258 75.7966 32.1714C75.885 32.0847 76.0049 32.0361 76.13 32.0361ZM107.008 32.0361C107.101 32.0351 107.193 32.0613 107.271 32.1114C107.35 32.1615 107.411 32.2333 107.447 32.3175C107.484 32.4018 107.494 32.4948 107.476 32.5848C107.459 32.6748 107.414 32.7576 107.349 32.8226C107.283 32.8877 107.199 32.9323 107.107 32.9505C107.016 32.9688 106.921 32.96 106.834 32.9251C106.748 32.8903 106.674 32.8312 106.622 32.7551C106.57 32.6791 106.542 32.5895 106.542 32.4979C106.542 32.3764 106.591 32.2597 106.678 32.1733C106.765 32.0867 106.884 32.0375 107.008 32.0361ZM92.3806 6.57647C92.4735 6.71843 92.5254 6.88234 92.5309 7.05084C92.5363 7.21933 92.4951 7.38613 92.4116 7.53355C92.3281 7.68098 92.2054 7.80351 92.0567 7.88819C91.9078 7.97286 91.7384 8.01651 91.5662 8.01451C91.3117 8.01456 91.0672 7.91654 90.8858 7.74159C90.7973 7.6547 90.7271 7.55158 90.6793 7.43811C90.6315 7.32464 90.607 7.20306 90.6072 7.0803C90.6022 6.89529 90.6525 6.71288 90.7519 6.55547C91.0106 6.64192 91.2821 6.68625 91.5556 6.68668C91.835 6.69595 92.114 6.65869 92.3806 6.57647ZM91.6787 2.50376C91.4589 2.57617 91.2354 2.63747 91.009 2.68745C90.9033 2.71039 90.7957 2.72444 90.6875 2.72944C90.9512 2.57977 91.2509 2.50186 91.5556 2.50376H91.6787ZM89.8142 4.51913L89.9696 4.40891C90.1675 4.26342 90.3571 4.10749 90.5375 3.94181C90.7176 3.9441 90.8973 3.92649 91.0733 3.88932C91.3386 3.82885 91.597 3.74271 91.8449 3.63215C92.09 3.52662 92.3162 3.38307 92.5146 3.20704C92.5989 3.12903 92.6679 3.03653 92.7182 2.93413L92.7986 3.0076C93.1281 3.33382 93.3129 3.77419 93.3129 4.23308C93.3129 4.69198 93.1281 5.13236 92.7986 5.45857C92.6924 5.56388 92.5715 5.65399 92.4396 5.72624C92.1744 5.56149 91.8668 5.47401 91.5529 5.47401C91.2389 5.47401 90.9313 5.56149 90.6662 5.72624C90.5304 5.6506 90.406 5.557 90.2964 5.44808C90.041 5.19507 89.8725 4.87036 89.8142 4.51913ZM76.1568 37.6886C74.7539 37.6898 73.3671 37.3973 72.0891 36.8307C70.8111 36.264 69.6715 35.4364 68.7467 34.4031H83.5668C82.6426 35.4369 81.503 36.2649 80.2249 36.8317C78.9468 37.3983 77.5597 37.6905 76.1568 37.6886ZM106.922 37.6886C105.519 37.6895 104.133 37.3968 102.855 36.8303C101.577 36.2636 100.437 35.4361 99.5121 34.4031H114.338C113.412 35.4371 112.272 36.2651 110.993 36.8318C109.714 37.3984 108.326 37.6906 106.922 37.6886ZM56.6753 18.5479C56.4556 18.6213 56.252 18.7789 56.0162 18.8628C55.7805 18.9468 55.5125 18.952 55.2608 19.015C55.0153 19.0755 54.7866 19.1884 54.591 19.3456C54.4242 19.5126 54.3122 19.7246 54.2695 19.9545C54.1892 20.2536 54.0927 20.684 53.8569 21.3768C53.5523 22.2524 53.1945 23.1094 52.7854 23.9432C52.3498 24.8231 51.8577 25.675 51.3119 26.4939C50.8106 27.2528 50.2612 27.9803 49.667 28.6719C49.0372 29.3974 48.3625 30.0845 47.6471 30.7293C46.8857 31.413 46.0842 32.0527 45.2467 32.6449C44.3895 33.2432 43.4142 33.8835 42.4927 34.4031C41.5711 34.9227 40.7245 35.3426 39.8888 35.7415C39.0172 36.1553 38.1228 36.5215 37.2098 36.8384C36.0389 37.237 34.8457 37.57 33.636 37.8355C32.3555 38.119 31.0481 38.3288 29.9283 38.4968C28.8085 38.6647 27.8762 38.7802 26.8582 38.9692C25.8366 39.1516 24.8274 39.3953 23.8363 39.6987C23.0939 39.9274 22.3844 40.2484 21.7253 40.6539C21.3405 40.8973 20.9908 41.1904 20.6858 41.5251C20.5663 41.6448 20.4652 41.781 20.3858 41.9292C20.7417 41.7606 21.1087 41.615 21.4842 41.4936C22.3541 41.2035 23.2516 40.9995 24.1631 40.8848C25.621 40.7174 27.0904 40.6665 28.5567 40.7326C30.1373 40.7956 31.7232 40.9845 33.1966 41.1052C34.5543 41.2194 35.9169 41.2667 37.2794 41.2469C38.4471 41.2315 39.6118 41.1244 40.7621 40.9268C41.7677 40.7371 42.7566 40.4704 43.7197 40.129C44.5466 39.8412 45.3492 39.4903 46.12 39.0794C47.0063 38.6014 47.8649 38.0758 48.6919 37.5049C49.4284 36.9965 50.1367 36.4498 50.8137 35.8674C51.4405 35.3426 52.0138 34.8177 52.5442 34.2666C53.0747 33.7156 53.5676 33.1698 53.9587 32.6921C54.3499 32.2145 54.6392 31.8472 54.9285 31.4693C54.8855 32.0038 54.7813 32.532 54.6177 33.0438C54.3723 33.7412 54.0564 34.4128 53.6748 35.0487C53.3253 35.6439 52.9084 36.1984 52.4317 36.7019C52.0417 37.1132 51.613 37.4874 51.1511 37.8198C50.8058 38.0564 50.448 38.2754 50.0796 38.4758C50.1064 38.4758 50.1385 38.5335 50.6154 38.5073C51.4226 38.4749 52.2264 38.3872 53.0211 38.2449C53.9567 38.0809 54.8725 37.8224 55.7537 37.4734C56.576 37.159 57.351 36.7371 58.0576 36.2191C58.6962 35.7305 59.2687 35.1644 59.7614 34.5343C60.1457 34.0418 60.4811 33.5146 60.7633 32.9599C61.0058 32.5051 61.2084 32.0311 61.3688 31.5428C61.5617 30.9812 61.7706 30.2517 62.0439 29.6429C62.292 29.0541 62.6561 28.5191 63.1155 28.0684C63.6679 27.5392 64.3097 27.1078 65.0122 26.793C65.8122 26.4507 66.6403 26.1751 67.4876 25.969C68.1808 25.8208 68.8629 25.6261 69.529 25.3865C70.3966 25.0288 71.2304 24.5967 72.0205 24.0954C72.8206 23.5954 73.561 23.0092 74.2279 22.3477C74.7314 21.8311 75.1588 21.2482 75.4978 20.6157C75.7817 20.091 75.9478 19.6396 76.0979 19.3299C76.1819 19.0913 76.3462 18.8877 76.564 18.7526C76.8001 18.66 77.0563 18.6275 77.3087 18.6581C77.5722 18.7039 77.8405 18.7162 78.107 18.6949C78.2489 18.6633 78.3812 18.5993 78.4928 18.508C78.6046 18.4168 78.6927 18.301 78.75 18.17C78.8959 17.8395 78.9334 17.4727 78.8572 17.1203C78.7585 16.7999 78.6386 16.4861 78.4982 16.1809C78.3977 15.885 78.3506 15.5742 78.3589 15.2624C78.3589 15.0316 78.45 14.9213 78.7018 14.6851C78.9537 14.4489 79.3876 14.0816 79.9073 13.5935C80.4271 13.1054 81.0272 12.4913 81.8576 11.6201C82.6881 10.7489 83.7436 9.6205 84.5849 8.73353C85.426 7.84656 86.0529 7.20626 86.5673 6.70242C86.9835 6.28153 87.4332 5.89368 87.9121 5.54254C88.2965 5.3052 88.6956 5.09136 89.1069 4.90225C89.2282 5.29816 89.4472 5.65869 89.7446 5.95191C89.8583 6.06605 89.9839 6.16808 90.1196 6.25632C89.978 6.49731 89.904 6.77074 89.9053 7.04881C89.9079 7.37582 90.0118 7.69435 90.2031 7.96234C90.3944 8.23033 90.6643 8.43518 90.9768 8.54984V16.7424C90.9958 17.4472 90.9311 18.1517 90.784 18.8418C90.5901 19.6292 90.2564 20.3772 89.7981 21.0514C89.3895 21.666 88.8505 22.1868 88.2175 22.5786C87.6338 22.9353 86.9605 23.126 86.2726 23.1297C85.4699 23.1332 84.675 22.976 83.9365 22.6679C83.1489 22.353 82.3988 21.8806 81.6808 21.5395C81.0484 21.2103 80.3495 21.0221 79.6341 20.9883C79.3435 20.9752 79.0533 21.0216 78.7819 21.1246C78.5107 21.2277 78.2645 21.385 78.0589 21.5866C77.8811 21.7888 77.7498 22.0261 77.674 22.2824C77.5981 22.5387 77.5796 22.808 77.6195 23.0719C77.6608 23.3064 77.7634 23.5264 77.9174 23.7104C78.0715 23.8944 78.2716 24.0361 78.4982 24.1216C78.7394 24.2208 78.9995 24.2682 79.261 24.261C79.5225 24.2537 79.7793 24.1919 80.0145 24.0796C80.3528 23.8343 80.6174 23.5044 80.7807 23.1245C80.9415 22.8516 81.0646 22.7676 81.2415 22.7413C81.3666 22.7242 81.4942 22.7357 81.6141 22.7748C81.734 22.814 81.843 22.8797 81.9327 22.9669C82.294 23.282 82.5984 23.6547 82.8328 24.0691C83.0922 24.4964 83.2582 24.9718 83.3204 25.4652C83.3865 26.0071 83.3538 26.5562 83.224 27.0869C83.0945 27.6307 82.8438 28.1397 82.4899 28.5775C82.0901 29.0559 81.5794 29.4337 81.0004 29.6796C80.3371 29.96 79.6158 30.084 78.8947 30.0417C78.2053 29.9897 77.5386 29.7773 76.9498 29.4224C76.5311 29.1637 76.1893 28.8018 75.9585 28.3728C75.8085 28.0684 75.8299 27.8479 76.0121 27.701C76.1943 27.554 76.5479 27.4229 76.8211 27.1762C76.9894 27.0289 77.1239 26.8484 77.2162 26.6468C77.3085 26.4452 77.3565 26.2268 77.357 26.0058C77.3673 25.7348 77.3 25.4662 77.1628 25.2307C77.0254 24.995 76.8236 24.8018 76.5801 24.6727C76.2712 24.5368 75.9308 24.4846 75.5944 24.5215C75.2579 24.5584 74.9377 24.6831 74.6673 24.8826C74.4027 25.1585 74.2168 25.4977 74.1283 25.8662C74.04 26.2348 74.0521 26.6196 74.1636 26.982C74.3668 27.8298 74.7706 28.619 75.3423 29.286C75.0788 29.4315 74.834 29.6077 74.6137 29.8108C74.2881 30.1281 74.0774 30.541 74.0136 30.9865C73.9268 31.4737 73.9787 31.9748 74.1636 32.435C74.3404 32.8937 74.6892 33.2691 75.1387 33.4846C75.5668 33.6633 76.0487 33.6726 76.4836 33.5109C76.6686 33.4549 76.8353 33.3522 76.967 33.213C77.0986 33.074 77.1907 32.9033 77.2337 32.7184C77.262 32.531 77.2479 32.3399 77.1924 32.1585C77.1368 31.9771 77.0411 31.8099 76.9122 31.6688C76.7252 31.5012 76.4877 31.3978 76.2354 31.3742C75.9832 31.3505 75.7299 31.4078 75.5138 31.5375C75.3857 31.6299 75.2751 31.7436 75.187 31.8735C75.1466 31.9432 75.1142 32.0171 75.0906 32.0938C75.0165 31.9641 74.9624 31.8244 74.9298 31.6793C74.8655 31.4223 74.8655 31.1541 74.9298 30.8972C74.9737 30.7719 75.044 30.6571 75.1364 30.5603C75.2287 30.4635 75.3409 30.387 75.4656 30.3356C75.734 30.2275 76.022 30.174 76.3121 30.1782C76.7582 30.4695 77.2508 30.6859 77.7696 30.8185C78.5874 31.0234 79.4408 31.0539 80.2716 30.9077C81.0807 30.7868 81.8405 30.4509 82.4684 29.9368C83.096 29.3779 83.5774 28.6795 83.8722 27.9005C84.1866 27.1582 84.3293 26.357 84.2902 25.5544C84.2061 24.865 83.9993 24.1953 83.6793 23.5758C84.2107 23.8225 84.7785 23.9855 85.3617 24.0586C86.2093 24.1572 87.0677 24.1165 87.9014 23.938C88.6569 23.749 89.1445 23.4131 89.4767 23.3397C89.8088 23.2661 90.0124 23.5443 90.2107 23.7543C90.4853 23.9646 90.8037 24.1136 91.1435 24.1906C91.4831 24.2677 91.836 24.271 92.177 24.2004C92.4506 24.1189 92.6955 23.9644 92.8843 23.7543C93.0933 23.5443 93.2862 23.2871 93.6237 23.3397C93.9612 23.3921 94.4382 23.749 95.199 23.938C96.0327 24.1166 96.8912 24.1573 97.7386 24.0586C98.3219 23.9855 98.8897 23.8225 99.421 23.5758C99.101 24.1953 98.8944 24.865 98.8102 25.5544C98.771 26.357 98.9137 27.1582 99.2281 27.9005C99.5234 28.6779 100.003 29.3758 100.627 29.9368C101.256 30.4491 102.015 30.7847 102.823 30.9077C103.654 31.0539 104.508 31.0234 105.325 30.8185C105.847 30.6879 106.341 30.4714 106.788 30.1782C107.08 30.1748 107.37 30.2282 107.64 30.3356C107.764 30.3878 107.876 30.4647 107.968 30.5613C108.061 30.658 108.131 30.7724 108.176 30.8972C108.243 31.1538 108.243 31.4227 108.176 31.6793C108.148 31.8258 108.094 31.9663 108.015 32.0938C107.996 32.0155 107.964 31.9409 107.919 31.8735C107.833 31.7436 107.724 31.6299 107.597 31.5375C107.42 31.4254 107.213 31.3671 107.003 31.3696C106.855 31.3624 106.707 31.3853 106.569 31.4367C106.43 31.4883 106.304 31.5672 106.199 31.6688C106.069 31.8094 105.972 31.9765 105.916 32.1579C105.859 32.3393 105.844 32.5307 105.872 32.7184C105.917 32.9033 106.01 33.0736 106.143 33.2125C106.275 33.3514 106.442 33.4543 106.627 33.5109C107.062 33.6726 107.544 33.6633 107.972 33.4846C108.421 33.2689 108.768 32.8933 108.942 32.435C109.132 31.9762 109.186 31.474 109.097 30.9865C109.034 30.541 108.823 30.1281 108.497 29.8108C108.277 29.6077 108.032 29.4315 107.769 29.286C108.339 28.6187 108.741 27.8294 108.942 26.982C109.054 26.62 109.067 26.2355 108.98 25.867C108.892 25.4985 108.708 25.159 108.444 24.8826C108.172 24.6832 107.851 24.5585 107.514 24.5217C107.177 24.4847 106.835 24.5369 106.526 24.6727C106.284 24.8036 106.083 24.9973 105.946 25.2325C105.809 25.4675 105.741 25.7352 105.749 26.0058C105.753 26.2262 105.803 26.4433 105.895 26.6445C105.987 26.8456 106.119 27.0265 106.285 27.1762C106.579 27.4385 106.917 27.554 107.099 27.701C107.281 27.8479 107.297 28.0684 107.147 28.3728C106.92 28.8029 106.58 29.1653 106.161 29.4224C105.571 29.7781 104.902 29.9905 104.211 30.0417C103.492 30.0836 102.772 29.9595 102.111 29.6796C101.531 29.4352 101.02 29.0571 100.621 28.5775C100.265 28.1411 100.014 27.6315 99.8871 27.0869C99.7546 26.5566 99.7219 26.007 99.7907 25.4652C99.8536 24.9727 100.018 24.4978 100.273 24.0691C100.511 23.6553 100.817 23.2828 101.178 22.9669C101.267 22.8801 101.375 22.8146 101.494 22.7754C101.613 22.7363 101.74 22.7246 101.864 22.7413C102.041 22.7413 102.17 22.8516 102.33 23.1245C102.49 23.5052 102.753 23.8357 103.091 24.0796C103.327 24.1917 103.585 24.2535 103.847 24.2606C104.11 24.2679 104.371 24.2205 104.613 24.1216C104.84 24.0361 105.04 23.8944 105.194 23.7104C105.348 23.5264 105.45 23.3064 105.492 23.0719C105.531 22.8076 105.511 22.5381 105.435 22.2818C105.358 22.0255 105.226 21.7884 105.047 21.5866C104.843 21.3846 104.597 21.227 104.327 21.1239C104.056 21.0208 103.767 20.9747 103.477 20.9883C102.763 21.016 102.064 21.1988 101.43 21.5237C100.707 21.8649 99.9622 22.3372 99.1746 22.6521C98.4361 22.9603 97.6411 23.1174 96.8385 23.114C96.149 23.1093 95.4742 22.9187 94.8882 22.5629C94.2564 22.1698 93.7176 21.6491 93.3076 21.0356C92.8512 20.3604 92.5177 19.6128 92.3218 18.826C92.1726 18.1362 92.1061 17.4316 92.1235 16.7267V8.57608C92.3456 8.49589 92.5468 8.36865 92.7129 8.20345C92.9707 7.95646 93.1363 7.63169 93.1829 7.28139C93.2296 6.93108 93.1546 6.57558 92.97 6.27207C93.0964 6.1843 93.2147 6.08595 93.3237 5.97815C93.5593 5.74888 93.7464 5.47619 93.8741 5.17579C94.0018 4.8754 94.0675 4.55322 94.0675 4.22784C94.0675 3.90246 94.0018 3.58028 93.8741 3.27989C93.7464 2.97949 93.5593 2.70679 93.3237 2.47753C92.8889 2.05134 92.3099 1.79575 91.6959 1.75901C91.082 1.72227 90.4755 1.90691 89.991 2.27809C89.9936 2.25893 89.9936 2.23951 89.991 2.22036C89.9762 2.01143 90.0307 1.80339 90.1464 1.62729C90.2313 1.53016 90.3353 1.45081 90.4522 1.394C90.5692 1.33719 90.6965 1.30407 90.8269 1.29665C91.1345 1.28281 91.4406 1.34604 91.7163 1.48034C91.9195 1.61489 92.1306 1.73756 92.3486 1.84772C92.5525 1.91126 92.7714 1.91126 92.9754 1.84772C93.1308 1.79523 93.1897 1.71651 93.1575 1.59581C93.1108 1.45944 93.0381 1.33301 92.9433 1.22317C92.9012 1.16844 92.8505 1.12061 92.7932 1.08147C92.9282 1.12001 93.0577 1.17465 93.179 1.24416C93.313 1.32814 93.4416 1.44884 93.5594 1.52233C93.6048 1.55588 93.6568 1.57975 93.7122 1.59241C93.7676 1.60506 93.8251 1.60622 93.8809 1.59581C93.9402 1.58374 93.9946 1.55496 94.0375 1.513C94.0803 1.47104 94.1097 1.41773 94.122 1.35962C94.1255 1.25531 94.1057 1.15152 94.064 1.05545C94.0224 0.959376 93.9599 0.873337 93.8809 0.803304C93.6375 0.581444 93.3436 0.419533 93.0237 0.330954C92.7025 0.241379 92.3714 0.190272 92.0378 0.178753C91.8443 0.172928 91.6507 0.183464 91.4592 0.210243C91.2295 0.186675 90.9987 0.176161 90.768 0.178753C90.3174 0.163604 89.8664 0.17763 89.4177 0.220739C88.9093 0.261415 88.4132 0.394921 87.955 0.614364C87.4695 0.869516 87.034 1.20716 86.6691 1.61155C86.3371 1.96778 86.036 2.35048 85.769 2.75569C85.5653 3.05483 85.4743 3.22278 85.2975 3.44321C85.0377 3.76878 84.7605 4.08063 84.467 4.37742C84.0123 4.86218 83.5197 5.31141 82.9935 5.72099C82.3837 6.1465 81.7506 6.53897 81.0968 6.89662C80.3842 7.31123 79.5751 7.81507 78.8733 8.25593C78.3271 8.65541 77.7143 8.95907 77.0623 9.1534C76.5977 9.17237 76.1336 9.10286 75.696 8.94871C75.1888 8.84323 74.6615 8.87961 74.1743 9.05368C73.656 9.26521 73.1927 9.58805 72.8188 9.99838C72.433 10.392 72.1436 10.8224 71.7471 11.2265C71.3237 11.6703 70.857 12.0728 70.3542 12.4284C69.7433 12.8692 68.9824 13.3678 68.3556 13.7561C67.8418 14.0901 67.3046 14.3882 66.7482 14.6484C66.281 14.8649 65.7951 15.0405 65.2962 15.1732C64.8783 15.2834 64.5675 15.315 64.4872 15.4199C64.4068 15.5249 64.5514 15.7191 64.664 16.013C64.7894 16.3727 64.851 16.7507 64.8461 17.1308C64.8457 17.5428 64.7862 17.9527 64.6693 18.3485C64.579 18.6387 64.4568 18.9185 64.305 19.183C64.3028 18.7933 64.2615 18.4049 64.1818 18.023C64.0991 17.5562 63.9302 17.1081 63.6835 16.7005C63.5882 16.5306 63.4581 16.3818 63.3014 16.2635C63.1446 16.1452 62.9646 16.0599 62.7726 16.013C62.4013 15.9582 62.0222 16.0324 61.701 16.2229C61.4052 16.4168 61.1384 16.6499 60.908 16.9157C60.686 17.1688 60.4237 17.385 60.1311 17.556C59.8584 17.6696 59.5722 17.749 59.2792 17.7922C59.0381 17.8446 58.8773 17.9024 58.7916 18.0861C58.7171 18.3895 58.6687 18.6985 58.647 19.0097C58.5574 19.5306 58.4119 20.0408 58.213 20.5318C57.9586 21.1589 57.6522 21.7644 57.2967 22.3425C56.9801 22.8457 56.635 23.3311 56.2627 23.7962C56.4502 23.2714 56.6324 22.7466 56.7984 22.122C56.9684 21.4771 57.1025 20.8235 57.2003 20.1644C57.294 19.7018 57.294 19.2257 57.2003 18.7631C57.1253 18.4797 56.8949 18.4744 56.6753 18.5479Z" fill="black"/>
</svg>
