<svg width="160" height="86" viewBox="0 0 160 86" fill="none" xmlns="http://www.w3.org/2000/svg">
<path fill-rule="evenodd" clip-rule="evenodd" d="M54.1866 5.89589C54.232 5.88117 54.2807 5.88335 54.3247 5.90204C54.3685 5.92073 54.4046 5.95472 54.4264 5.99802C54.4483 6.04133 54.4546 6.09116 54.4441 6.13874C54.4336 6.18631 54.4071 6.22857 54.3692 6.25805C53.3979 6.74379 52.4575 7.29245 51.5539 7.90067C51.2219 8.13368 50.91 8.39548 50.6217 8.68317C50.5209 8.78018 50.4264 8.87719 50.3383 8.98066H50.6469C50.7093 8.99245 50.7734 8.99245 50.8359 8.98066C50.8736 8.98066 50.9051 8.92893 50.9807 8.85132C51.0851 8.74125 51.2013 8.64363 51.3272 8.5603C51.4856 8.45145 51.6719 8.39297 51.8625 8.39217C52.0574 8.4228 52.2404 8.5078 52.3915 8.63791C52.5679 8.76078 52.7506 8.90952 52.8703 9.00006C52.9899 9.0906 53.053 9.12293 53.053 9.15527C53.053 9.1876 52.9837 9.20701 52.8828 9.28461C52.7434 9.40687 52.5913 9.51313 52.4293 9.6015C52.2102 9.71398 51.9689 9.77369 51.7239 9.7761C51.5451 9.76169 51.3773 9.68129 51.2515 9.54975C51.1319 9.42688 51.031 9.28461 50.9493 9.21347C50.912 9.17662 50.8672 9.14878 50.8182 9.13198C50.7692 9.1152 50.7171 9.1099 50.6657 9.11648H50.2564C50.1389 9.25632 50.0295 9.40316 49.9289 9.55622C49.7803 9.78221 49.6537 10.0226 49.551 10.2741C49.4645 10.5011 49.3951 10.7346 49.3431 10.9725C49.299 11.1988 49.2549 11.4317 49.2235 11.658C49.1919 11.8843 49.1668 12.1624 49.1542 12.3888C49.1416 12.6151 49.1542 12.9708 49.1542 13.1778V13.3782C49.2676 13.3072 49.4124 13.236 49.5069 13.1842C49.6274 13.119 49.7277 13.0204 49.7965 12.8997C49.9163 12.7187 50.1178 12.3953 50.3194 12.143C50.481 11.9083 50.6976 11.7192 50.9493 11.5933C51.2137 11.4946 51.493 11.4443 51.7743 11.4446H52.5553C52.7254 11.4446 52.7632 11.4446 52.6875 11.5933C52.5477 11.8555 52.3854 12.1044 52.2026 12.3371C51.9885 12.6243 51.7182 12.8622 51.409 13.0355C51.1089 13.1656 50.7895 13.2422 50.4642 13.2618C50.1556 13.3007 49.8784 13.32 49.7274 13.333C49.6152 13.338 49.5065 13.3737 49.4124 13.4364L49.1416 13.5851C49.1451 13.6218 49.1451 13.6586 49.1416 13.6951C49.1182 13.7918 49.0888 13.8869 49.0534 13.9797C48.9007 14.3102 48.7845 14.6573 48.707 15.0144C48.67 15.2845 48.6469 15.5566 48.6377 15.8292C48.6377 16.1008 48.6377 16.4113 48.6377 16.7217C48.7362 16.6933 48.833 16.6587 48.9275 16.6183C49.0219 16.5858 49.0219 16.5729 49.0785 16.4436C49.1663 16.2268 49.2876 16.0259 49.4376 15.8486C49.6337 15.6322 49.8636 15.4507 50.1178 15.3119C50.3128 15.2113 50.5299 15.1646 50.7476 15.1761C51.031 15.1761 51.4405 15.1761 51.6609 15.2278C51.8814 15.2796 51.894 15.2796 51.7869 15.4413C51.6119 15.6673 51.4248 15.8832 51.2263 16.088C51.0486 16.3095 50.8189 16.4809 50.5587 16.5858C50.2806 16.6709 49.9922 16.7144 49.7021 16.7152H49.0723C48.9831 16.6951 48.8907 16.6951 48.8015 16.7152L48.5684 16.7993L48.5117 16.9609C48.4676 17.0644 48.3984 17.2132 48.285 17.446L48.0016 17.9957L47.4851 18.9916C47.6363 18.9592 47.7839 18.9116 47.9259 18.8493C48.1716 18.7459 48.455 18.5777 48.7699 18.4743C49.0993 18.3749 49.4496 18.3772 49.7777 18.4807C50.0719 18.5751 50.3486 18.7194 50.5966 18.9076C50.7981 19.0563 50.9051 19.1404 50.9367 19.2179C50.9681 19.2956 50.9367 19.3473 50.7602 19.4508C50.5343 19.6084 50.2857 19.7283 50.0234 19.8064C49.706 19.8968 49.3707 19.8968 49.0534 19.8064C48.7764 19.6923 48.5157 19.5399 48.2786 19.3538C48.1386 19.2461 47.9774 19.171 47.8063 19.1339C47.7098 19.127 47.6131 19.127 47.5165 19.1339L47.3276 19.5219C47.1638 19.8711 47.019 20.1686 46.9057 20.5049C46.8029 20.7872 46.729 21.0798 46.6852 21.378C46.6471 21.6351 46.6471 21.8968 46.6852 22.154C46.7111 22.3505 46.7753 22.5397 46.8741 22.7102C46.9483 22.8201 47.054 22.9037 47.1765 22.9494C47.2906 22.9962 47.4125 23.0203 47.5354 23.0206C47.6294 23.0346 47.7249 23.0346 47.8189 23.0206C47.8982 23.0058 47.9761 22.9843 48.0519 22.9559C48.0768 22.948 48.1028 22.9451 48.1287 22.9477C48.1545 22.9503 48.1796 22.9581 48.2025 22.9708C48.2254 22.9834 48.2456 23.0006 48.2619 23.0214C48.2783 23.0421 48.2904 23.066 48.2976 23.0917C48.3063 23.1167 48.31 23.1434 48.3083 23.1699C48.3067 23.1964 48.2997 23.2222 48.2879 23.2459C48.276 23.2696 48.2597 23.2904 48.2396 23.3073C48.2197 23.3241 48.1965 23.3366 48.1716 23.3439L47.8945 23.4279C47.771 23.4422 47.6463 23.4422 47.5228 23.4279C47.3549 23.4248 47.1887 23.392 47.0315 23.331C46.837 23.2521 46.6686 23.1174 46.5466 22.9429C46.4147 22.722 46.3289 22.4753 46.2947 22.2187C46.2505 21.9208 46.2505 21.6177 46.2947 21.3198C46.338 20.9944 46.4184 20.6753 46.534 20.3691C46.6474 20.0586 46.7922 19.7224 46.956 19.3731C46.8936 19.1833 46.82 18.9976 46.7355 18.8171C46.6445 18.6239 46.5184 18.4506 46.3639 18.3061C46.1455 18.1198 45.9546 17.902 45.7971 17.6594C45.5989 17.3218 45.4823 16.9404 45.4569 16.5471C45.4589 16.2207 45.5299 15.8985 45.6648 15.6029C45.7323 15.409 45.8101 15.219 45.8979 15.0338C45.9482 14.9238 45.986 14.9045 46.1309 15.079C46.3484 15.3537 46.5442 15.6456 46.7166 15.9521C46.8803 16.2287 46.9774 16.5412 47.0001 16.864C47.0035 17.1987 46.9698 17.5329 46.8993 17.8598C46.8426 18.1379 46.7797 18.2996 46.7607 18.416C46.744 18.5434 46.7684 18.6728 46.83 18.7846C46.8741 18.914 46.9371 19.0886 47.0064 19.2697C47.2331 18.8106 47.4913 18.3126 47.7056 17.9052L47.989 17.3555C48.0666 17.2088 48.136 17.0577 48.1968 16.9027C48.221 16.8562 48.238 16.806 48.2472 16.754C48.2472 16.4566 48.2472 16.1655 48.2472 15.8486V15.4865C48.14 15.3895 47.9952 15.2472 47.9071 15.1761C47.8335 15.1028 47.7381 15.0572 47.6363 15.0467C47.3991 14.9929 47.1702 14.9058 46.956 14.7881C46.6947 14.6325 46.4775 14.4096 46.3261 14.1414C46.184 13.836 46.1067 13.5031 46.0994 13.1648C46.082 12.8611 46.082 12.5566 46.0994 12.2529C46.0994 12.0655 46.1435 12.059 46.3135 12.1237C46.5769 12.2326 46.8264 12.3737 47.0567 12.544C47.3494 12.7744 47.592 13.0651 47.7685 13.3977C47.9259 13.6999 48.0305 14.0282 48.0771 14.3677C48.0972 14.5457 48.0822 14.7261 48.033 14.898C48.0239 14.9305 48.023 14.9648 48.0308 14.9978C48.0385 15.0307 48.0545 15.061 48.0771 15.0855C48.1298 15.1773 48.1932 15.262 48.266 15.3378C48.266 15.2019 48.266 15.0727 48.3102 14.9562C48.3791 14.5448 48.4889 14.1418 48.6377 13.7533C48.6668 13.6771 48.692 13.5994 48.7132 13.5206C48.7179 13.456 48.7179 13.3911 48.7132 13.3265V13.1196C48.7132 12.9061 48.7132 12.6216 48.7132 12.3047V12.1883C48.6655 12.0929 48.6129 12.0001 48.5558 11.9103C48.4727 11.7675 48.3662 11.6406 48.2409 11.5351C48.159 11.4834 48.1086 11.4963 47.9638 11.4769C47.7486 11.444 47.5374 11.3876 47.3339 11.3088C47.1025 11.2279 46.8989 11.0796 46.7481 10.882C46.5982 10.643 46.4995 10.3741 46.4585 10.093C46.4144 9.82138 46.4018 9.57563 46.3702 9.44629C46.3387 9.31695 46.3073 9.21994 46.4836 9.25228C46.7956 9.32029 47.0926 9.4475 47.3591 9.62736C47.6578 9.82943 47.9026 10.1051 48.0709 10.4293C48.2007 10.6491 48.3003 10.8863 48.3669 11.1342C48.3669 11.3088 48.3669 11.3411 48.4487 11.4446C48.5306 11.5481 48.6503 11.7227 48.7573 11.8585V11.8973C48.7573 11.7744 48.7573 11.6451 48.8015 11.5157C48.8306 11.2743 48.8727 11.0346 48.9275 10.7979C48.9788 10.5366 49.0548 10.2811 49.1542 10.0348C49.2617 9.7517 49.4012 9.48255 49.5698 9.23288L49.4565 9.13587C49.4158 9.10202 49.3638 9.08579 49.3116 9.0906C49.1628 9.07759 49.0153 9.05163 48.8708 9.013C48.6373 8.96997 48.4196 8.86268 48.2409 8.70258C48.0852 8.52372 47.994 8.29544 47.9826 8.05588C47.9727 7.87455 48.0028 7.69325 48.0709 7.52558C48.1149 7.42211 48.14 7.42858 48.266 7.44797C48.4665 7.47329 48.663 7.52323 48.8518 7.59671C49.0891 7.68002 49.2915 7.84437 49.425 8.06234C49.5018 8.26828 49.5236 8.49158 49.488 8.70905C49.488 8.88366 49.4438 8.96772 49.4376 9.00653C49.4312 9.04533 49.4376 9.03887 49.4817 9.0712L49.5888 9.15527C49.7949 8.8584 50.0267 8.58134 50.2816 8.32749C50.5569 8.05519 50.8516 7.80443 51.1634 7.57732C51.1634 7.48678 51.1634 7.36391 51.1634 7.27337C51.1702 7.21467 51.1642 7.15515 51.1457 7.09918C51.1271 7.04321 51.0966 6.99224 51.0563 6.95001C50.9066 6.80977 50.7921 6.63451 50.7224 6.43912C50.6538 6.16141 50.6921 5.86721 50.8295 5.61781C50.9681 5.42383 51.1439 5.26097 51.346 5.13925C51.4846 5.03578 51.5223 4.95171 51.5539 4.97758C51.5854 5.00344 51.6168 5.11339 51.6799 5.33326C51.7856 5.593 51.8351 5.87325 51.8247 6.15457C51.7726 6.41965 51.6555 6.6667 51.4846 6.87241C51.3945 6.96702 51.3275 7.08229 51.2894 7.2087C51.2894 7.29277 51.2579 7.40918 51.2453 7.50618C52.1895 6.90245 53.1722 6.36448 54.1866 5.89589ZM49.299 6.54259C48.6426 6.68805 48.0074 6.92066 47.4094 7.23456C46.6628 7.65805 45.9761 8.18462 45.3688 8.79959C44.7871 9.40834 44.2776 10.0856 43.8509 10.8173C43.4119 11.5156 43.1043 12.2921 42.9438 13.1066C42.8476 13.8438 42.8223 14.589 42.8683 15.3313C42.8683 15.8486 42.8683 15.978 42.7297 16.1461C42.6126 16.3169 42.4447 16.444 42.2511 16.5083C42.0019 16.5711 41.745 16.595 41.489 16.5794C41.1914 16.5477 40.8915 16.6061 40.626 16.7475C40.344 17.0167 40.156 17.3734 40.0907 17.7628C39.9392 18.3121 39.8609 18.88 39.8576 19.4508C39.8617 19.9642 40.001 20.4671 40.2607 20.9059C40.573 21.4533 40.9495 21.9593 41.3819 22.4126C41.8568 22.9218 42.3571 23.4053 42.8809 23.8612C43.3004 24.2866 43.7804 24.6443 44.3043 24.9218C44.6402 25.0412 45.0001 25.0702 45.3499 25.006C45.5591 24.9811 45.7705 24.9811 45.9798 25.006C46.0015 25.1171 46.0514 25.2204 46.1244 25.3056C46.1973 25.3907 46.2908 25.4547 46.3954 25.491C46.783 25.6412 47.2024 25.6837 47.6111 25.6139C47.765 25.5791 47.9098 25.5109 48.0358 25.4139C48.1618 25.3168 48.2661 25.1932 48.3417 25.0512C48.4382 24.8727 48.4922 24.6733 48.4991 24.4692C48.5068 24.3832 48.5068 24.2965 48.4991 24.2105H48.707C48.707 24.2816 48.707 24.3528 48.707 24.6632C48.7731 25.2494 48.7119 25.8434 48.5279 26.4025C48.3438 26.9615 48.0414 27.4719 47.6425 27.8967C47.1208 28.3909 46.5171 28.7852 45.8601 29.0607C45.1294 29.4229 44.2414 29.8497 43.4541 30.2765C42.6992 30.6721 41.9786 31.1329 41.3 31.6541C40.558 32.2241 39.8781 32.8746 39.2719 33.5941C38.6095 34.3718 38.023 35.2145 37.5209 36.1098C37.0563 36.9257 36.6844 37.7937 36.4124 38.6966C36.1489 39.5531 35.9593 40.4317 35.8454 41.3222C35.7657 42.0091 35.7215 42.6999 35.7132 43.3916C37.2878 43.0942 38.8624 42.7903 40.3174 42.4216C41.653 42.0847 42.9642 41.6524 44.2414 41.1283C45.3754 40.6528 46.476 40.0974 47.5354 39.4662C48.6251 38.8195 49.784 38.0887 50.7602 37.4226C51.7366 36.7565 52.5301 36.168 53.3741 35.4825C54.3317 34.7244 55.2386 33.9013 56.0888 33.0186C57.116 31.933 58.0753 30.7817 58.9609 29.5717C59.7518 28.5221 60.4715 27.4179 61.1149 26.267C61.6755 25.2194 62.0975 24.2623 62.3116 23.7707C62.4055 23.5884 62.4836 23.398 62.5447 23.2017C62.1552 23.5182 61.7328 23.7892 61.285 24.0101C60.7019 24.2958 60.0891 24.5128 59.4585 24.6567C59.0189 24.7879 58.5482 24.7559 58.1294 24.5662C57.9491 24.4685 57.7922 24.3306 57.6702 24.1629C57.5481 23.9951 57.4641 23.8015 57.424 23.5961C57.3672 23.1567 57.4728 22.7113 57.7201 22.348C58.0281 21.9454 58.4197 21.6184 58.8664 21.3908C59.427 21.0417 60.2269 20.5889 60.8126 20.2075C61.2727 19.9418 61.6875 19.6012 62.0408 19.1985C62.2687 18.9387 62.3886 18.5974 62.3747 18.2479C62.3557 17.9892 62.2434 17.7471 62.0597 17.5689C61.9084 17.4178 61.7338 17.2932 61.5433 17.2003C61.4511 17.1627 61.3564 17.1325 61.2598 17.1097C61.2381 17.1052 61.2188 17.093 61.2049 17.0752C61.1911 17.0576 61.1838 17.0354 61.1842 17.0127C61.1864 16.9791 61.196 16.9464 61.2124 16.9173C61.2288 16.8882 61.2515 16.8632 61.2787 16.8445C61.3767 16.7667 61.4563 16.6673 61.5117 16.5536C61.5664 16.4057 61.5664 16.2423 61.5117 16.0943C61.486 16.0388 61.4482 15.9902 61.4013 15.9521C61.3543 15.9139 61.2995 15.8874 61.2409 15.8746C61.1338 15.8422 61.0268 15.8746 60.9701 15.8292C60.9134 15.7839 60.9071 15.771 60.9701 15.7064C61.0406 15.6115 61.1164 15.5208 61.1968 15.4348C61.2463 15.3911 61.2869 15.3377 61.3161 15.2777C61.3453 15.2177 61.3625 15.1524 61.3669 15.0855C61.3539 15.0127 61.3227 14.9446 61.2763 14.8879C61.23 14.8312 61.17 14.7879 61.1023 14.7621C60.9449 14.6976 60.737 14.6976 60.7182 14.6329C60.6992 14.5682 60.8568 14.4517 61.0709 14.2643C61.3056 14.1035 61.493 13.8799 61.6125 13.6175C61.6218 13.4919 61.5987 13.3661 61.5457 13.2526C61.4926 13.1391 61.4114 13.0419 61.3102 12.9708C61.0863 12.7812 60.8436 12.6165 60.5858 12.4793C60.1774 12.2758 59.7838 12.0425 59.408 11.7809C59.0441 11.492 58.7086 11.1671 58.4066 10.8108C58.2052 10.5872 58.0336 10.3371 57.8965 10.0671C57.7203 9.68337 57.5094 9.31747 57.2666 8.97419C57.0644 8.72655 56.8132 8.52594 56.5296 8.38569C56.5296 8.33396 56.5296 8.27576 56.5675 8.09468C56.6036 7.82236 56.5666 7.54504 56.4603 7.29277C56.2892 7.0103 56.0537 6.775 55.7738 6.60726C55.5832 6.50997 55.4055 6.38829 55.2448 6.24511C55.1441 6.12224 55.1314 5.92175 55.0306 5.79242C54.9748 5.72348 54.9058 5.66717 54.8276 5.62709C54.7496 5.58701 54.6643 5.56404 54.5771 5.55961C54.3882 5.52727 54.1803 5.55961 54.0229 5.51434C53.8387 5.46954 53.6746 5.36249 53.5567 5.21038C53.349 5.01638 53.0277 4.6801 52.7317 4.38908C52.4808 4.11203 52.1898 3.87644 51.8688 3.69063C51.5569 3.52419 51.1978 3.47609 50.8548 3.55483C50.4299 3.65291 50.0372 3.86236 49.7148 4.16273C49.4113 4.44504 49.1745 4.79443 49.0219 5.18452C48.935 5.42441 48.935 5.68835 49.0219 5.92822C49.0906 6.13406 49.1769 6.33317 49.2802 6.52319L49.299 6.54259Z" fill="white"/>
<path fill-rule="evenodd" clip-rule="evenodd" d="M89.803 37.5859C89.913 37.5859 90.0205 37.6178 90.112 37.6777C90.2034 37.7376 90.2747 37.8226 90.3168 37.9222C90.3589 38.0218 90.3699 38.1313 90.3485 38.237C90.327 38.3427 90.274 38.4398 90.1962 38.5159C90.1185 38.5921 90.0194 38.644 89.9114 38.6651C89.8036 38.6861 89.6918 38.6753 89.5901 38.6341C89.4885 38.5929 89.4016 38.523 89.3405 38.4334C89.2794 38.3439 89.2468 38.2385 89.2468 38.1307C89.2468 37.9862 89.3054 37.8476 89.4097 37.7455C89.5139 37.6433 89.6555 37.5859 89.803 37.5859ZM126.227 37.5859C126.337 37.5847 126.445 37.6156 126.537 37.6748C126.63 37.7338 126.702 37.8185 126.745 37.9179C126.788 38.0173 126.8 38.127 126.779 38.2332C126.758 38.3393 126.706 38.437 126.628 38.5137C126.551 38.5905 126.452 38.6431 126.344 38.6645C126.236 38.6861 126.124 38.6757 126.021 38.6346C125.92 38.5936 125.832 38.5238 125.771 38.434C125.709 38.3443 125.677 38.2387 125.677 38.1307C125.677 37.9873 125.734 37.8496 125.837 37.7477C125.94 37.6456 126.08 37.5876 126.227 37.5859ZM108.972 7.55371C109.082 7.72116 109.143 7.91452 109.149 8.11328C109.156 8.31203 109.107 8.50879 109.009 8.68269C108.91 8.85659 108.766 9.00113 108.59 9.10101C108.414 9.20089 108.215 9.25238 108.012 9.25002C107.711 9.25008 107.423 9.13446 107.209 8.92809C107.105 8.82559 107.022 8.70395 106.965 8.5701C106.909 8.43626 106.88 8.29283 106.88 8.14803C106.874 7.92979 106.934 7.71462 107.051 7.52894C107.356 7.63092 107.676 7.68321 107.999 7.68371C108.329 7.69465 108.658 7.65069 108.972 7.55371ZM108.144 2.74954C107.885 2.83495 107.621 2.90727 107.354 2.96623C107.23 2.99328 107.103 3.00985 106.975 3.01575C107.286 2.83921 107.64 2.7473 107.999 2.74954H108.144ZM105.945 5.12687L106.128 4.99685C106.362 4.82524 106.585 4.6413 106.798 4.44586C107.011 4.44856 107.223 4.4278 107.43 4.38395C107.743 4.31262 108.048 4.21101 108.34 4.08059C108.629 3.9561 108.896 3.78678 109.13 3.57913C109.23 3.48711 109.311 3.378 109.37 3.2572L109.465 3.34387C109.854 3.72868 110.072 4.24814 110.072 4.78945C110.072 5.33077 109.854 5.85023 109.465 6.23503C109.34 6.35926 109.197 6.46555 109.042 6.55078C108.729 6.35645 108.366 6.25325 107.996 6.25325C107.625 6.25325 107.263 6.35645 106.95 6.55078C106.79 6.46156 106.643 6.35114 106.514 6.22266C106.212 5.92422 106.014 5.54118 105.945 5.12687ZM89.8346 44.2536C88.1797 44.255 86.5439 43.91 85.0363 43.2416C83.5288 42.5732 82.1846 41.5969 81.0936 40.378H98.5755C97.4852 41.5975 96.141 42.5742 94.6333 43.2427C93.1257 43.9111 91.4894 44.2558 89.8346 44.2536ZM126.125 44.2536C124.471 44.2547 122.835 43.9094 121.327 43.2411C119.82 42.5727 118.476 41.5965 117.385 40.378H134.873C133.781 41.5977 132.436 42.5745 130.927 43.2429C129.418 43.9113 127.781 44.2559 126.125 44.2536ZM66.8542 21.6752C66.595 21.7618 66.3549 21.9477 66.0768 22.0467C65.7986 22.1458 65.4826 22.1519 65.1856 22.2263C64.8961 22.2975 64.6262 22.4307 64.3955 22.6162C64.1988 22.8132 64.0667 23.0633 64.0163 23.3344C63.9216 23.6872 63.8077 24.1949 63.5296 25.0121C63.1703 26.045 62.7482 27.056 62.2657 28.0395C61.7519 29.0774 61.1714 30.0824 60.5275 31.0483C59.9362 31.9436 59.2882 32.8017 58.5872 33.6175C57.8443 34.4732 57.0485 35.2838 56.2045 36.0444C55.3064 36.8509 54.361 37.6055 53.373 38.304C52.3618 39.0098 51.2114 39.7651 50.1244 40.378C49.0373 40.9909 48.0387 41.4862 47.0528 41.9567C46.0247 42.445 44.9696 42.8769 43.8927 43.2506C42.5115 43.7209 41.104 44.1137 39.677 44.4269C38.1665 44.7612 36.6244 45.0088 35.3034 45.2069C33.9825 45.405 32.8828 45.5412 31.6819 45.7642C30.4769 45.9794 29.2865 46.2668 28.1173 46.6247C27.2415 46.8945 26.4046 47.2732 25.6271 47.7515C25.1732 48.0385 24.7608 48.3843 24.401 48.7792C24.26 48.9203 24.1407 49.081 24.0471 49.2558C24.467 49.0569 24.8998 48.8852 25.3427 48.7419C26.3689 48.3998 27.4276 48.1592 28.5028 48.0238C30.2225 47.8264 31.9558 47.7663 33.6854 47.8443C35.5499 47.9186 37.4207 48.1414 39.1588 48.2839C40.7602 48.4186 42.3676 48.4743 43.9748 48.451C45.3523 48.4328 46.7261 48.3065 48.083 48.0734C49.2692 47.8496 50.4357 47.535 51.5718 47.1323C52.5472 46.7928 53.4939 46.3789 54.4032 45.8942C55.4487 45.3303 56.4615 44.7103 57.437 44.0369C58.3057 43.4372 59.1412 42.7924 59.9398 42.1053C60.6793 41.4862 61.3554 40.8671 61.9812 40.2171C62.6069 39.567 63.1884 38.9232 63.6497 38.3598C64.1112 37.7964 64.4524 37.3631 64.7937 36.9173C64.7429 37.5478 64.62 38.1709 64.4271 38.7746C64.1376 39.5972 63.7649 40.3895 63.3148 41.1395C62.9026 41.8416 62.4107 42.4958 61.8485 43.0897C61.3884 43.5748 60.8827 44.0163 60.3379 44.4083C59.9305 44.6875 59.5085 44.9458 59.0739 45.1822C59.1055 45.1822 59.1435 45.2503 59.7059 45.2193C60.6581 45.1811 61.6063 45.0777 62.5438 44.9098C63.6473 44.7164 64.7276 44.4114 65.7671 43.9998C66.737 43.6289 67.6512 43.1312 68.4847 42.5201C69.2381 41.9438 69.9134 41.2761 70.4946 40.5328C70.9478 39.9518 71.3435 39.3299 71.6764 38.6756C71.9624 38.1392 72.2014 37.58 72.3907 37.004C72.6182 36.3415 72.8646 35.481 73.187 34.7629C73.4797 34.0683 73.9092 33.4373 74.451 32.9056C75.1027 32.2814 75.8597 31.7724 76.6885 31.4011C77.6321 30.9974 78.6089 30.6723 79.6085 30.4292C80.4262 30.2543 81.2307 30.0246 82.0164 29.742C83.0399 29.3201 84.0234 28.8104 84.9554 28.2191C85.8992 27.6293 86.7726 26.9378 87.5593 26.1574C88.1532 25.5481 88.6574 24.8605 89.0572 24.1144C89.3921 23.4954 89.5881 22.963 89.7651 22.5977C89.8642 22.3162 90.058 22.076 90.3149 21.9167C90.5935 21.8074 90.8956 21.7691 91.1934 21.8052C91.5042 21.8592 91.8207 21.8738 92.1351 21.8486C92.3024 21.8113 92.4584 21.7358 92.5902 21.6282C92.7221 21.5206 92.826 21.3839 92.8935 21.2294C93.0657 20.8396 93.1099 20.4069 93.02 19.9913C92.9035 19.6132 92.7621 19.2431 92.5965 18.8831C92.478 18.5341 92.4224 18.1674 92.4322 17.7997C92.4322 17.5273 92.5396 17.3972 92.8367 17.1187C93.1338 16.8401 93.6457 16.4068 94.2587 15.831C94.8718 15.2552 95.5797 14.5309 96.5593 13.5032C97.5389 12.4755 98.784 11.1444 99.7764 10.0982C100.769 9.05191 101.508 8.29662 102.115 7.70229C102.606 7.2058 103.136 6.74829 103.701 6.33409C104.155 6.05412 104.625 5.80187 105.111 5.5788C105.254 6.04582 105.512 6.47109 105.863 6.81698C105.997 6.95163 106.145 7.07198 106.305 7.17607C106.138 7.46033 106.051 7.78288 106.052 8.11089C106.055 8.49663 106.178 8.87236 106.404 9.18849C106.629 9.50461 106.948 9.74625 107.316 9.8815V19.5455C107.339 20.3769 107.262 21.2079 107.089 22.0219C106.86 22.9507 106.466 23.833 105.926 24.6283C105.444 25.3533 104.808 25.9677 104.061 26.4299C103.373 26.8506 102.579 27.0755 101.767 27.0799C100.82 27.084 99.8827 26.8987 99.0116 26.5351C98.0825 26.1637 97.1977 25.6065 96.3507 25.2041C95.6047 24.8158 94.7803 24.5938 93.9364 24.554C93.5936 24.5384 93.2513 24.5932 92.9312 24.7147C92.6113 24.8363 92.3208 25.0219 92.0783 25.2597C91.8685 25.4982 91.7137 25.7781 91.6242 26.0805C91.5348 26.3827 91.5129 26.7004 91.56 27.0118C91.6087 27.2884 91.7297 27.5478 91.9114 27.7649C92.0931 27.982 92.3292 28.1491 92.5965 28.2499C92.881 28.367 93.1879 28.4229 93.4963 28.4144C93.8048 28.4058 94.1077 28.3329 94.3851 28.2004C94.7842 27.911 95.0963 27.5219 95.289 27.0738C95.4786 26.7518 95.6239 26.6527 95.8325 26.6217C95.9801 26.6016 96.1306 26.6151 96.272 26.6613C96.4134 26.7075 96.542 26.7851 96.6478 26.8879C97.074 27.2596 97.4331 27.6991 97.7096 28.1881C98.0156 28.6921 98.2114 29.2529 98.2847 29.8349C98.3628 30.4741 98.3242 31.1218 98.171 31.7478C98.0183 32.3893 97.7226 32.9897 97.3051 33.5061C96.8335 34.0705 96.2311 34.5161 95.5481 34.8061C94.7657 35.1369 93.9148 35.2832 93.0643 35.2333C92.251 35.1719 91.4646 34.9214 90.77 34.5028C90.2761 34.1976 89.8729 33.7707 89.6007 33.2647C89.4238 32.9056 89.449 32.6455 89.664 32.4722C89.8788 32.2988 90.2959 32.1441 90.6182 31.8532C90.8167 31.6793 90.9754 31.4665 91.0843 31.2287C91.1932 30.9909 91.2497 30.7332 91.2503 30.4725C91.2625 30.1528 91.1832 29.8361 91.0212 29.5582C90.8592 29.2802 90.6212 29.0523 90.3339 28.9001C89.9695 28.7397 89.568 28.6782 89.1711 28.7217C88.7743 28.7653 88.3966 28.9123 88.0776 29.1476C87.7654 29.4731 87.5461 29.8732 87.4418 30.3079C87.3377 30.7426 87.3519 31.1966 87.4834 31.6241C87.7231 32.6242 88.1994 33.5551 88.8738 34.3419C88.563 34.5135 88.2743 34.7214 88.0143 34.961C87.6303 35.3353 87.3817 35.8223 87.3064 36.3477C87.2041 36.9225 87.2653 37.5135 87.4834 38.0564C87.692 38.5976 88.1034 39.0403 88.6337 39.2946C89.1386 39.5053 89.7071 39.5164 90.22 39.3256C90.4383 39.2595 90.635 39.1383 90.7903 38.9742C90.9456 38.8102 91.0541 38.6089 91.1049 38.3908C91.1383 38.1697 91.1217 37.9443 91.0561 37.7303C90.9906 37.5163 90.8777 37.3191 90.7257 37.1526C90.5051 36.955 90.2249 36.833 89.9273 36.8051C89.6298 36.7772 89.3311 36.8448 89.0762 36.9978C88.925 37.1068 88.7945 37.2409 88.6906 37.3941C88.643 37.4763 88.6048 37.5635 88.5769 37.654C88.4895 37.5009 88.4257 37.3362 88.3873 37.165C88.3114 36.8619 88.3114 36.5455 88.3873 36.2425C88.439 36.0946 88.522 35.9592 88.631 35.845C88.7398 35.7308 88.8722 35.6406 89.0192 35.58C89.3359 35.4525 89.6756 35.3893 90.0178 35.3943C90.544 35.7379 91.1251 35.9932 91.737 36.1497C92.7018 36.3913 93.7084 36.4273 94.6885 36.2549C95.6429 36.1122 96.539 35.716 97.2798 35.1096C98.0201 34.4503 98.5879 33.6264 98.9357 32.7075C99.3065 31.832 99.4749 30.8869 99.4287 29.9401C99.3295 29.1269 99.0856 28.3369 98.7081 27.6062C99.3349 27.8971 100.005 28.0894 100.693 28.1757C101.692 28.292 102.705 28.2439 103.689 28.0333C104.58 27.8104 105.155 27.4142 105.547 27.3276C105.939 27.2409 106.179 27.5689 106.413 27.8166C106.737 28.0648 107.112 28.2405 107.513 28.3314C107.914 28.4223 108.33 28.4262 108.732 28.3429C109.055 28.2468 109.344 28.0646 109.566 27.8166C109.813 27.5689 110.04 27.2656 110.439 27.3276C110.837 27.3895 111.399 27.8104 112.297 28.0333C113.28 28.244 114.293 28.2921 115.293 28.1757C115.981 28.0894 116.65 27.8971 117.277 27.6062C116.9 28.3369 116.656 29.1269 116.557 29.9401C116.51 30.8869 116.679 31.832 117.05 32.7075C117.398 33.6246 117.963 34.4478 118.699 35.1096C119.441 35.7139 120.337 36.1097 121.291 36.2549C122.271 36.4273 123.277 36.3913 124.242 36.1497C124.857 35.9955 125.44 35.7402 125.967 35.3943C126.312 35.3903 126.653 35.4533 126.972 35.58C127.119 35.6415 127.251 35.7323 127.359 35.8462C127.468 35.9603 127.552 36.0952 127.604 36.2425C127.684 36.5451 127.684 36.8624 127.604 37.165C127.572 37.3378 127.507 37.5035 127.415 37.654C127.392 37.5616 127.354 37.4736 127.301 37.3941C127.2 37.2409 127.071 37.1068 126.922 36.9978C126.713 36.8655 126.469 36.7967 126.22 36.7997C126.046 36.7912 125.872 36.8182 125.708 36.8789C125.545 36.9397 125.397 37.0328 125.272 37.1526C125.119 37.3185 125.005 37.5155 124.938 37.7295C124.872 37.9436 124.854 38.1693 124.887 38.3908C124.94 38.6089 125.05 38.8097 125.206 38.9736C125.362 39.1374 125.559 39.2588 125.778 39.3256C126.291 39.5164 126.859 39.5053 127.364 39.2946C127.893 39.0401 128.302 38.5971 128.508 38.0564C128.733 37.5152 128.796 36.9228 128.691 36.3477C128.616 35.8223 128.368 35.3353 127.984 34.961C127.724 34.7214 127.435 34.5135 127.124 34.3419C127.797 33.5548 128.271 32.6237 128.508 31.6241C128.641 31.197 128.656 30.7435 128.553 30.3089C128.449 29.8741 128.231 29.4737 127.92 29.1476C127.6 28.9124 127.221 28.7654 126.824 28.7219C126.426 28.6783 126.023 28.7398 125.658 28.9001C125.372 29.0544 125.136 29.2829 124.974 29.5603C124.813 29.8376 124.732 30.1533 124.741 30.4725C124.746 30.7325 124.805 30.9887 124.914 31.226C125.022 31.4632 125.179 31.6765 125.373 31.8532C125.721 32.1626 126.119 32.2988 126.334 32.4722C126.549 32.6455 126.568 32.9056 126.391 33.2647C126.123 33.772 125.722 34.1995 125.228 34.5028C124.532 34.9223 123.743 35.1729 122.927 35.2333C122.079 35.2827 121.23 35.1363 120.45 34.8061C119.766 34.5179 119.163 34.0719 118.693 33.5061C118.273 32.9914 117.977 32.3903 117.827 31.7478C117.671 31.1223 117.632 30.474 117.713 29.8349C117.787 29.2539 117.981 28.6937 118.282 28.1881C118.562 27.6999 118.923 27.2605 119.35 26.8879C119.455 26.7855 119.583 26.7082 119.723 26.662C119.863 26.6158 120.012 26.602 120.159 26.6217C120.368 26.6217 120.519 26.7518 120.709 27.0738C120.897 27.5229 121.207 27.9127 121.606 28.2004C121.885 28.3327 122.189 28.4055 122.499 28.414C122.808 28.4226 123.116 28.3666 123.401 28.2499C123.669 28.1491 123.905 27.982 124.087 27.7649C124.268 27.5478 124.389 27.2884 124.438 27.0118C124.484 26.7 124.461 26.382 124.371 26.0798C124.28 25.7774 124.124 25.4978 123.913 25.2597C123.673 25.0214 123.383 24.8355 123.064 24.7139C122.745 24.5923 122.404 24.5378 122.062 24.554C121.219 24.5866 120.394 24.8023 119.647 25.1855C118.794 25.5879 117.915 26.1451 116.986 26.5165C116.115 26.88 115.178 27.0654 114.231 27.0614C113.417 27.0559 112.621 26.831 111.93 26.4113C111.185 25.9476 110.549 25.3334 110.066 24.6097C109.527 23.8132 109.134 22.9314 108.903 22.0033C108.727 21.1896 108.648 20.3585 108.669 19.527V9.91245C108.931 9.81786 109.168 9.66777 109.364 9.4729C109.668 9.18155 109.864 8.79846 109.919 8.38523C109.974 7.97201 109.885 7.55266 109.667 7.19464C109.817 7.0911 109.956 6.9751 110.085 6.84794C110.363 6.57749 110.583 6.25582 110.734 5.90147C110.885 5.54712 110.962 5.16709 110.962 4.78327C110.962 4.39945 110.885 4.01941 110.734 3.66506C110.583 3.31071 110.363 2.98904 110.085 2.7186C109.572 2.21586 108.889 1.91438 108.165 1.87103C107.44 1.82769 106.725 2.0455 106.153 2.48334C106.157 2.46073 106.157 2.43783 106.153 2.41524C106.136 2.16878 106.2 1.92338 106.337 1.71566C106.437 1.60108 106.56 1.50748 106.697 1.44047C106.835 1.37345 106.986 1.33439 107.139 1.32563C107.502 1.30931 107.863 1.38389 108.189 1.54232C108.428 1.70103 108.677 1.84573 108.934 1.97568C109.175 2.05062 109.433 2.05062 109.674 1.97568C109.857 1.91376 109.927 1.8209 109.889 1.67852C109.834 1.51766 109.748 1.36852 109.636 1.23896C109.586 1.1744 109.527 1.11797 109.459 1.0718C109.618 1.11726 109.771 1.18172 109.914 1.26372C110.072 1.36277 110.224 1.50516 110.363 1.59185C110.416 1.63142 110.478 1.65958 110.543 1.67451C110.608 1.68943 110.676 1.6908 110.742 1.67852C110.812 1.66428 110.876 1.63033 110.927 1.58084C110.977 1.53135 111.012 1.46845 111.026 1.39992C111.03 1.27687 111.007 1.15443 110.958 1.04111C110.909 0.927785 110.835 0.826293 110.742 0.743682C110.455 0.481976 110.108 0.290985 109.731 0.186498C109.352 0.0808353 108.961 0.0205497 108.568 0.006961C108.34 9.02579e-05 108.111 0.0125183 107.885 0.0441066C107.614 0.0163059 107.342 0.00390327 107.07 0.006961C106.538 -0.0109088 106.006 0.00563638 105.477 0.0564884C104.877 0.10447 104.292 0.261954 103.752 0.520808C103.179 0.821785 102.665 1.22007 102.235 1.69709C101.843 2.1173 101.488 2.56874 101.173 3.04671C100.933 3.39959 100.826 3.5977 100.617 3.85772C100.311 4.24176 99.9835 4.60962 99.6373 4.95971C99.1009 5.53153 98.5198 6.06144 97.8992 6.54459C97.1799 7.04652 96.433 7.50947 95.6618 7.93136C94.8213 8.42043 93.8669 9.01476 93.0389 9.53481C92.3947 10.006 91.6719 10.3642 90.9027 10.5935C90.3546 10.6158 89.8073 10.5338 89.291 10.352C88.6927 10.2276 88.0707 10.2705 87.496 10.4758C86.8847 10.7253 86.3381 11.1062 85.897 11.5902C85.4419 12.0546 85.1007 12.5622 84.633 13.0389C84.1334 13.5625 83.583 14.0372 82.9898 14.4566C82.2692 14.9767 81.3717 15.5648 80.6323 16.0229C80.0262 16.4168 79.3926 16.7684 78.7362 17.0754C78.185 17.3308 77.6119 17.5379 77.0234 17.6944C76.5304 17.8244 76.1638 17.8617 76.0691 17.9854C75.9742 18.1092 76.1449 18.3383 76.2777 18.685C76.4256 19.1094 76.4983 19.5553 76.4925 20.0037C76.492 20.4896 76.4218 20.9731 76.2839 21.44C76.1774 21.7823 76.0333 22.1124 75.8542 22.4243C75.8516 21.9646 75.8029 21.5065 75.7089 21.0561C75.6113 20.5054 75.4121 19.9768 75.1211 19.496C75.0086 19.2957 74.8552 19.1201 74.6703 18.9806C74.4854 18.841 74.2731 18.7404 74.0466 18.685C73.6086 18.6204 73.1614 18.708 72.7825 18.9326C72.4336 19.1613 72.1188 19.4364 71.8471 19.7498C71.5852 20.0484 71.2758 20.3034 70.9306 20.5052C70.609 20.6392 70.2714 20.7329 69.9258 20.7838C69.6413 20.8456 69.4517 20.9137 69.3506 21.1304C69.2627 21.4883 69.2057 21.8528 69.18 22.22C69.0743 22.8344 68.9027 23.4362 68.6681 24.0154C68.3679 24.7551 68.0065 25.4694 67.5872 26.1513C67.2138 26.7449 66.8067 27.3175 66.3675 27.8661C66.5887 27.2471 66.8036 26.628 66.9995 25.8912C67.1999 25.1304 67.3582 24.3595 67.4735 23.582C67.5841 23.0364 67.5841 22.4748 67.4735 21.9291C67.385 21.5947 67.1133 21.5885 66.8542 21.6752Z" fill="white"/>
<path fill-rule="evenodd" clip-rule="evenodd" d="M153.361 62.2461C153.348 62.1534 153.356 62.059 153.385 61.97C153.414 61.8809 153.463 61.7994 153.528 61.7313C153.736 61.5971 153.984 61.5357 154.232 61.5568C154.559 61.5333 154.888 61.5825 155.195 61.7009C155.501 61.8192 155.777 62.0036 156.003 62.2408C156.229 62.4781 156.398 62.7621 156.499 63.0724C156.601 63.3827 156.631 63.7115 156.589 64.0348C156.589 66.2861 155.129 66.731 154.416 66.731C154.064 66.7276 153.715 66.6747 153.378 66.574L153.361 62.2461ZM149.445 60.8937V61.487C150.748 61.6092 150.941 61.7051 150.941 63.1361V69.5059C150.941 70.9455 150.748 71.0328 149.331 71.1636V71.757H155.155V71.1899C153.536 71.059 153.395 70.9717 153.395 69.532V67.2284L154.706 67.5164C154.97 67.5318 155.234 67.5318 155.498 67.5164C157.407 67.2982 159.246 66.2948 159.246 64.0262C159.251 63.5358 159.127 63.0527 158.884 62.6253C158.642 62.1979 158.29 61.8415 157.865 61.5917C156.873 61.0758 155.753 60.8489 154.636 60.9373L149.445 60.8937ZM148.566 60.8937H143.877V61.487C145.144 61.5568 145.584 61.9146 145.636 62.4905C145.787 63.2399 145.852 64.0039 145.83 64.7679V66.5129C145.83 69.3226 144.88 70.8757 142.575 70.8757C140.534 70.8757 139.504 69.3226 139.504 66.8009V63.3368C139.504 61.7139 139.707 61.5917 141.097 61.4957V60.8937H135.476V61.487C136.875 61.6092 137.077 61.7051 137.077 63.3281V67.1761C137.077 69.1306 137.605 70.4046 138.678 71.1636C139.668 71.7746 140.82 72.0785 141.985 72.0362C143.247 72.0622 144.475 71.6274 145.435 70.8146C146.507 69.8025 146.816 68.4152 146.816 66.6002V64.7679C146.795 64.0112 146.847 63.2544 146.974 62.5078C147.079 61.9146 147.545 61.5481 148.566 61.487V60.8937ZM127.699 61.3648C129.934 61.3648 131.561 63.3281 131.561 66.6613C131.561 69.7414 129.995 71.2859 128.174 71.2859C125.693 71.2859 124.172 68.8863 124.172 66.0505C124.172 63.2146 125.772 61.3823 127.69 61.3823L127.699 61.3648ZM128.042 60.6406C123.732 60.6406 121.338 63.4154 121.338 66.3297C121.338 69.5407 123.978 72.0188 127.813 72.0188C131.403 72.0188 134.394 69.8113 134.394 66.1901C134.394 62.9005 131.5 60.6406 128.06 60.6406H128.042ZM113.219 66.4344V62.3508C113.219 62.028 113.219 61.836 113.386 61.74C113.651 61.584 113.96 61.5195 114.265 61.5568C114.579 61.5504 114.89 61.6111 115.176 61.7348C115.464 61.8584 115.72 62.0421 115.929 62.2733C116.138 62.5045 116.294 62.7776 116.387 63.0741C116.479 63.3706 116.506 63.6834 116.465 63.9912C116.491 64.3699 116.424 64.7491 116.272 65.0969C116.118 65.4447 115.883 65.7509 115.586 65.9894C115.022 66.334 114.363 66.49 113.703 66.4344H113.219ZM120.794 71.3469C120.369 71.2177 119.986 70.9799 119.684 70.6576C119.161 70.0891 118.684 69.4791 118.259 68.8339C117.697 68.0661 117.011 66.9579 116.738 66.4693C117.97 66.033 119.052 65.2303 119.052 63.7469C119.06 63.3016 118.951 62.8619 118.735 62.4715C118.519 62.0811 118.203 61.7537 117.82 61.5219C116.777 60.9987 115.605 60.7808 114.442 60.8937H109.278V61.487C110.632 61.5917 110.817 61.7837 110.817 63.1186V69.5059C110.817 70.8757 110.58 71.0241 109.199 71.1636V71.757H114.811V71.1899C113.404 71.0502 113.219 70.9019 113.219 69.532V67.0976H113.58C113.835 67.0792 114.091 67.1355 114.314 67.2597C114.537 67.3838 114.719 67.5701 114.837 67.7956C115.383 68.6682 115.875 69.5407 116.351 70.2562C117.099 71.312 117.82 71.7919 120.186 71.8879H120.679L120.794 71.3469ZM108.073 66.5828H102.46V67.1587C104.44 67.3332 104.553 67.4553 104.553 68.6769V70.1603C104.574 70.3431 104.543 70.528 104.464 70.6944C104.384 70.8608 104.261 71.002 104.105 71.1026C103.755 71.2508 103.377 71.3222 102.997 71.312C99.7598 71.312 98.3514 68.6246 98.3514 66.1465C98.3514 63.1623 100.348 61.3648 102.662 61.3648C104.501 61.3648 105.97 62.185 106.383 64.0698L107.061 63.9302C106.929 62.569 106.832 61.6964 106.779 61.1205C105.555 60.8411 104.306 60.6804 103.049 60.6406C99.0467 60.6406 95.5452 62.6387 95.5452 66.4344C95.5452 69.8199 98.4309 72.0188 102.812 72.0188C104.271 71.9471 105.721 71.7366 107.14 71.3905C107.036 70.8738 106.995 70.3465 107.017 69.8199V68.5722C107.017 67.4466 107.14 67.3593 108.073 67.1848V66.5828ZM89.8628 71.757V71.1899C89.3589 71.2084 88.8602 71.0887 88.4211 70.8439C87.9809 70.5991 87.6191 70.2387 87.3724 69.8025C86.2735 68.2843 85.3232 66.9405 84.2327 65.4397C85.112 64.3577 85.9912 63.363 86.6071 62.6998C86.9145 62.3476 87.2919 62.0631 87.7164 61.8647C88.1398 61.6663 88.6019 61.5584 89.0703 61.5481V60.8937H84.584V61.487C85.7633 61.7051 85.8072 61.8797 85.4643 62.4642C84.9677 63.2915 84.4 64.0739 83.7664 64.8028C82.9739 63.6684 82.3675 62.822 82.0862 62.3247C81.8039 61.8273 81.7694 61.7313 82.816 61.4521V60.8937H77.1503V61.487C77.6072 61.4694 78.0599 61.5695 78.4656 61.7775C78.8712 61.9855 79.2152 62.2943 79.464 62.6737C80.4845 64.0698 81.2853 65.2303 82.1918 66.5479C81.0825 67.9701 79.7725 69.4622 79.0688 70.2388C78.4666 70.8178 77.671 71.1564 76.8335 71.1899V71.7832H81.531V71.1899C80.2555 70.9805 80.0893 70.867 80.5723 70.1079C81.0564 69.3487 81.7339 68.3628 82.6665 67.2023C84.056 69.2964 84.4962 69.9159 84.6718 70.2039C84.998 70.7187 85.1297 70.9717 83.7925 71.1899V71.7832L89.8628 71.757ZM75.8402 68.8078C75.5862 69.4208 75.2255 69.9848 74.7749 70.4743C74.181 70.9095 73.4397 71.0974 72.7079 70.9979C72.137 71.0332 71.5641 70.9802 71.0099 70.8408C70.6231 70.6925 70.5614 70.2562 70.5614 69.4622V66.6264H71.8286C73.3937 66.6264 73.6582 66.6962 73.8956 67.8916H74.5647V64.5061H73.8956C73.6582 65.6666 73.3937 65.7712 71.8286 65.7712H70.5792V62.22C70.5792 61.6702 70.6315 61.6353 71.3529 61.6353H72.2949C72.9295 61.5521 73.5735 61.701 74.1068 62.0542C74.4926 62.4649 74.7602 62.9713 74.8805 63.52L75.5496 63.4415C75.4795 62.3508 75.3907 61.1903 75.3739 60.8937H66.5759V61.487C67.9131 61.5917 68.0898 61.6702 68.0898 63.1536V69.5059C68.0898 70.9455 67.9131 71.0328 66.3302 71.1636V71.757H75.8402C75.9898 71.2509 76.3766 69.7065 76.5 68.9473L75.8402 68.8078ZM65.0985 68.6943C64.8549 69.3343 64.4974 69.9254 64.0426 70.4394C63.502 70.8678 62.813 71.0683 62.1251 70.9979C61.6493 71.0244 61.1726 70.9832 60.7084 70.8757C60.3215 70.7274 60.2598 70.4394 60.2598 69.6541V63.1361C60.2598 61.7051 60.4355 61.6092 61.8616 61.487V60.8937H56.1865V61.487C57.6293 61.6092 57.8321 61.7051 57.8321 63.1361V69.4884C57.8321 70.9455 57.6293 71.0328 55.9753 71.1636V71.757H65.0985C65.2303 71.2859 65.6349 69.6018 65.776 68.8776L65.0985 68.6943ZM43.1059 61.3648C45.3402 61.3648 46.967 63.3281 46.967 66.6613C46.967 69.7414 45.4019 71.2859 43.5722 71.2859C41.0996 71.2859 39.5689 68.8863 39.5689 66.0505C39.5689 63.2146 41.1707 61.3823 43.0881 61.3823L43.1059 61.3648ZM43.4489 60.6406C39.1287 60.6406 36.7449 63.4154 36.7449 66.3297C36.7449 69.5407 39.3839 72.0188 43.2115 72.0188C46.8092 72.0188 49.791 69.8113 49.791 66.1901C49.791 62.9005 46.9064 60.6406 43.4666 60.6406H43.4489ZM28.6076 66.4344V62.3508C28.6076 62.028 28.6076 61.836 28.7666 61.74C29.0321 61.5876 29.3405 61.5234 29.6458 61.5568C29.9585 61.5504 30.269 61.6111 30.5565 61.7348C30.843 61.8584 31.1002 62.0421 31.3093 62.2733C31.5173 62.5045 31.6742 62.7776 31.7662 63.0741C31.8592 63.3706 31.8854 63.6834 31.8456 63.9912C31.8728 64.37 31.8069 64.7498 31.6532 65.0978C31.5006 65.4458 31.2643 65.7518 30.9653 65.9894C30.4059 66.3351 29.7483 66.4912 29.0917 66.4344H28.6076ZM36.1825 71.3469C35.758 71.2177 35.3753 70.9799 35.0742 70.6576C34.5494 70.0875 34.0695 69.4777 33.6398 68.8339C33.0856 68.0661 32.3998 66.9579 32.1269 66.4693C33.3585 66.033 34.4406 65.2303 34.4406 63.7469C34.449 63.3016 34.3403 62.8619 34.1238 62.4715C33.9074 62.0811 33.5927 61.7537 33.209 61.5219C32.1656 60.9987 30.9935 60.7808 29.8309 60.8937H24.6315V61.487C25.9771 61.5917 26.1705 61.7837 26.1705 63.1186V69.5059C26.1705 70.8757 25.9332 71.0241 24.5521 71.1636V71.757H30.1561V71.1899C28.7572 71.0502 28.5731 70.9019 28.5731 69.532V67.0976H28.9338C29.1879 67.0787 29.442 67.1349 29.6647 67.2591C29.8863 67.3833 30.0672 67.57 30.1822 67.7956C30.7363 68.6682 31.2204 69.5407 31.7045 70.2562C32.452 71.312 33.1734 71.7919 35.5311 71.8879H36.0329L36.1825 71.3469ZM23.0747 68.8078C22.8123 69.4202 22.4464 69.9839 21.9926 70.4743C21.3987 70.9095 20.6564 71.0974 19.9246 70.9979C19.3547 71.0332 18.7818 70.9802 18.2277 70.8408C17.8398 70.6925 17.7781 70.2562 17.7781 69.4622V66.6264H19.0453C20.6115 66.6264 20.8749 66.6962 21.1123 67.8916H21.7814V64.5061H21.1123C20.8749 65.6666 20.6115 65.7712 19.0453 65.7712H17.8136V62.22C17.8136 61.6702 17.867 61.6353 18.5884 61.6353H19.5293C20.164 61.5521 20.8091 61.701 21.3412 62.0542C21.7249 62.4671 21.9916 62.9726 22.116 63.52L22.7841 63.4415C22.714 62.3508 22.6262 61.1903 22.6084 60.8937H13.8114V61.487C15.1486 61.5917 15.3243 61.6702 15.3243 63.1536V69.5059C15.3243 70.9455 15.1486 71.0328 13.5646 71.1636V71.757H23.0747C23.2242 71.2509 23.6027 69.7065 23.7344 68.9473L23.0747 68.8078ZM12.8965 60.8937H8.49802V61.5132C10.0548 61.6964 10.037 61.9233 9.61464 63.0838C9.10443 64.4711 8.38301 66.2162 7.26639 68.9125H7.20471C6.55335 67.4291 5.07497 64.0348 4.49471 62.6038C4.20405 61.9146 4.16955 61.7313 5.56846 61.5132V60.8937H0V61.5132C1.16053 61.6092 1.46896 61.8797 2.04086 63.1536C2.82291 64.8988 4.57416 68.8863 5.87584 71.9403H6.80845C8.26905 68.45 9.97535 64.6893 10.5734 63.4415C11.3209 61.8535 11.6649 61.6179 12.8965 61.5132V60.8937Z" fill="white"/>
<path fill-rule="evenodd" clip-rule="evenodd" d="M139.715 81.6201H139.47C139.019 81.6494 138.572 81.533 138.194 81.2886C138.059 81.1865 137.951 81.0543 137.877 80.9026C137.804 80.7509 137.768 80.5842 137.772 80.416C137.757 80.2541 137.78 80.0909 137.84 79.9395C137.899 79.788 137.994 79.6524 138.115 79.5434C138.357 79.3311 138.671 79.216 138.995 79.2205C139.225 79.2274 139.455 79.2537 139.681 79.2991L139.715 81.6201ZM135.52 84.4036H137.094L139.091 81.8644H139.715V83.4437C139.743 83.6636 139.7 83.8863 139.593 84.0807C139.525 84.1418 139.447 84.1887 139.36 84.2187C139.274 84.2488 139.182 84.2612 139.091 84.2552H138.862V84.4036H141.397V84.2552H141.168C141.067 84.2636 140.967 84.2473 140.875 84.2078C140.783 84.1681 140.701 84.1066 140.64 84.0284C140.556 83.8454 140.523 83.6437 140.542 83.4437V79.9535C140.513 79.7336 140.557 79.5101 140.666 79.3165C140.733 79.2541 140.811 79.2063 140.898 79.1762C140.985 79.1462 141.077 79.1345 141.168 79.142H141.397V78.9937H139.241C138.778 78.979 138.313 79.02 137.86 79.1159C137.567 79.1968 137.301 79.3568 137.094 79.5783C136.893 79.8006 136.783 80.0905 136.787 80.3898C136.783 80.5521 136.812 80.7135 136.874 80.8638C136.936 81.014 137.03 81.1497 137.148 81.2623C137.45 81.5441 137.835 81.7242 138.247 81.7771L137.024 83.339C136.829 83.6161 136.584 83.8556 136.303 84.0458C136.062 84.1789 135.795 84.2565 135.52 84.2727V84.4036ZM133.76 79.875C133.76 79.5522 133.698 79.3427 133.585 79.2642C133.37 79.1541 133.129 79.1085 132.889 79.1333V78.985H135.476V79.1333C135.23 79.109 134.983 79.1641 134.772 79.2904C134.637 79.4905 134.581 79.7325 134.613 79.971V83.4612C134.613 83.8189 134.667 84.0458 134.772 84.133C134.981 84.2636 135.229 84.3218 135.476 84.2988V84.4472H132.915V84.2988C133.165 84.3225 133.415 84.2642 133.628 84.133C133.762 83.9359 133.819 83.6968 133.786 83.4612V80.3461L131.042 83.5659C131.041 83.7244 131.059 83.8826 131.095 84.037C131.115 84.0806 131.144 84.1195 131.181 84.1511C131.217 84.1827 131.259 84.2062 131.306 84.2203C131.5 84.2761 131.702 84.3026 131.904 84.2988V84.4472H129.318V84.2988C129.564 84.32 129.811 84.2618 130.021 84.133C130.127 84.0458 130.171 83.8189 130.171 83.4612V79.971C130.171 79.6132 130.127 79.3863 130.021 79.2904C129.81 79.1652 129.563 79.1102 129.318 79.1333V78.985H131.869V79.1333C131.623 79.109 131.376 79.1641 131.165 79.2904C131.03 79.4905 130.974 79.7325 131.007 79.971V83.0947L133.76 79.875ZM124.559 81.498H127.303V79.9447C127.315 79.7599 127.297 79.5745 127.251 79.3951C127.211 79.3193 127.145 79.2603 127.066 79.2293C126.944 79.1628 126.808 79.1297 126.669 79.1333H126.458V78.985H128.983V79.1333H128.772C128.638 79.1328 128.505 79.1626 128.385 79.2205C128.341 79.2381 128.303 79.2641 128.269 79.2971C128.236 79.3301 128.209 79.3693 128.192 79.4125C128.147 79.5862 128.129 79.7658 128.139 79.9447V83.435C128.129 83.6175 128.15 83.8003 128.2 83.976C128.238 84.0522 128.299 84.1137 128.377 84.1505C128.5 84.211 128.635 84.2438 128.772 84.2465H128.983V84.3948H126.458V84.2465H126.679C126.775 84.2532 126.872 84.2397 126.963 84.2066C127.054 84.1735 127.137 84.1217 127.207 84.0545C127.298 83.8613 127.334 83.6472 127.312 83.435V81.7859H124.567V83.435C124.557 83.6175 124.578 83.8003 124.629 83.976C124.667 84.0546 124.733 84.1166 124.814 84.1505C124.934 84.2115 125.066 84.2444 125.2 84.2465H125.421V84.3948H122.896V84.2465H123.098C123.196 84.254 123.294 84.2407 123.388 84.2077C123.48 84.1745 123.564 84.1223 123.634 84.0545C123.717 83.8589 123.75 83.6462 123.732 83.435V79.9447C123.742 79.7599 123.724 79.5745 123.679 79.3951C123.642 79.3213 123.579 79.2627 123.503 79.2293C123.378 79.1656 123.239 79.1327 123.098 79.1333H122.896V78.985H125.421V79.1333H125.2C125.067 79.1328 124.934 79.1626 124.814 79.2205C124.771 79.2367 124.731 79.2623 124.699 79.2956C124.667 79.3288 124.643 79.3688 124.629 79.4125C124.579 79.5855 124.559 79.7652 124.567 79.9447L124.559 81.498ZM120.248 82.2919L119.245 80.1018L118.215 82.2919H120.248ZM120.371 82.5887H118.084L117.688 83.4612C117.605 83.6056 117.553 83.7665 117.539 83.9324C117.54 83.9759 117.551 84.0184 117.573 84.0564C117.594 84.0943 117.625 84.1266 117.661 84.1505C117.834 84.2341 118.024 84.2759 118.215 84.2727V84.4211H116.36V84.2727C116.529 84.2614 116.692 84.2073 116.834 84.1157C117.05 83.8917 117.217 83.6277 117.328 83.339L119.412 78.8715H119.562L121.611 83.3826C121.709 83.6489 121.865 83.8905 122.069 84.0894C122.233 84.2059 122.43 84.2698 122.632 84.2727V84.4211H120.301V84.2727C120.466 84.2801 120.632 84.2408 120.776 84.1593C120.812 84.1354 120.843 84.1031 120.865 84.0652C120.886 84.0271 120.897 83.9847 120.899 83.9411C120.878 83.7451 120.819 83.5552 120.722 83.3826L120.371 82.5887ZM114.442 79.2817H111.724V83.4176C111.724 83.7753 111.724 84.0022 111.873 84.0894C112.08 84.2186 112.324 84.277 112.568 84.2552V84.4036H109.964V84.2552C110.211 84.2782 110.458 84.22 110.668 84.0894C110.773 84.0022 110.827 83.7753 110.827 83.4176V79.9273C110.859 79.6889 110.803 79.4469 110.668 79.2468C110.456 79.1205 110.21 79.0654 109.964 79.0897V78.9414H116.122V79.0897C115.876 79.0666 115.63 79.1216 115.419 79.2468C115.292 79.45 115.239 79.6902 115.269 79.9273V83.4176C115.237 83.6521 115.289 83.8902 115.419 84.0894C115.629 84.2182 115.875 84.2764 116.122 84.2552V84.4036H113.579V84.2552C113.825 84.2737 114.07 84.2191 114.283 84.0982C114.41 83.8948 114.463 83.6547 114.433 83.4176L114.442 79.2817ZM105.566 84.4036L103.287 79.8401V83.4612C103.259 83.6773 103.299 83.8967 103.401 84.0894C103.47 84.1501 103.552 84.1961 103.64 84.2246C103.726 84.2531 103.819 84.2635 103.911 84.2552H104.123V84.4036H102.046V84.2552H102.257C102.356 84.265 102.455 84.2509 102.547 84.2146C102.639 84.1781 102.721 84.1203 102.785 84.0458C102.868 83.8625 102.902 83.6611 102.883 83.4612V79.9186C102.895 79.7424 102.865 79.5658 102.794 79.4038C102.746 79.3168 102.667 79.2491 102.574 79.2118C102.407 79.1453 102.226 79.1185 102.046 79.1333V78.985H103.718L105.865 83.2256L107.967 78.985H109.639V79.1333H109.436C109.337 79.1229 109.235 79.1365 109.142 79.1729C109.048 79.2093 108.966 79.2676 108.9 79.3427C108.816 79.5228 108.783 79.7215 108.802 79.9186V83.4612C108.776 83.6782 108.819 83.8981 108.926 84.0894C108.995 84.1501 109.076 84.1961 109.164 84.2246C109.252 84.2531 109.344 84.2635 109.436 84.2552H109.639V84.4036H107.148V84.2552H107.325C107.424 84.265 107.525 84.2511 107.619 84.2146C107.712 84.1782 107.796 84.1204 107.861 84.0458C107.94 83.8614 107.97 83.6603 107.949 83.4612V79.8401L105.671 84.4036H105.566ZM98.6598 79.1682C98.4194 79.157 98.1799 79.2 97.9593 79.2937C97.7387 79.3874 97.5422 79.5294 97.3843 79.7092C96.9494 80.269 96.7361 80.9675 96.7863 81.6725C96.7402 82.4054 96.9619 83.1303 97.4104 83.7143C97.5631 83.894 97.7544 84.037 97.9708 84.1323C98.1873 84.2275 98.4225 84.2726 98.6598 84.2639C98.9191 84.2702 99.1763 84.2194 99.4137 84.1153C99.651 84.0112 99.8622 83.8564 100.032 83.6619C100.44 83.1242 100.634 82.4564 100.577 81.7859C100.633 81.0452 100.42 80.3092 99.9793 79.7092C99.8151 79.5243 99.6113 79.3782 99.3833 79.2816C99.1554 79.1849 98.9076 79.1402 98.6598 79.1508V79.1682ZM98.7393 78.8715C99.1073 78.8674 99.4733 78.9363 99.8141 79.0742C100.156 79.212 100.467 79.416 100.727 79.6743C101.011 79.926 101.237 80.2357 101.389 80.5822C101.54 80.9286 101.614 81.3035 101.607 81.6812C101.612 82.0649 101.536 82.4454 101.386 82.7985C101.234 83.1516 101.009 83.4694 100.727 83.7316C100.455 83.9952 100.133 84.2025 99.7796 84.3418C99.4262 84.4811 99.0488 84.5495 98.6682 84.5432C98.2908 84.5536 97.9144 84.4887 97.562 84.3524C97.2107 84.2159 96.8898 84.0108 96.619 83.7491C96.344 83.482 96.1286 83.1608 95.9864 82.8061C95.8432 82.4516 95.7773 82.0713 95.792 81.6899C95.7773 81.2886 95.8568 80.8894 96.023 80.5232C96.1893 80.157 96.4381 79.8337 96.7507 79.5783C97.2996 79.1009 98.0085 78.8428 98.7393 78.8541V78.8715ZM95.6686 84.2727V84.4211H94.1296C93.9623 84.1767 93.6099 83.723 93.082 83.0511C92.7955 82.6472 92.4714 82.2704 92.1149 81.9255C91.9507 81.8464 91.7688 81.8076 91.5869 81.8121V83.435C91.5545 83.6695 91.6078 83.9077 91.7364 84.1069C91.9465 84.2375 92.1933 84.2957 92.44 84.2727V84.4211H89.8973V84.2727C90.1399 84.2915 90.3824 84.2367 90.5926 84.1157C90.7274 83.9155 90.7839 83.6734 90.7515 83.435V79.9447C90.7808 79.7076 90.7285 79.4675 90.6009 79.2642C90.3887 79.1402 90.143 79.0852 89.8973 79.1071V78.9588H92.44V79.1071C92.1943 79.0828 91.9476 79.1379 91.7364 79.2642C91.6099 79.4675 91.5565 79.7076 91.5869 79.9447V81.4543C91.8085 81.4615 92.0302 81.441 92.2466 81.3932C92.3982 81.3424 92.5362 81.259 92.6512 81.1489C92.7997 81.0366 92.9251 80.8974 93.0203 80.7388C93.1092 80.5905 93.2137 80.3461 93.3643 80.0058C93.4469 79.775 93.5535 79.5528 93.68 79.3427C93.7804 79.2035 93.9173 79.0946 94.0763 79.0286C94.2801 78.9335 94.5028 78.8857 94.7276 78.889C95.1761 78.889 95.4051 79.0373 95.4051 79.3253C95.402 79.3763 95.3873 79.4262 95.3633 79.4713C95.3382 79.5165 95.3047 79.5559 95.264 79.5871C95.2242 79.6247 95.1772 79.6542 95.126 79.6736C95.0747 79.6931 95.0193 79.7022 94.965 79.7004C94.8207 79.6816 94.6806 79.6373 94.5509 79.5696C94.4453 79.5111 94.3282 79.4726 94.208 79.4562C94.1599 79.4571 94.1118 79.4696 94.0689 79.4922C94.0261 79.515 93.9895 79.5474 93.9623 79.5871C93.8358 79.8039 93.7302 80.0317 93.6455 80.2676C93.4772 80.8233 93.0945 81.2906 92.5812 81.5677C92.8446 81.5677 93.2053 81.943 93.6716 82.5624C94.0041 83.0284 94.3721 83.4689 94.7715 83.88C94.8876 83.9998 95.0266 84.0949 95.1814 84.1594C95.3351 84.2239 95.5013 84.2565 95.6686 84.2552V84.2727ZM85.6922 81.655H85.4465C84.999 81.6862 84.5536 81.5696 84.1793 81.3234C84.0424 81.2233 83.9305 81.0917 83.8563 80.9398C83.781 80.7878 83.7444 80.62 83.7486 80.4509C83.736 80.2892 83.7601 80.1269 83.8197 79.9758C83.8793 79.8248 83.9723 79.689 84.0915 79.5783C84.3351 79.3674 84.6477 79.2526 84.9708 79.2554C85.2018 79.2619 85.4319 79.2882 85.6577 79.334L85.6922 81.655ZM81.5049 84.4384H83.0794L85.0764 81.8994H85.6922V83.4786C85.6922 83.8189 85.6922 84.0284 85.5699 84.1157C85.504 84.1773 85.4266 84.2248 85.3419 84.2549C85.2573 84.2849 85.1663 84.2969 85.0764 84.2902H84.8485V84.4384H87.3734V84.2902H87.1528C87.0514 84.2985 86.95 84.2822 86.8559 84.2427C86.7628 84.2031 86.6802 84.1415 86.6164 84.0633C86.537 83.8791 86.5067 83.6778 86.5286 83.4786V79.9884C86.5286 79.6393 86.5286 79.4299 86.652 79.3514C86.7168 79.2875 86.7963 79.2388 86.883 79.2087C86.9688 79.1785 87.0618 79.1676 87.1528 79.1769H87.3734V79.0286H85.2175C84.7544 79.0143 84.2901 79.0553 83.8364 79.1508C83.5457 79.2319 83.2833 79.3921 83.0794 79.6132C82.8745 79.8336 82.7637 80.1248 82.7721 80.4246C82.7679 80.5862 82.7971 80.7468 82.8578 80.8967C82.9184 81.0466 83.0083 81.183 83.1233 81.2972C83.4286 81.5771 83.8123 81.7568 84.2232 81.8121L83.001 83.374C82.8107 83.6527 82.5692 83.8926 82.288 84.0807C82.0465 84.2111 81.7798 84.2885 81.5049 84.3076V84.4384ZM79.0949 82.3269L78.0923 80.1367L77.0719 82.3269H79.0949ZM79.2183 82.6235H76.9307L76.5345 83.4961C76.455 83.6423 76.4048 83.8023 76.3849 83.9673C76.387 84.0117 76.3996 84.0551 76.4226 84.0933C76.4456 84.1314 76.478 84.1632 76.5177 84.1854C76.6892 84.2703 76.8795 84.3122 77.0719 84.3076V84.4559H75.215V84.3076C75.3844 84.2944 75.5475 84.2405 75.6907 84.1505C75.905 83.9266 76.0723 83.6626 76.1832 83.374L78.2941 78.8541H78.4436L80.5022 83.3652C80.5974 83.6306 80.751 83.8719 80.9507 84.072C81.1159 84.1884 81.3115 84.2523 81.5143 84.2552V84.4036H79.1744V84.2552C79.3427 84.2611 79.51 84.2219 79.6574 84.1418C79.694 84.118 79.7243 84.0856 79.7463 84.0477C79.7683 84.0097 79.7798 83.9672 79.7808 83.9236C79.7568 83.7286 79.6972 83.5395 79.6052 83.3652L79.2183 82.6235ZM75.1094 84.2902V84.4384H73.5882C73.4209 84.1942 73.078 83.7404 72.5406 83.0686C72.2541 82.6647 71.93 82.2879 71.5734 81.943C71.4093 81.8629 71.2284 81.824 71.0454 81.8295V83.4525C71.013 83.6869 71.0664 83.9252 71.195 84.1243C71.4051 84.2548 71.6518 84.3132 71.8986 84.2902V84.4384H69.3559V84.2902C69.5984 84.309 69.841 84.2542 70.0511 84.133C70.186 83.933 70.2425 83.6909 70.2101 83.4525V79.9622C70.2394 79.7251 70.1871 79.4849 70.0606 79.2817C69.8483 79.1565 69.6016 79.1015 69.3559 79.1245V78.9763H71.8986V79.1245C71.6529 79.1003 71.4062 79.1554 71.195 79.2817C71.0685 79.4849 71.0151 79.7251 71.0454 79.9622V81.4717C71.2671 81.4789 71.4887 81.4585 71.7052 81.4107C71.8568 81.3599 71.9948 81.2764 72.1098 81.1663C72.2583 81.054 72.3837 80.9149 72.4789 80.7563C72.6096 80.5206 72.7214 80.2757 72.8134 80.0233C72.9023 79.7934 73.011 79.5715 73.1386 79.3602C73.239 79.2209 73.3759 79.1121 73.5348 79.046C73.7387 78.9521 73.9614 78.9044 74.1862 78.9064C74.6347 78.9064 74.8637 79.0548 74.8637 79.3427C74.8616 79.3932 74.8491 79.4428 74.8261 79.488C74.8031 79.5331 74.7706 79.573 74.7309 79.6044C74.6462 79.678 74.5365 79.7184 74.4235 79.7179C74.2793 79.699 74.1392 79.6547 74.0095 79.5871C73.9039 79.5274 73.7879 79.4888 73.6666 79.4736C73.6185 79.4746 73.5704 79.487 73.5275 79.5097C73.4847 79.5325 73.4481 79.5649 73.4209 79.6044C73.2986 79.8233 73.1919 80.0508 73.1041 80.2851C72.9357 80.8408 72.5531 81.3081 72.0397 81.5852C72.3032 81.5852 72.6733 81.9604 73.1302 82.5799C73.4627 83.0459 73.8307 83.4864 74.2301 83.8975C74.3462 84.0115 74.4831 84.1019 74.6337 84.1632C74.7853 84.2246 74.9463 84.2559 75.1094 84.2552V84.2902ZM68.6177 78.8541L68.7495 80.6952H68.6177C68.4902 80.2314 68.2236 79.8174 67.8524 79.5084C67.5011 79.2593 67.0777 79.1306 66.6469 79.142C66.2726 79.1379 65.9056 79.2344 65.5826 79.4213C65.2459 79.6263 64.9845 79.9318 64.835 80.2938C64.6447 80.7681 64.5548 81.2759 64.5705 81.7859C64.5569 82.2242 64.6447 82.6599 64.8256 83.0598C64.9772 83.4263 65.2459 83.7331 65.591 83.9324C65.9517 84.1284 66.3584 84.2276 66.7703 84.2203C67.1205 84.2268 67.4677 84.149 67.7813 83.9934C68.1619 83.7719 68.4912 83.4749 68.7495 83.1208L68.8896 83.1995C68.6407 83.6336 68.2832 83.9971 67.8524 84.2552C67.4217 84.4908 66.9355 84.6083 66.4441 84.5956C66.0144 84.6034 65.5889 84.5102 65.202 84.3237C64.8152 84.1372 64.4785 83.8625 64.2192 83.5222C63.8125 83.0318 63.6003 82.4116 63.6201 81.7771C63.6118 81.2531 63.7487 80.7369 64.0164 80.2851C64.2725 79.8409 64.6468 79.4756 65.0985 79.2293C65.5669 78.981 66.0897 78.8521 66.6208 78.8541C67.0557 78.8557 67.4865 78.9542 67.8785 79.142C67.9591 79.1887 68.049 79.2184 68.142 79.2293C68.2194 79.233 68.2947 79.2081 68.3532 79.1595C68.4316 79.073 68.487 78.9678 68.5121 78.8541H68.6177ZM59.6701 79.2817V81.4194H60.9635C61.1987 81.4452 61.436 81.3962 61.641 81.2798C61.7256 81.1952 61.7926 81.0942 61.8365 80.9832C61.8804 80.8721 61.9003 80.7534 61.8961 80.6341H62.055V82.5188H61.8961C61.8752 82.346 61.8333 82.1762 61.7727 82.0128C61.7131 81.912 61.62 81.8348 61.5092 81.7946C61.3357 81.7289 61.1496 81.6992 60.9635 81.7074H59.6701V83.4525C59.6545 83.6004 59.6545 83.7495 59.6701 83.8975C59.7025 83.9464 59.7444 83.988 59.7935 84.0196C59.9043 84.0394 60.0173 84.0394 60.1281 84.0196H61.1307C61.3733 84.0253 61.6148 84.0048 61.8522 83.9585C62.0163 83.9085 62.1669 83.822 62.2923 83.7055C62.5108 83.4817 62.6969 83.2292 62.8465 82.9551H63.0137L62.5119 84.3163H57.9816V84.1679H58.1928C58.3308 84.1671 58.4657 84.1343 58.5891 84.072C58.633 84.0559 58.6738 84.0303 58.7062 83.9972C58.7396 83.9641 58.7658 83.924 58.7825 83.88C58.8285 83.7096 58.8463 83.5327 58.8348 83.3565V79.8662C58.8609 79.6474 58.8212 79.426 58.7208 79.2293C58.5723 79.1105 58.3831 79.0542 58.1928 79.0723H57.9816V78.9239H62.538L62.5997 80.1018H62.4596C62.4272 79.8965 62.3592 79.6986 62.2568 79.5172C62.1721 79.4067 62.056 79.3245 61.9222 79.2817C61.7246 79.229 61.5197 79.2084 61.3158 79.2205L59.6701 79.2817ZM55.9585 81.6201V79.9884C55.97 79.7915 55.9491 79.5941 55.8968 79.4038C55.8718 79.3539 55.8352 79.3102 55.7913 79.2755C55.7473 79.2409 55.6961 79.2161 55.6417 79.2031C55.4692 79.1463 55.2863 79.1225 55.1054 79.1333V78.985H57.6387V79.1333C57.4536 79.1228 57.2686 79.1464 57.0929 79.2031C57.0406 79.2174 56.9926 79.2427 56.9518 79.2774C56.911 79.312 56.8775 79.3552 56.8556 79.4038C56.797 79.5928 56.773 79.7909 56.7855 79.9884V83.3914C56.7678 83.5954 56.795 83.8007 56.864 83.9934C56.9173 84.0836 57.002 84.1517 57.1023 84.1854C57.2769 84.2299 57.4578 84.2534 57.6387 84.2552V84.4036H55.1054V84.2552C55.2894 84.2576 55.4734 84.2311 55.6501 84.1767C55.7515 84.1452 55.8362 84.0766 55.8874 83.9848C55.9502 83.7933 55.9742 83.5918 55.9585 83.3914V81.943C55.4034 82.1957 54.8074 82.3464 54.1989 82.3879C53.8947 82.4034 53.5915 82.3404 53.3186 82.2048C53.1419 82.1171 52.9987 81.9726 52.914 81.7946C52.8481 81.5087 52.8209 81.2152 52.8356 80.922V80.0495C52.8502 79.8525 52.8293 79.6545 52.7739 79.4648C52.7488 79.4151 52.7122 79.3713 52.6683 79.3367C52.6244 79.302 52.5731 79.2773 52.5188 79.2642C52.3462 79.2073 52.1633 79.1836 51.9824 79.1944V79.046H54.5418V79.1944C54.3516 79.184 54.1613 79.2077 53.9794 79.2642C53.9239 79.2818 53.8727 79.3112 53.8298 79.3504C53.788 79.3896 53.7546 79.4377 53.7326 79.4911C53.6876 79.6737 53.6699 79.8618 53.6793 80.0495V80.7999C53.6709 81.052 53.6939 81.3041 53.7504 81.5503C53.7901 81.6936 53.8842 81.8158 54.0139 81.8906C54.1707 81.9729 54.3474 82.0121 54.5241 82.004C55.0228 81.9711 55.51 81.8406 55.9585 81.6201ZM50.1611 79.875C50.1611 79.5522 50.0994 79.3427 49.9854 79.2642C49.7742 79.1553 49.5359 79.1098 49.2985 79.1333V78.985H51.8496V79.1333C51.605 79.1102 51.3582 79.1652 51.146 79.2904C51.0404 79.3863 50.9965 79.6132 50.9965 79.971V83.4612C50.9965 83.8189 51.0404 84.0458 51.146 84.133C51.3572 84.2618 51.6039 84.32 51.8496 84.2988V84.4472H49.264V84.2988C49.5097 84.3218 49.7575 84.2636 49.9677 84.133C50.1015 83.9359 50.158 83.6968 50.1255 83.4612V80.3461L47.3894 83.5659C47.3831 83.7242 47.3978 83.8827 47.4333 84.037C47.4772 84.1233 47.5525 84.1892 47.6445 84.2203C47.839 84.2755 48.0408 84.302 48.2436 84.2988V84.4472H45.7448V84.2988C45.9884 84.3206 46.2331 84.2623 46.4401 84.133C46.5457 84.0458 46.598 83.8189 46.598 83.4612V79.971C46.6304 79.7325 46.575 79.4905 46.4401 79.2904C46.231 79.1648 45.9874 79.1096 45.7448 79.1333V78.985H48.2875V79.1333C48.0418 79.1102 47.7951 79.1652 47.5828 79.2904C47.4783 79.3863 47.4333 79.6132 47.4333 79.971V83.0947L50.1611 79.875ZM41.9621 79.2817C41.9485 80.4015 41.8095 81.5165 41.5481 82.6061C41.3912 83.1604 41.1121 83.673 40.7305 84.1069H42.9125C43.1477 84.1328 43.3871 84.0999 43.6067 84.0109C43.6862 83.9498 43.7301 83.7491 43.7301 83.4001V79.2817H41.9621ZM40.5371 78.985H45.4102V79.1333C45.1645 79.1102 44.9188 79.1652 44.7066 79.2904C44.5801 79.4936 44.5268 79.7338 44.5571 79.971V82.9726C44.5309 83.3336 44.5665 83.6966 44.6627 84.0458C44.7422 84.1854 44.9701 84.2552 45.3663 84.2552V86.0003H45.2262C45.1604 85.6527 45.0161 85.3244 44.8038 85.0405C44.6376 84.8177 44.4076 84.6503 44.1441 84.5606C43.8597 84.4709 43.5617 84.4296 43.2638 84.4384H41.7593C41.4968 84.4144 41.2313 84.4454 40.9814 84.5296C40.7315 84.6137 40.5015 84.7492 40.3081 84.9271C40.0143 85.2183 39.8209 85.5938 39.7539 86.0003H39.5867V84.2552C39.8261 84.2308 40.0561 84.1479 40.2558 84.0138C40.4555 83.8799 40.6186 83.699 40.7305 83.4874C41.042 82.9487 41.248 82.3567 41.3369 81.7422C41.4404 81.1659 41.4958 80.5823 41.5042 79.9971C41.5177 79.7967 41.4812 79.5962 41.3986 79.4125C41.3452 79.3062 41.2543 79.2227 41.1434 79.1769C40.9385 79.132 40.7294 79.1115 40.5193 79.1159L40.5371 78.985ZM37.643 79.8575C37.643 79.5347 37.5813 79.3253 37.4663 79.2468C37.253 79.1367 37.0115 79.0912 36.7721 79.1159V78.9675H39.3316V79.1159C39.0859 79.0915 38.8391 79.1466 38.6279 79.2729C38.5223 79.3689 38.4784 79.5958 38.4784 79.9535V83.4437C38.4784 83.8015 38.4784 84.0284 38.6279 84.1157C38.8381 84.2461 39.0848 84.3044 39.3316 84.2814V84.4297H36.7721V84.2814C37.0209 84.305 37.2719 84.2468 37.4841 84.1157C37.6179 83.9185 37.6744 83.6794 37.643 83.4437V80.3287L34.8975 83.5485C34.8964 83.707 34.9142 83.8651 34.9508 84.0196C34.9937 84.1058 35.07 84.1717 35.162 84.2029C35.3565 84.2587 35.5572 84.2851 35.7601 84.2814V84.4297H33.209V84.2814C33.4557 84.3044 33.7024 84.2461 33.9126 84.1157C34.0182 84.0284 34.0621 83.8015 34.0621 83.4437V79.9535C34.0621 79.5958 34.0621 79.3689 33.9126 79.2729C33.7014 79.1466 33.4547 79.0915 33.209 79.1159V78.9675H35.7601V79.1159C35.5144 79.0915 35.2676 79.1466 35.0564 79.2729C34.9215 79.473 34.8651 79.715 34.8975 79.9535V83.0772L37.643 79.8575ZM29.9187 81.6026L30.3317 81.6637H30.6307C30.7771 81.6665 30.9224 81.6392 31.0573 81.5837C31.1911 81.5281 31.3134 81.4454 31.4138 81.3408C31.5309 81.2283 31.6208 81.0919 31.6783 80.9412C31.7358 80.7905 31.7599 80.6291 31.7484 80.4683C31.7505 80.2406 31.6961 80.0159 31.5905 79.8138C31.4912 79.6234 31.3385 79.4657 31.1503 79.3602C30.9454 79.2601 30.7196 79.2093 30.4906 79.2118C30.2982 79.2192 30.1069 79.2425 29.9187 79.2817V81.6026ZM29.9187 81.8295V83.4089C29.8915 83.6287 29.9354 83.8513 30.0421 84.0458C30.109 84.1069 30.1884 84.1539 30.2742 84.1838C30.361 84.2138 30.4519 84.2263 30.5429 84.2203H30.7896V84.3687H28.2469V84.2203H28.4675C28.5668 84.2288 28.6672 84.2125 28.7603 84.1728C28.8523 84.1332 28.9328 84.0716 28.9945 83.9934C29.0739 83.8092 29.1042 83.6079 29.0833 83.4089V79.9186C29.0833 79.5696 29.0833 79.3602 28.9683 79.2817C28.9025 79.2192 28.823 79.1714 28.7362 79.1414C28.6505 79.1113 28.5585 79.0995 28.4675 79.1071H28.2469V78.9588H30.4028C30.8273 78.9426 31.2517 78.9926 31.6605 79.1071C31.9564 79.2056 32.2209 79.3802 32.4259 79.6132C32.6402 79.8523 32.751 80.166 32.7333 80.4858C32.7416 80.6892 32.704 80.8918 32.6235 81.0789C32.543 81.2661 32.4217 81.4331 32.268 81.5677C31.8832 81.8672 31.4013 82.0161 30.913 81.9866C30.7604 81.9986 30.6077 81.9986 30.4551 81.9866L29.9187 81.8295ZM24.851 79.1159C24.5897 79.1075 24.3304 79.1619 24.0941 79.2743C23.8588 79.3866 23.6539 79.5538 23.4971 79.7616C23.1197 80.3058 22.9388 80.9611 22.9869 81.6201C22.9566 82.2764 23.1249 82.9266 23.4699 83.4874C23.6173 83.7188 23.8233 83.9076 24.0669 84.0347C24.3116 84.1619 24.5844 84.2229 24.8605 84.2116C25.1271 84.2175 25.3916 84.1632 25.6331 84.0528C25.8757 83.9425 26.09 83.779 26.2594 83.5746C26.6358 83.0364 26.8156 82.3869 26.7696 81.7335C26.8062 81.0611 26.641 80.3929 26.2939 79.8138C26.1297 79.5915 25.9112 79.4139 25.6592 79.298C25.4062 79.1819 25.1292 79.1313 24.851 79.1508V79.1159ZM21.9926 81.7335H20.7787V83.3826C20.7547 83.6063 20.8007 83.8318 20.9105 84.0284C20.9983 84.1418 21.1917 84.1942 21.4907 84.1942H21.6225V84.3424H19.0986V84.1942H19.2742C19.4133 84.2001 19.5523 84.1732 19.6788 84.1157C19.7729 84.0744 19.8482 83.9996 19.89 83.9062C19.935 83.7355 19.9528 83.5588 19.9423 83.3826V79.8925C19.9528 79.7134 19.935 79.5339 19.89 79.3602C19.8702 79.3118 19.8409 79.268 19.8022 79.2319C19.7646 79.1958 19.7196 79.1681 19.6705 79.1508C19.5304 79.0942 19.3798 79.0703 19.2303 79.0809H19.0986V78.9326H21.6225V79.0809H21.4907C21.3339 79.066 21.176 79.0932 21.0338 79.1595C20.9554 79.2042 20.8885 79.2671 20.8404 79.3427C20.7819 79.5198 20.7609 79.7069 20.7787 79.8925V81.4543H21.9926C22.0041 81.0895 22.0919 80.7311 22.2508 80.402C22.4097 80.0729 22.6366 79.7805 22.9158 79.5434C23.4762 79.058 24.1966 78.794 24.9399 78.8017C25.676 78.8016 26.3827 79.0865 26.9097 79.5957C27.1951 79.8485 27.4209 80.1596 27.5736 80.5077C27.7252 80.8556 27.7994 81.2322 27.79 81.6114C27.7932 81.9862 27.7231 82.3582 27.5809 82.7057C27.4387 83.0531 27.2286 83.3693 26.963 83.6357C26.6974 83.9173 26.3754 84.1405 26.0178 84.2909C25.6603 84.4412 25.2755 84.5153 24.8866 84.5083C24.3806 84.5159 23.8808 84.3959 23.4354 84.1593C23.0161 83.9256 22.6649 83.589 22.415 83.182C22.1473 82.7671 22.0009 82.2869 21.9926 81.7946V81.7335Z" fill="white"/>
</svg>
