<svg width="16" height="22" viewBox="0 0 16 22" fill="none" xmlns="http://www.w3.org/2000/svg">
<path d="M4.23236 16.3013C4.8688 17.1124 5.44805 17.9668 5.9659 18.8582C6.40806 19.6966 6.59238 20.2651 6.91551 21.2753C7.11368 21.8334 7.29279 22 7.67786 22C8.09747 22 8.28785 21.7166 8.43493 21.2783C8.74037 20.3243 8.98004 19.5963 9.35816 18.9083C10.1001 17.5802 11.0221 16.4 11.928 15.2657C12.1732 14.9447 13.7588 13.0744 14.4727 11.5987C14.4727 11.5987 15.35 9.97764 15.35 7.71368C15.35 5.59597 14.4848 4.12721 14.4848 4.12721L11.9937 4.79434L10.4809 8.77884L10.1066 9.32826L10.0318 9.4278L9.93223 9.5524L9.7575 9.75141L9.50782 10.001L8.16067 11.0986L4.79264 13.0432L4.23236 16.3013V16.3013Z" fill="#B63334"/>
<path d="M0.756226 11.3261C1.57824 13.2037 3.16337 14.8542 4.23584 16.3026L9.93223 9.55493C9.93223 9.55493 9.12971 10.6045 7.67397 10.6045C6.05243 10.6045 4.74246 9.30963 4.74246 7.67688C4.74246 6.55722 5.41606 5.78804 5.41606 5.78804L1.54921 6.82417L0.756226 11.3261V11.3261Z" fill="#B63334"/>
<path d="M9.99587 0.346954C11.8878 0.956941 13.5071 2.23754 14.4866 4.1259L9.93399 9.55108C9.93399 9.55108 10.6076 8.76799 10.6076 7.65528C10.6076 5.98452 9.20073 4.73636 7.68089 4.73636C6.24367 4.73636 5.41824 5.78419 5.41824 5.78419V2.36639L9.99587 0.346895V0.346954Z" fill="#B63334"/>
<path d="M1.79974 2.74413C2.92972 1.39218 4.91803 0 7.65923 0C8.98917 0 9.99112 0.349155 9.99112 0.349155L5.41391 5.78723H2.1709L1.79974 2.74419V2.74413Z" fill="#B63334"/>
<path d="M0.756233 11.3263C0.756233 11.3263 0 9.84536 0 7.69994C0 5.67223 0.788252 3.89977 1.79974 2.7442L5.41649 5.78778L0.756233 11.3263V11.3263Z" fill="#B63334"/>
</svg>
