<svg width="72" height="46" viewBox="0 0 72 46" fill="none" xmlns="http://www.w3.org/2000/svg">
<path d="M46.3497 22.2985L60.1559 14.3408L55.3573 5.73904L41.5482 13.6922L46.3497 22.2985ZM18.7944 29.6399L42.1227 16.2083L44.5212 20.5138L21.1959 33.9469L18.7944 29.6399ZM15.9624 31.2728L18.3684 35.5752L6.33826 42.4964L3.93223 38.1987L15.9624 31.2728ZM19.2024 35.5752C19.3869 35.911 19.8909 35.9907 20.3289 35.7454C20.7654 35.4939 20.9589 35.0171 20.7729 34.6767L17.9604 29.6399C17.7669 29.2979 17.2629 29.2151 16.8294 29.4697C16.3989 29.7211 16.2039 30.2087 16.3899 30.5506L19.2024 35.5752ZM1.4542 38.3336C1.91748 38.0708 2.44108 37.9395 2.97071 37.9533L6.04726 43.4609C5.79975 43.9224 5.43075 44.3257 4.94474 44.5955C3.58872 45.3806 1.8832 44.9282 1.1377 43.5958L0.348686 42.1699C-0.398323 40.8282 0.0936813 39.1186 1.4542 38.3336ZM40.2131 12.0347C40.3001 12.1925 40.4166 12.3313 40.556 12.443C40.6954 12.5548 40.855 12.6374 41.0256 12.6861C41.1962 12.7348 41.3746 12.7486 41.5505 12.7269C41.7264 12.7051 41.8963 12.6481 42.0507 12.5591L54.1348 5.59491C54.2894 5.50672 54.4254 5.38803 54.5348 5.24572C54.6443 5.10341 54.725 4.94032 54.7723 4.76589C54.8196 4.59146 54.8325 4.40917 54.8104 4.22958C54.7882 4.05 54.7315 3.87669 54.6433 3.71971C54.4643 3.40256 54.1698 3.1707 53.8241 3.07474C53.4784 2.97879 53.1096 3.02655 52.7983 3.20759L40.7171 10.1626C40.563 10.2509 40.4275 10.3695 40.3186 10.5117C40.2096 10.654 40.1294 10.8169 40.0825 10.991C40.0356 11.1652 40.023 11.3471 40.0455 11.5262C40.0679 11.7054 40.1249 11.8782 40.2131 12.0347ZM38.5196 9.01107C38.6965 9.32916 38.9896 9.56263 39.3345 9.66034C39.6795 9.75805 40.0483 9.71204 40.3601 9.53238L52.4488 2.56975C52.603 2.48234 52.7386 2.3644 52.8478 2.22282C52.9569 2.08123 53.0374 1.91884 53.0844 1.74512C53.1315 1.57141 53.1442 1.38985 53.1219 1.21105C53.0995 1.03224 53.0426 0.859785 52.9543 0.70374C52.8671 0.545197 52.7501 0.405837 52.61 0.293671C52.47 0.181506 52.3096 0.0987479 52.1381 0.050158C51.9667 0.00156811 51.7875 -0.0118961 51.6109 0.0105397C51.4344 0.0329755 51.2639 0.0908693 51.1093 0.180891L39.0251 7.1374C38.8708 7.2257 38.7351 7.34444 38.626 7.48673C38.5169 7.62902 38.4365 7.79203 38.3895 7.96631C38.3425 8.14059 38.3298 8.32268 38.3521 8.50202C38.3744 8.68136 38.4314 8.85439 38.5196 9.01107ZM48.7317 27.3246C48.9116 27.6404 49.2058 27.8712 49.5508 27.967C49.8958 28.0629 50.2638 28.0161 50.5753 27.8367L62.6684 20.8726C62.8226 20.7839 62.9581 20.665 63.0672 20.5226C63.1762 20.3802 63.2566 20.2171 63.3038 20.0428C63.3509 19.8685 63.3638 19.6864 63.3418 19.507C63.3198 19.3275 63.2632 19.1543 63.1754 18.9973C62.9947 18.6824 62.7005 18.4524 62.3559 18.3567C62.0112 18.261 61.6436 18.3071 61.3319 18.4852L49.2447 25.4494C48.9334 25.6285 48.7045 25.9267 48.6083 26.2784C48.5121 26.6301 48.5565 27.0064 48.7317 27.3246ZM47.0427 24.2902C47.131 24.4485 47.2489 24.5874 47.3898 24.699C47.5307 24.8105 47.6918 24.8925 47.8638 24.9403C48.0358 24.988 48.2153 25.0005 48.3921 24.9771C48.5688 24.9537 48.7393 24.8948 48.8937 24.8039L60.9779 17.8474C61.2878 17.6669 61.5152 17.3684 61.6105 17.017C61.7058 16.6656 61.6612 16.29 61.4864 15.9722C61.3981 15.8145 61.2804 15.6761 61.1398 15.565C60.9993 15.4538 60.8387 15.3721 60.6672 15.3244C60.4957 15.2767 60.3168 15.264 60.1405 15.287C59.9642 15.31 59.7941 15.3683 59.6399 15.4585L47.5572 22.415C47.403 22.5036 47.2673 22.6224 47.1579 22.7646C47.0486 22.9067 46.9677 23.0696 46.9199 23.2437C46.8722 23.4178 46.8584 23.5999 46.8795 23.7794C46.9005 23.959 46.956 24.1326 47.0427 24.2902ZM67.3214 36.6776H46.0152V39.1815H67.3214V36.6776ZM41.3622 41.9C41.4292 41.4878 41.6371 41.1133 41.9488 40.8429C42.2605 40.5726 42.6559 40.424 43.0647 40.4234H70.266C70.6749 40.4233 71.0706 40.5717 71.3825 40.8422C71.6943 41.1126 71.902 41.4875 71.9685 41.9H72V46H41.3307V41.9H41.3622Z" fill="#434343" fill-opacity="0.2"/>
</svg>
