<svg width="53" height="46" viewBox="0 0 53 46" fill="none" xmlns="http://www.w3.org/2000/svg">
<path d="M35.9131 3.28571C35.9131 2.41429 36.2571 1.57855 36.8694 0.962363C37.4817 0.346172 38.3121 0 39.178 0H45.7076C46.5735 0 47.4039 0.346172 48.0162 0.962363C48.6285 1.57855 48.9725 2.41429 48.9725 3.28571V42.7143H50.6049C51.0378 42.7143 51.453 42.8874 51.7592 43.1955C52.0653 43.5036 52.2373 43.9214 52.2373 44.3571C52.2373 44.7929 52.0653 45.2107 51.7592 45.5188C51.453 45.8269 51.0378 46 50.6049 46H1.63242C1.19947 46 0.784261 45.8269 0.478123 45.5188C0.171986 45.2107 0 44.7929 0 44.3571C0 43.9214 0.171986 43.5036 0.478123 43.1955C0.784261 42.8874 1.19947 42.7143 1.63242 42.7143H3.26483V32.8571C3.26483 31.9857 3.6088 31.15 4.22108 30.5338C4.83335 29.9176 5.66377 29.5714 6.52966 29.5714H13.0593C13.9252 29.5714 14.7556 29.9176 15.3679 30.5338C15.9802 31.15 16.3242 31.9857 16.3242 32.8571V42.7143H19.589V19.7143C19.589 18.8429 19.933 18.0071 20.5452 17.3909C21.1575 16.7747 21.9879 16.4286 22.8538 16.4286H29.3835C30.2494 16.4286 31.0798 16.7747 31.6921 17.3909C32.3043 18.0071 32.6483 18.8429 32.6483 19.7143V42.7143H35.9131V3.28571Z" fill="#434343" fill-opacity="0.2"/>
</svg>
