<svg width="54" height="46" viewBox="0 0 54 46" fill="none" xmlns="http://www.w3.org/2000/svg">
<path d="M53.8554 24.1979L46.1411 5.03125L46.0205 4.81562L45.8759 4.62396C45.8518 4.6 45.8518 4.6 45.8518 4.57604L45.6589 4.38437C45.6525 4.38437 45.6464 4.38185 45.6419 4.37736C45.6374 4.37286 45.6348 4.36677 45.6348 4.36042L45.4661 4.24062L45.4179 4.19271L45.2009 4.07292H45.1527L44.9598 4.00104H44.9116L44.6705 3.95312H43.9473L28.9286 7.1875V1.91667C28.9286 1.40833 28.7254 0.920824 28.3637 0.561379C28.002 0.201934 27.5115 0 27 0C26.4885 0 25.998 0.201934 25.6363 0.561379C25.2746 0.920824 25.0714 1.40833 25.0714 1.91667V8.05L9.23304 11.5479H9.06429L8.82321 11.6437H8.775L8.58214 11.7396C8.58214 11.7427 8.58152 11.7458 8.58031 11.7488C8.5791 11.7517 8.57732 11.7543 8.57508 11.7565C8.57284 11.7587 8.57019 11.7605 8.56726 11.7617C8.56434 11.7629 8.5612 11.7635 8.55804 11.7635L8.34107 11.9313C8.34107 11.9376 8.33853 11.9437 8.33401 11.9482C8.32949 11.9527 8.32336 11.9552 8.31696 11.9552L8.17232 12.1229H8.14821C8.08412 12.1829 8.03465 12.2567 8.00357 12.3385L7.95536 12.3865L7.85893 12.6021H7.83482L0.144643 31.8646C0.0503523 32.0927 0.00124005 32.3367 0 32.5833C0 38.1656 5.90625 40.25 9.64286 40.25C13.3795 40.25 19.2857 38.1656 19.2857 32.5833C19.2845 32.3367 19.2354 32.0927 19.1411 31.8646L12.2705 14.8063L25.0714 11.9792V42.1667H21.2143C20.7028 42.1667 20.2123 42.3686 19.8506 42.728C19.4889 43.0875 19.2857 43.575 19.2857 44.0833C19.2857 44.5917 19.4889 45.0792 19.8506 45.4386C20.2123 45.7981 20.7028 46 21.2143 46H32.7857C33.2972 46 33.7877 45.7981 34.1494 45.4386C34.5111 45.0792 34.7143 44.5917 34.7143 44.0833C34.7143 43.575 34.5111 43.0875 34.1494 42.728C33.7877 42.3686 33.2972 42.1667 32.7857 42.1667H28.9286V11.1167L41.1991 8.40937L34.8589 24.1979C34.7646 24.426 34.7155 24.6701 34.7143 24.9167C34.7143 30.499 40.6205 32.5833 44.3571 32.5833C48.0938 32.5833 54 30.499 54 24.9167C53.9988 24.6701 53.9496 24.426 53.8554 24.1979ZM15.2839 32.5833H4.00179L9.64286 18.5677L15.2839 32.5833ZM38.7161 24.9167L44.3571 10.901L49.9982 24.9167H38.7161Z" fill="#434343" fill-opacity="0.2"/>
</svg>
